SplineFontDB: 3.0
FontName: fontcustom
FullName: fontcustom
FamilyName: fontcustom
Weight: Medium
Copyright: Created by Jordan Humphreys with FontForge 2.0 (http://fontforge.sf.net)
Version: 001.000
ItalicAngle: 0
UnderlinePosition: -52
UnderlineWidth: 25
Ascent: 448
Descent: 64
sfntRevision: 0x00010000
LayerCount: 2
Layer: 0 1 "Back"  1
Layer: 1 1 "Fore"  0
XUID: [1021 571 1305555366 14379578]
FSType: 0
OS2Version: 4
OS2_WeightWidthSlopeOnly: 0
OS2_UseTypoMetrics: 1
CreationTime: 1377275155
ModificationTime: 1396215948
PfmFamily: 17
TTFWeight: 500
TTFWidth: 5
LineGap: 46
VLineGap: 0
Panose: 2 0 6 3 0 0 0 0 0 0
OS2TypoAscent: 0
OS2TypoAOffset: 1
OS2TypoDescent: 0
OS2TypoDOffset: 1
OS2TypoLinegap: 46
OS2WinAscent: -4
OS2WinAOffset: 1
OS2WinDescent: -4
OS2WinDOffset: 1
HheadAscent: -1
HheadAOffset: 1
HheadDescent: 1
HheadDOffset: 1
OS2SubXSize: 332
OS2SubYSize: 358
OS2SubXOff: 0
OS2SubYOff: 71
OS2SupXSize: 332
OS2SupYSize: 358
OS2SupXOff: 0
OS2SupYOff: 245
OS2StrikeYSize: 25
OS2StrikeYPos: 132
OS2Vendor: 'PfEd'
OS2CodePages: 00000001.00000000
OS2UnicodeRanges: 00000000.10000000.00000000.00000000
DEI: 91125
ShortTable: cvt  2
  17
  324
EndShort
ShortTable: maxp 16
  1
  0
  287
  276
  16
  0
  0
  2
  0
  1
  1
  0
  64
  46
  0
  0
EndShort
LangName: 1033 "" "" "" "FontForge 2.0 : fontcustom : 23-8-2013" 
GaspTable: 1 65535 2 0
Encoding: UnicodeBmp
UnicodeInterp: none
NameList: Adobe Glyph List
DisplaySize: -24
AntiAlias: 1
FitToEm: 1
WinInfo: 61350 50 16
BeginChars: 65539 293

StartChar: .notdef
Encoding: 65536 -1 0
Width: 187
Flags: W
LayerCount: 2
Fore
SplineSet
17 0 m 1,0,-1
 17 341 l 1,1,-1
 153 341 l 1,2,-1
 153 0 l 1,3,-1
 17 0 l 1,0,-1
34 17 m 1,4,-1
 136 17 l 1,5,-1
 136 324 l 1,6,-1
 34 324 l 1,7,-1
 34 17 l 1,4,-1
EndSplineSet
Validated: 1
EndChar

StartChar: uniF100
Encoding: 61696 61696 3
Width: 340
GlyphClass: 2
Flags: W
LayerCount: 2
Fore
SplineSet
330 287 m 2,0,-1
 306 287 l 1,1,-1
 306 257 l 1,2,-1
 330 257 l 2,3,4
 340 257 340 257 340 247 c 2,5,-1
 340 217 l 2,6,7
 340 207 340 207 330 207 c 2,8,-1
 306 207 l 1,9,-1
 306 178 l 1,10,-1
 330 178 l 2,11,12
 340 178 340 178 340 167 c 2,13,-1
 340 137 l 2,14,15
 340 127 340 127 330 127 c 2,16,-1
 306 127 l 1,17,-1
 306 98 l 1,18,-1
 330 98 l 2,19,20
 340 98 340 98 340 87 c 2,21,-1
 340 57 l 2,22,23
 340 47 340 47 330 47 c 2,24,-1
 306 47 l 1,25,-1
 306 38 l 2,26,27
 306 22 306 22 290 22 c 2,28,-1
 16 22 l 2,29,30
 0 22 0 22 0 38 c 2,31,-1
 0 346 l 2,32,33
 0 362 0 362 16 362 c 2,34,-1
 290 362 l 2,35,36
 306 362 306 362 306 346 c 2,37,-1
 306 337 l 1,38,-1
 330 337 l 2,39,40
 340 337 340 337 340 327 c 2,41,-1
 340 297 l 2,42,43
 340 287 340 287 330 287 c 2,0,-1
234 122 m 2,44,-1
 234 166 l 2,45,46
 234 172 234 172 228 176 c 1,47,-1
 173 202 l 1,48,49
 194 215 194 215 194 244 c 0,50,51
 194 264 194 264 182 278 c 128,-1,52
 170 292 170 292 153 292 c 128,-1,53
 136 292 136 292 124 278 c 128,-1,54
 112 264 112 264 112 244 c 0,55,56
 112 216 112 216 134 202 c 1,57,-1
 78 176 l 2,58,59
 73 173 73 173 73 166 c 2,60,-1
 73 122 l 2,61,62
 73 111 73 111 82 111 c 2,63,-1
 224 111 l 2,64,65
 234 111 234 111 234 122 c 2,44,-1
EndSplineSet
Validated: 1
EndChar

StartChar: uniF101
Encoding: 61697 61697 4
Width: 425
GlyphClass: 2
Flags: W
LayerCount: 2
Fore
SplineSet
423 31 m 2,0,1
 425 27 425 27 425 24 c 0,2,3
 425 17 425 17 419.5 11.5 c 128,-1,4
 414 6 414 6 406 6 c 2,5,-1
 18 6 l 2,6,7
 10 6 10 6 5 11 c 128,-1,8
 0 16 0 16 0 24 c 128,-1,9
 0 32 0 32 4 36 c 1,10,-1
 195 367 l 1,11,-1
 196 367 l 1,12,13
 202 378 202 378 212 378 c 0,14,15
 224 378 224 378 228 369 c 1,16,-1
 421 35 l 2,17,18
 421 34 421 34 421.5 34 c 128,-1,19
 422 34 422 34 422 33 c 2,20,-1
 423 31 l 2,0,1
213 40 m 128,-1,22
 224 40 224 40 231.5 48 c 128,-1,23
 239 56 239 56 239 67 c 128,-1,24
 239 78 239 78 231.5 85.5 c 128,-1,25
 224 93 224 93 213 93 c 128,-1,26
 202 93 202 93 194 85.5 c 128,-1,27
 186 78 186 78 186 67 c 128,-1,28
 186 56 186 56 194 48 c 128,-1,21
 202 40 202 40 213 40 c 128,-1,22
239 273 m 1,29,-1
 239 273 l 1,30,-1
 239 273 l 1,31,32
 239 283 239 283 228 283 c 2,33,-1
 196 283 l 2,34,35
 186 283 186 283 186 273 c 2,36,-1
 186 272 l 1,37,-1
 186 128 l 1,38,-1
 186 128 l 1,39,40
 186 117 186 117 197 117 c 2,41,-1
 228 117 l 1,42,-1
 228 117 l 1,43,44
 239 117 239 117 239 128 c 1,45,-1
 239 128 l 1,46,-1
 239 273 l 1,29,-1
EndSplineSet
Validated: 5
EndChar

StartChar: uniF102
Encoding: 61698 61698 5
Width: 355
GlyphClass: 2
Flags: W
LayerCount: 2
Fore
SplineSet
337 370 m 2,0,1
 355 370 355 370 355 353 c 2,2,-1
 355 337 l 2,3,4
 355 320 355 320 337 320 c 2,5,-1
 17 320 l 2,6,7
 0 320 0 320 0 337 c 2,8,-1
 0 353 l 2,9,10
 0 370 0 370 17 370 c 2,11,-1
 337 370 l 2,0,1
312 235 m 2,12,13
 312 218 312 218 294 218 c 2,14,-1
 61 218 l 2,15,16
 43 218 43 218 43 235 c 2,17,-1
 43 251 l 2,18,19
 43 268 43 268 61 268 c 2,20,-1
 294 268 l 2,21,22
 312 268 312 268 312 251 c 2,23,-1
 312 235 l 2,12,13
320 64 m 2,24,25
 337 64 337 64 337 47 c 2,26,-1
 337 31 l 2,27,28
 337 14 337 14 320 14 c 2,29,-1
 35 14 l 2,30,31
 17 14 17 14 17 31 c 2,32,-1
 17 47 l 2,33,34
 17 64 17 64 35 64 c 2,35,-1
 320 64 l 2,24,25
294 149 m 2,36,-1
 294 133 l 2,37,38
 294 116 294 116 277 116 c 1,39,-1
 277 116 l 1,40,-1
 78 116 l 2,41,42
 61 116 61 116 61 133 c 2,43,-1
 61 149 l 2,44,45
 61 166 61 166 78 166 c 2,46,-1
 277 166 l 1,47,-1
 277 166 l 1,48,49
 294 166 294 166 294 149 c 2,36,-1
EndSplineSet
Validated: 5
EndChar

StartChar: uniF103
Encoding: 61699 61699 6
Width: 355
GlyphClass: 2
Flags: W
LayerCount: 2
Fore
SplineSet
337 369 m 2,0,1
 355 369 355 369 355 352 c 2,2,-1
 355 336 l 2,3,4
 355 328 355 328 349.5 323 c 128,-1,5
 344 318 344 318 337 318 c 2,6,-1
 17 318 l 2,7,8
 0 318 0 318 0 336 c 2,9,-1
 0 352 l 2,10,11
 0 369 0 369 17 369 c 2,12,-1
 337 369 l 2,0,1
337 268 m 2,13,14
 355 268 355 268 355 251 c 2,15,-1
 355 235 l 2,16,17
 355 228 355 228 349.5 222.5 c 128,-1,18
 344 217 344 217 337 217 c 2,19,-1
 17 217 l 2,20,21
 0 217 0 217 0 235 c 2,22,-1
 0 251 l 2,23,24
 0 268 0 268 17 268 c 2,25,-1
 337 268 l 2,13,14
337 167 m 2,26,27
 344 167 344 167 349.5 161.5 c 128,-1,28
 355 156 355 156 355 149 c 2,29,-1
 355 133 l 2,30,31
 355 116 355 116 337 116 c 2,32,-1
 17 116 l 2,33,34
 0 116 0 116 0 133 c 2,35,-1
 0 149 l 2,36,37
 0 167 0 167 17 167 c 2,38,-1
 337 167 l 2,26,27
337 66 m 2,39,40
 344 66 344 66 349.5 61 c 128,-1,41
 355 56 355 56 355 48 c 2,42,-1
 355 32 l 2,43,44
 355 15 355 15 337 15 c 2,45,-1
 17 15 l 2,46,47
 0 15 0 15 0 32 c 2,48,-1
 0 48 l 2,49,50
 0 66 0 66 17 66 c 2,51,-1
 337 66 l 2,39,40
EndSplineSet
Validated: 1
EndChar

StartChar: uniF104
Encoding: 61700 61700 7
Width: 355
GlyphClass: 2
Flags: W
LayerCount: 2
Fore
SplineSet
337 370 m 2,0,1
 355 370 355 370 355 353 c 2,2,-1
 355 337 l 2,3,4
 355 320 355 320 337 320 c 2,5,-1
 17 320 l 2,6,7
 0 320 0 320 0 337 c 2,8,-1
 0 353 l 2,9,10
 0 370 0 370 17 370 c 2,11,-1
 337 370 l 2,0,1
17 218 m 2,12,13
 0 218 0 218 0 235 c 2,14,-1
 0 251 l 2,15,16
 0 269 0 269 17 269 c 2,17,-1
 251 269 l 2,18,19
 258 269 258 269 263.5 263.5 c 128,-1,20
 269 258 269 258 269 251 c 2,21,-1
 269 235 l 2,22,23
 269 218 269 218 251 218 c 2,24,-1
 17 218 l 2,12,13
302 64 m 2,25,26
 320 64 320 64 320 47 c 2,27,-1
 320 31 l 2,28,29
 320 14 320 14 302 14 c 2,30,-1
 17 14 l 2,31,32
 0 14 0 14 0 31 c 2,33,-1
 0 47 l 2,34,35
 0 64 0 64 17 64 c 2,36,-1
 302 64 l 2,25,26
17 116 m 2,37,38
 0 116 0 116 0 133 c 2,39,-1
 0 149 l 2,40,41
 0 166 0 166 17 166 c 2,42,-1
 216 166 l 1,43,-1
 216 166 l 1,44,45
 234 166 234 166 234 149 c 2,46,-1
 234 133 l 2,47,48
 234 116 234 116 216 116 c 1,49,-1
 216 116 l 1,50,-1
 17 116 l 2,37,38
EndSplineSet
Validated: 5
EndChar

StartChar: uniF105
Encoding: 61701 61701 8
Width: 355
GlyphClass: 2
Flags: W
LayerCount: 2
Fore
SplineSet
337 370 m 2,0,1
 355 370 355 370 355 353 c 2,2,-1
 355 337 l 2,3,4
 355 320 355 320 337 320 c 2,5,-1
 17 320 l 2,6,7
 0 320 0 320 0 337 c 2,8,-1
 0 353 l 2,9,10
 0 370 0 370 17 370 c 2,11,-1
 337 370 l 2,0,1
337 268 m 2,12,13
 355 268 355 268 355 251 c 2,14,-1
 355 235 l 2,15,16
 355 218 355 218 337 218 c 2,17,-1
 104 218 l 2,18,19
 86 218 86 218 86 235 c 2,20,-1
 86 251 l 2,21,22
 86 268 86 268 104 268 c 2,23,-1
 337 268 l 2,12,13
337 64 m 1,24,25
 355 64 355 64 355 47 c 2,26,-1
 355 31 l 2,27,28
 355 14 355 14 337 14 c 2,29,-1
 52 14 l 2,30,31
 35 14 35 14 35 31 c 2,32,-1
 35 47 l 2,33,34
 35 64 35 64 52 64 c 2,35,-1
 337 64 l 1,36,-1
 337 64 l 1,24,25
355 149 m 2,37,-1
 355 133 l 2,38,39
 355 116 355 116 337 116 c 1,40,-1
 337 116 l 1,41,-1
 138 116 l 2,42,43
 121 116 121 116 121 133 c 2,44,-1
 121 149 l 2,45,46
 121 166 121 166 138 166 c 2,47,-1
 337 166 l 1,48,-1
 337 166 l 1,49,50
 355 166 355 166 355 149 c 2,37,-1
EndSplineSet
Validated: 5
EndChar

StartChar: uniF106
Encoding: 61702 61702 9
Width: 393
GlyphClass: 2
Flags: W
LayerCount: 2
Fore
SplineSet
392 104 m 2,0,1
 393 103 393 103 393 100 c 0,2,3
 393 92 393 92 385 92 c 2,4,-1
 364 92 l 1,5,6
 339 48 339 48 294.5 21.5 c 128,-1,7
 250 -5 250 -5 197 -5 c 128,-1,8
 144 -5 144 -5 99.5 21.5 c 128,-1,9
 55 48 55 48 30 92 c 1,10,-1
 8 92 l 2,11,12
 0 92 0 92 0 100 c 0,13,14
 0 103 0 103 2 105 c 2,15,-1
 49 187 l 2,16,17
 51 192 51 192 56 192 c 128,-1,18
 61 192 61 192 63 188 c 2,19,-1
 111 104 l 2,20,21
 113 102 113 102 113 100 c 0,22,23
 113 92 113 92 104 92 c 2,24,-1
 92 92 l 1,25,26
 124 57 124 57 171 48 c 1,27,-1
 171 198 l 1,28,-1
 125 198 l 2,29,30
 117 198 117 198 117 206 c 2,31,-1
 117 241 l 2,32,33
 117 249 117 249 125 249 c 2,34,-1
 171 249 l 1,35,-1
 171 276 l 1,36,37
 137 293 137 293 137 330 c 0,38,39
 137 355 137 355 154.5 372 c 128,-1,40
 172 389 172 389 197 389 c 128,-1,41
 222 389 222 389 239 372 c 128,-1,42
 256 355 256 355 256 330 c 0,43,44
 256 293 256 293 222 276 c 1,45,-1
 222 249 l 1,46,-1
 269 249 l 2,47,48
 277 249 277 249 277 241 c 2,49,-1
 277 206 l 2,50,51
 277 198 277 198 269 198 c 2,52,-1
 222 198 l 1,53,-1
 222 48 l 1,54,55
 269 57 269 57 301 92 c 1,56,-1
 289 92 l 2,57,58
 281 92 281 92 281 100 c 0,59,60
 281 103 281 103 283 105 c 2,61,-1
 329 187 l 2,62,63
 331 192 331 192 337 192 c 0,64,65
 342 192 342 192 344 188 c 2,66,-1
 392 104 l 2,0,1
197 296 m 128,-1,68
 210 296 210 296 220 306 c 128,-1,69
 230 316 230 316 230 330 c 128,-1,70
 230 344 230 344 220 353.5 c 128,-1,71
 210 363 210 363 197 363 c 0,72,73
 183 363 183 363 173 353 c 128,-1,74
 163 343 163 343 163 330 c 0,75,76
 163 316 163 316 173.5 306 c 128,-1,67
 184 296 184 296 197 296 c 128,-1,68
EndSplineSet
Validated: 1
EndChar

StartChar: uniF107
Encoding: 61703 61703 10
Width: 388
GlyphClass: 2
Flags: W
LayerCount: 2
Fore
SplineSet
360 98 m 1,0,1
 388 83 388 83 388 51 c 0,2,3
 388 29 388 29 372.5 13 c 128,-1,4
 357 -3 357 -3 335 -3 c 0,5,6
 299 -3 299 -3 285 31 c 1,7,-1
 103 31 l 1,8,9
 89 -3 89 -3 53 -3 c 0,10,11
 31 -3 31 -3 15.5 13 c 128,-1,12
 0 29 0 29 0 51 c 0,13,14
 0 83 0 83 28 98 c 1,15,-1
 28 286 l 1,16,17
 0 301 0 301 0 333 c 0,18,19
 0 355 0 355 15.5 371 c 128,-1,20
 31 387 31 387 53 387 c 0,21,22
 80 387 80 387 97 363 c 1,23,-1
 291 363 l 1,24,25
 308 387 308 387 335 387 c 0,26,27
 357 387 357 387 372.5 371 c 128,-1,28
 388 355 388 355 388 333 c 0,29,30
 388 301 388 301 360 286 c 1,31,-1
 360 98 l 1,0,1
79 98 m 1,32,33
 88 93 88 93 97 82 c 1,34,-1
 292 82 l 1,35,36
 302 94 302 94 309 98 c 1,37,-1
 309 286 l 1,38,39
 294 294 294 294 286 312 c 1,40,-1
 102 312 l 1,41,42
 94 294 94 294 79 286 c 1,43,-1
 79 98 l 1,32,33
EndSplineSet
Validated: 1
EndChar

StartChar: uniF108
Encoding: 61704 61704 11
Width: 401
GlyphClass: 2
Flags: W
LayerCount: 2
Fore
SplineSet
401 279 m 1,0,-1
 401 32 l 2,1,2
 401 23 401 23 395 17 c 128,-1,3
 389 11 389 11 380 11 c 2,4,-1
 379 11 l 1,5,-1
 22 11 l 1,6,-1
 21 11 l 2,7,8
 12 11 12 11 6 17 c 128,-1,9
 0 23 0 23 0 32 c 2,10,-1
 0 279 l 1,11,-1
 0 280 l 2,12,13
 0 287 0 287 5 294 c 2,14,-1
 47 366 l 2,15,16
 50 373 50 373 58 373 c 1,17,-1
 58 373 l 1,18,-1
 342 373 l 1,19,-1
 343 373 l 2,20,21
 354 373 354 373 356 363 c 1,22,-1
 396 294 l 1,23,-1
 396 293 l 1,24,25
 401 286 401 286 401 280 c 2,26,-1
 401 279 l 1,0,-1
269 154 m 2,27,28
 271 158 271 158 270 160 c 0,29,30
 268 163 268 163 264 163 c 2,31,-1
 234 163 l 1,32,-1
 234 244 l 2,33,34
 234 250 234 250 228 250 c 2,35,-1
 173 250 l 2,36,37
 167 250 167 250 167 244 c 2,38,-1
 167 163 l 1,39,-1
 137 163 l 2,40,41
 132 163 132 163 131 160 c 0,42,43
 130 158 130 158 132 154 c 2,44,-1
 196 64 l 2,45,46
 197 62 197 62 201 62 c 128,-1,47
 205 62 205 62 206 64 c 2,48,-1
 269 154 l 2,27,28
39 301 m 1,49,-1
 362 301 l 1,50,-1
 335 348 l 1,51,-1
 66 348 l 1,52,-1
 39 301 l 1,49,-1
EndSplineSet
Validated: 5
EndChar

StartChar: uniF109
Encoding: 61705 61705 12
Width: 292
GlyphClass: 2
Flags: W
LayerCount: 2
Fore
SplineSet
2 188 m 2,0,1
 -3 194 -3 194 1 201 c 0,2,3
 4 208 4 208 13 208 c 2,4,-1
 75 208 l 1,5,-1
 75 375 l 2,6,7
 75 388 75 388 88 388 c 2,8,-1
 204 388 l 2,9,10
 216 388 216 388 216 375 c 2,11,-1
 216 208 l 1,12,-1
 279 208 l 2,13,14
 286 208 286 208 290 201 c 128,-1,15
 294 194 294 194 289 188 c 2,16,-1
 157 1 l 2,17,18
 154 -4 154 -4 146 -4 c 0,19,20
 139 -4 139 -4 136 1 c 2,21,-1
 2 188 l 2,0,1
EndSplineSet
Validated: 1
EndChar

StartChar: uniF10A
Encoding: 61706 61706 13
Width: 393
GlyphClass: 2
Flags: W
LayerCount: 2
Fore
SplineSet
192 335 m 2,0,1
 198 340 198 340 205 336 c 128,-1,2
 212 332 212 332 212 325 c 2,3,-1
 212 263 l 1,4,-1
 380 263 l 2,5,6
 393 263 393 263 393 250 c 2,7,-1
 393 134 l 2,8,9
 393 121 393 121 380 121 c 2,10,-1
 212 121 l 1,11,-1
 212 59 l 2,12,13
 212 52 212 52 205 48 c 128,-1,14
 198 44 198 44 192 49 c 2,15,-1
 5 181 l 2,16,17
 0 184 0 184 0 192 c 0,18,19
 0 199 0 199 5 202 c 2,20,-1
 192 335 l 2,0,1
EndSplineSet
Validated: 1
EndChar

StartChar: uniF10B
Encoding: 61707 61707 14
Width: 393
GlyphClass: 2
Flags: W
LayerCount: 2
Fore
SplineSet
201 49 m 2,0,1
 195 44 195 44 187 48 c 0,2,3
 180 52 180 52 180 59 c 2,4,-1
 180 121 l 1,5,-1
 13 121 l 2,6,7
 0 121 0 121 0 134 c 2,8,-1
 0 250 l 2,9,10
 0 263 0 263 13 263 c 2,11,-1
 180 263 l 1,12,-1
 180 325 l 2,13,14
 180 332 180 332 187 336 c 0,15,16
 195 340 195 340 201 335 c 2,17,-1
 387 203 l 2,18,19
 393 199 393 199 393 192 c 0,20,21
 393 186 393 186 387 182 c 2,22,-1
 201 49 l 2,0,1
EndSplineSet
Validated: 1
EndChar

StartChar: uniF10C
Encoding: 61708 61708 15
Width: 292
GlyphClass: 2
Flags: W
LayerCount: 2
Fore
SplineSet
289 196 m 2,0,1
 294 190 294 190 290 183 c 128,-1,2
 286 176 286 176 279 176 c 2,3,-1
 216 176 l 1,4,-1
 216 9 l 2,5,6
 216 -4 216 -4 204 -4 c 2,7,-1
 88 -4 l 2,8,9
 75 -4 75 -4 75 9 c 2,10,-1
 75 176 l 1,11,-1
 13 176 l 2,12,13
 4 176 4 176 1 183 c 0,14,15
 -3 190 -3 190 2 196 c 2,16,-1
 135 383 l 2,17,18
 138 388 138 388 145 388 c 0,19,20
 153 388 153 388 156 383 c 2,21,-1
 289 196 l 2,0,1
EndSplineSet
Validated: 1
EndChar

StartChar: uniF10D
Encoding: 61709 61709 16
Width: 512
GlyphClass: 2
Flags: W
LayerCount: 2
Fore
SplineSet
201 -5 m 1,0,1
 199 -10 199 -10 194 -12 c 128,-1,2
 189 -14 189 -14 185 -10 c 2,3,-1
 155 21 l 1,4,-1
 72 -61 l 2,5,6
 66 -68 66 -68 59 -61 c 2,7,-1
 3 -5 l 2,8,9
 -4 2 -4 2 3 8 c 2,10,-1
 85 91 l 1,11,-1
 54 121 l 2,12,13
 50 125 50 125 52 130 c 128,-1,14
 54 135 54 135 59 137 c 1,15,-1
 216 163 l 2,16,17
 222 163 222 163 224 161 c 0,18,19
 227 158 227 158 227 153 c 2,20,-1
 201 -5 l 1,0,1
311 389 m 1,21,22
 313 394 313 394 318 396 c 128,-1,23
 323 398 323 398 327 394 c 2,24,-1
 357 363 l 1,25,-1
 440 445 l 2,26,27
 446 452 446 452 453 445 c 2,28,-1
 509 389 l 2,29,30
 516 382 516 382 509 376 c 2,31,-1
 427 293 l 1,32,-1
 458 263 l 2,33,34
 462 259 462 259 460 254 c 128,-1,35
 458 249 458 249 453 247 c 1,36,-1
 296 221 l 2,37,38
 290 221 290 221 288 223 c 0,39,40
 285 226 285 226 285 231 c 2,41,-1
 311 389 l 1,21,22
EndSplineSet
Validated: 1
EndChar

StartChar: uniF10E
Encoding: 61710 61710 17
Width: 512
GlyphClass: 2
Flags: W
LayerCount: 2
Fore
SplineSet
26 104 m 2,0,1
 28 110 28 110 32 111 c 0,2,3
 37 113 37 113 41 109 c 2,4,-1
 72 78 l 1,5,-1
 155 161 l 2,6,7
 161 167 161 167 167 161 c 2,8,-1
 224 104 l 2,9,10
 230 98 230 98 224 91 c 2,11,-1
 142 9 l 1,12,-1
 172 -22 l 2,13,14
 176 -27 176 -27 175 -31 c 128,-1,15
 174 -35 174 -35 168 -37 c 2,16,-1
 10 -64 l 2,17,18
 6 -64 6 -64 3 -61 c 128,-1,19
 0 -58 0 -58 0 -54 c 2,20,-1
 26 104 l 2,0,1
486 280 m 2,21,22
 484 274 484 274 480 273 c 0,23,24
 475 271 475 271 471 275 c 2,25,-1
 440 306 l 1,26,-1
 357 223 l 2,27,28
 351 217 351 217 345 223 c 2,29,-1
 288 280 l 2,30,31
 282 286 282 286 288 293 c 2,32,-1
 370 375 l 1,33,-1
 340 406 l 2,34,35
 336 410 336 410 337 415 c 0,36,37
 338 419 338 419 344 421 c 2,38,-1
 502 448 l 2,39,40
 506 448 506 448 509 445 c 128,-1,41
 512 442 512 442 512 438 c 2,42,-1
 486 280 l 2,21,22
EndSplineSet
Validated: 1
EndChar

StartChar: uniF10F
Encoding: 61711 61711 18
Width: 512
GlyphClass: 2
Flags: W
LayerCount: 2
Fore
SplineSet
184 -10 m 1,0,1
 182 -15 182 -15 179 -16 c 0,2,3
 174 -18 174 -18 170 -14 c 2,4,-1
 142 14 l 1,5,-1
 66 -62 l 2,6,7
 60 -68 60 -68 55 -62 c 2,8,-1
 2 -9 l 2,9,10
 -4 -4 -4 -4 2 2 c 2,11,-1
 78 78 l 1,12,-1
 50 106 l 2,13,14
 46 110 46 110 48 115 c 0,15,16
 49 118 49 118 54 120 c 1,17,-1
 199 145 l 2,18,19
 203 145 203 145 206 142 c 0,20,21
 208 140 208 140 208 135 c 2,22,-1
 184 -10 l 1,0,1
328 394 m 1,23,24
 330 399 330 399 333 400 c 0,25,26
 338 402 338 402 342 398 c 2,27,-1
 370 370 l 1,28,-1
 446 446 l 2,29,30
 452 452 452 452 457 446 c 2,31,-1
 510 393 l 2,32,33
 516 388 516 388 510 382 c 2,34,-1
 434 306 l 1,35,-1
 462 278 l 2,36,37
 466 274 466 274 464 269 c 0,38,39
 463 266 463 266 458 264 c 1,40,-1
 313 239 l 2,41,42
 309 239 309 239 306 242 c 0,43,44
 304 244 304 244 304 249 c 2,45,-1
 328 394 l 1,23,24
458 120 m 1,46,47
 463 118 463 118 464 115 c 0,48,49
 466 110 466 110 462 106 c 2,50,-1
 434 78 l 1,51,-1
 510 2 l 2,52,53
 516 -4 516 -4 510 -9 c 2,54,-1
 457 -62 l 2,55,56
 452 -68 452 -68 446 -62 c 2,57,-1
 370 14 l 1,58,-1
 342 -14 l 2,59,60
 338 -18 338 -18 333 -16 c 0,61,62
 330 -15 330 -15 328 -10 c 1,63,-1
 303 135 l 2,64,65
 303 139 303 139 306 142 c 0,66,67
 308 144 308 144 313 144 c 2,68,-1
 458 120 l 1,46,47
54 264 m 1,69,70
 49 266 49 266 48 269 c 0,71,72
 46 274 46 274 50 278 c 2,73,-1
 78 306 l 1,74,-1
 2 382 l 2,75,76
 -4 388 -4 388 2 393 c 2,77,-1
 55 446 l 2,78,79
 60 452 60 452 66 446 c 2,80,-1
 142 370 l 1,81,-1
 170 398 l 2,82,83
 174 402 174 402 179 400 c 0,84,85
 182 399 182 399 184 394 c 1,86,-1
 209 249 l 2,87,88
 209 245 209 245 206 242 c 0,89,90
 204 240 204 240 199 240 c 2,91,-1
 54 264 l 1,69,70
EndSplineSet
Validated: 1
EndChar

StartChar: uniF110
Encoding: 61712 61712 19
Width: 512
GlyphClass: 2
Flags: W
LayerCount: 2
Fore
SplineSet
24 90 m 2,0,1
 26 96 26 96 30 97 c 128,-1,2
 34 98 34 98 38 95 c 2,3,-1
 66 67 l 1,4,-1
 142 142 l 2,5,6
 148 148 148 148 154 142 c 2,7,-1
 206 90 l 2,8,9
 212 84 212 84 206 78 c 2,10,-1
 130 3 l 1,11,-1
 158 -26 l 2,12,13
 162 -30 162 -30 160 -34 c 0,14,15
 159 -37 159 -37 154 -39 c 1,16,-1
 10 -64 l 1,17,18
 4 -64 4 -64 2 -62 c 128,-1,19
 0 -60 0 -60 0 -54 c 2,20,-1
 24 90 l 2,0,1
488 294 m 2,21,22
 486 288 486 288 482 287 c 128,-1,23
 478 286 478 286 474 289 c 2,24,-1
 446 317 l 1,25,-1
 370 242 l 2,26,27
 364 236 364 236 358 242 c 2,28,-1
 306 294 l 2,29,30
 300 300 300 300 306 306 c 2,31,-1
 382 381 l 1,32,-1
 354 410 l 2,33,34
 350 413 350 413 352 418 c 0,35,36
 353 421 353 421 358 423 c 1,37,-1
 502 448 l 1,38,39
 508 448 508 448 510 446 c 128,-1,40
 512 444 512 444 512 438 c 2,41,-1
 488 294 l 2,21,22
358 -40 m 2,42,43
 352 -38 352 -38 351 -34 c 0,44,45
 350 -29 350 -29 353 -26 c 2,46,-1
 381 2 l 1,47,-1
 306 78 l 2,48,49
 300 84 300 84 306 90 c 2,50,-1
 358 142 l 2,51,52
 364 148 364 148 370 142 c 2,53,-1
 445 66 l 1,54,-1
 474 94 l 2,55,56
 478 98 478 98 482 96 c 0,57,58
 485 95 485 95 487 90 c 1,59,-1
 512 -54 l 1,60,61
 512 -60 512 -60 510 -62 c 128,-1,62
 508 -64 508 -64 502 -64 c 2,63,-1
 358 -40 l 2,42,43
154 424 m 2,64,65
 160 422 160 422 161 418 c 0,66,67
 162 413 162 413 159 410 c 2,68,-1
 131 382 l 1,69,-1
 206 306 l 2,70,71
 212 300 212 300 206 294 c 2,72,-1
 154 242 l 2,73,74
 148 236 148 236 142 242 c 2,75,-1
 67 318 l 1,76,-1
 38 290 l 2,77,78
 34 286 34 286 30 288 c 0,79,80
 27 289 27 289 25 294 c 1,81,-1
 0 438 l 1,82,83
 0 444 0 444 2 446 c 128,-1,84
 4 448 4 448 10 448 c 2,85,-1
 154 424 l 2,64,65
EndSplineSet
Validated: 1
EndChar

StartChar: uniF111
Encoding: 61713 61713 20
Width: 440
GlyphClass: 2
Flags: W
LayerCount: 2
Fore
SplineSet
94 315 m 1,0,1
 95 316 95 316 96.5 317 c 128,-1,2
 98 318 98 318 99 318 c 0,3,4
 126 342 126 342 158 352 c 0,5,6
 169 355 169 355 193 357 c 0,7,8
 198 357 198 357 200 353 c 128,-1,9
 202 349 202 349 198 345 c 0,10,11
 193 340 193 340 188 339 c 0,12,13
 181 337 181 337 166.5 332.5 c 128,-1,14
 152 328 152 328 144 325 c 0,15,16
 142 324 142 324 139 321 c 128,-1,17
 136 318 136 318 135 317 c 0,18,19
 132 314 132 314 125 309 c 128,-1,20
 118 304 118 304 114 301 c 2,21,-1
 111 298 l 1,22,-1
 111 297 l 1,23,24
 116 300 116 300 122 301 c 0,25,26
 153 311 153 311 157 312 c 0,27,28
 160 313 160 313 189 310 c 0,29,30
 192 310 192 310 196 306 c 0,31,32
 200 303 200 303 207.5 296.5 c 128,-1,33
 215 290 215 290 219 287 c 128,-1,34
 223 284 223 284 220 280 c 0,35,36
 213 270 213 270 202 276 c 0,37,38
 199 278 199 278 187 287 c 0,39,40
 181 291 181 291 178 290 c 0,41,42
 175 290 175 290 167 289 c 128,-1,43
 159 288 159 288 156 288 c 128,-1,44
 153 288 153 288 149 286 c 0,45,46
 144 282 144 282 134 275 c 128,-1,47
 124 268 124 268 119 264 c 0,48,49
 116 262 116 262 116 257 c 1,50,51
 118 257 118 257 119 258 c 0,52,53
 127 263 127 263 145 265 c 0,54,55
 146 265 146 265 149 265.5 c 128,-1,56
 152 266 152 266 154 266 c 0,57,58
 167 268 167 268 183 256 c 0,59,60
 197 246 197 246 204 240 c 0,61,62
 210 236 210 236 210 227 c 0,63,64
 210 209 210 209 207 200 c 1,65,-1
 207 197 l 1,66,67
 211 195 211 195 208 184 c 0,68,69
 207 180 207 180 203.5 171 c 128,-1,70
 200 162 200 162 198 157 c 0,71,72
 194 146 194 146 180 141 c 0,73,74
 166 137 166 137 118 121 c 0,75,76
 105 116 105 116 92 119 c 0,77,78
 68 125 68 125 43 114 c 0,79,80
 36 111 36 111 20 103 c 1,81,82
 8 120 8 120 3 144 c 0,83,84
 -2 167 -2 167 1 196 c 0,85,86
 1 197 1 197 4 200 c 1,87,88
 24 208 24 208 35 237 c 0,89,90
 37 243 37 243 40.5 255 c 128,-1,91
 44 267 44 267 47.5 276.5 c 128,-1,92
 51 286 51 286 56 294 c 0,93,94
 89 343 89 343 96 349 c 0,95,96
 105 358 105 358 119 376 c 0,97,98
 123 381 123 381 127 375 c 0,99,100
 132 367 132 367 126 359 c 0,101,102
 121 352 121 352 110.5 339 c 128,-1,103
 100 326 100 326 95 320 c 1,104,-1
 93 316 l 1,105,-1
 94 315 l 1,0,1
167 170 m 1,106,107
 176 170 176 170 177 173 c 0,108,109
 182 184 182 184 195 195 c 0,110,111
 197 197 197 197 196 200 c 0,112,113
 194 204 194 204 191 211 c 128,-1,114
 188 218 188 218 186 221 c 128,-1,115
 184 224 184 224 181 226 c 0,116,117
 169 234 169 234 162 238 c 0,118,119
 158 240 158 240 156 239 c 0,120,121
 153 238 153 238 148 235.5 c 128,-1,122
 143 233 143 233 141 232 c 128,-1,123
 139 231 139 231 134.5 229.5 c 128,-1,124
 130 228 130 228 128 227 c 0,125,126
 117 223 117 223 111 204 c 0,127,128
 108 195 108 195 115 188 c 0,129,130
 124 178 124 178 132 168 c 0,131,132
 134 166 134 166 138 167 c 0,133,134
 156 172 156 172 167 170 c 1,106,107
346 69 m 1,135,136
 345 68 345 68 341.5 66 c 128,-1,137
 338 64 338 64 336 62 c 0,138,139
 315 42 315 42 283 32 c 0,140,141
 272 28 272 28 248 26 c 0,142,143
 243 25 243 25 241 29.5 c 128,-1,144
 239 34 239 34 242 38 c 0,145,146
 249 45 249 45 253 46 c 0,147,148
 259 48 259 48 271.5 51.5 c 128,-1,149
 284 55 284 55 290 57 c 0,150,151
 295 59 295 59 303 65 c 0,152,153
 307 68 307 68 315 74.5 c 128,-1,154
 323 81 323 81 327 84 c 0,155,156
 329 86 329 86 329 88 c 1,157,158
 327 87 327 87 322.5 85 c 128,-1,159
 318 83 318 83 316 82 c 0,160,161
 290 73 290 73 284 72 c 0,162,163
 278 72 278 72 251 74 c 0,164,165
 248 74 248 74 244 78 c 0,166,167
 241 80 241 80 234.5 86 c 128,-1,168
 228 92 228 92 224 94 c 0,169,170
 211 104 211 104 227 109 c 0,171,172
 233 111 233 111 238 108 c 0,173,174
 241 106 241 106 247 101.5 c 128,-1,175
 253 97 253 97 255 96 c 0,176,177
 259 94 259 94 261 94 c 0,178,179
 269 94 269 94 283 96 c 0,180,181
 288 96 288 96 293 99 c 0,182,183
 298 103 298 103 307 109.5 c 128,-1,184
 316 116 316 116 321 120 c 0,185,186
 322 120 322 120 324 127 c 1,187,188
 314 120 314 120 285 118 c 0,189,190
 272 117 272 117 262 125 c 0,191,192
 257 128 257 128 247.5 135 c 128,-1,193
 238 142 238 142 234 146 c 128,-1,194
 230 150 230 150 230 154 c 0,195,196
 230 163 230 163 232 181 c 0,197,198
 232 189 232 189 231 190 c 1,199,-1
 231 194 l 2,200,201
 231 196 231 196 232.5 199.5 c 128,-1,202
 234 203 234 203 235 205 c 0,203,204
 239 214 239 214 242 225 c 0,205,206
 247 239 247 239 261 243 c 0,207,208
 287 251 287 251 323 263 c 0,209,210
 337 268 337 268 349 265 c 0,211,212
 374 258 374 258 401 271 c 0,213,214
 403 272 403 272 409.5 275.5 c 128,-1,215
 416 279 416 279 420 281 c 1,216,217
 429 271 429 271 435 249 c 0,218,219
 442 224 442 224 439 188 c 0,220,221
 439 184 439 184 432 182 c 0,222,223
 418 177 418 177 411 160 c 0,224,225
 406 150 406 150 400 128 c 1,226,227
 390 98 390 98 381 85 c 0,228,229
 377 80 377 80 370.5 70 c 128,-1,230
 364 60 364 60 361 55 c 0,231,232
 358 51 358 51 351.5 43.5 c 128,-1,233
 345 36 345 36 342 32 c 2,234,-1
 321 8 l 2,235,236
 316 3 316 3 313 9 c 0,237,238
 309 16 309 16 315 25 c 0,239,240
 320 32 320 32 330 44.5 c 128,-1,241
 340 57 340 57 345 63 c 0,242,243
 346 64 346 64 346 65 c 0,244,245
 347 67 347 67 347 68 c 2,246,-1
 346 69 l 1,135,136
245 186 m 1,247,248
 251 170 251 170 255 162 c 0,249,250
 256 159 256 159 259 158 c 0,251,252
 262 156 262 156 268.5 152 c 128,-1,253
 275 148 275 148 278 146 c 0,254,255
 282 144 282 144 285 145 c 0,256,257
 289 146 289 146 296.5 149.5 c 128,-1,258
 304 153 304 153 308 155 c 0,259,260
 322 160 322 160 325 169 c 0,261,262
 326 172 326 172 329 182 c 0,263,264
 331 190 331 190 326 195 c 0,265,266
 319 202 319 202 307 216 c 0,267,268
 306 217 306 217 303 217 c 0,269,270
 283 212 283 212 270 214 c 0,271,272
 264 214 264 214 263 211 c 1,273,274
 259 206 259 206 253 197 c 128,-1,275
 247 188 247 188 245 186 c 1,247,248
EndSplineSet
Validated: 33
EndChar

StartChar: uniF112
Encoding: 61714 61714 21
Width: 343
GlyphClass: 2
Flags: W
LayerCount: 2
Fore
SplineSet
338 140 m 1,0,1
 345 135 345 135 342 128 c 1,2,-1
 342 126 l 1,3,-1
 341 126 l 1,4,-1
 313 77 l 2,5,6
 308 69 308 69 299 74 c 0,7,8
 298 74 298 74 297 75 c 2,9,-1
 210 125 l 1,10,-1
 210 22 l 1,11,-1
 210 22 l 1,12,13
 210 14 210 14 201 12 c 1,14,-1
 143 12 l 2,15,16
 133 12 133 12 133 22 c 2,17,-1
 133 25 l 1,18,-1
 133 125 l 1,19,-1
 44 74 l 1,20,-1
 44 74 l 1,21,22
 37 68 37 68 31 76 c 1,23,-1
 1 127 l 2,24,25
 -4 136 -4 136 5 141 c 0,26,27
 6 141 6 141 6 141.5 c 128,-1,28
 6 142 6 142 7 142 c 2,29,-1
 95 192 l 1,30,-1
 5 243 l 1,31,-1
 5 244 l 1,32,-1
 5 244 l 1,33,34
 -4 249 -4 249 1 257 c 2,35,-1
 30 306 l 1,36,-1
 30 307 l 1,37,38
 35 316 35 316 44 311 c 2,39,-1
 133 259 l 1,40,-1
 133 362 l 2,41,42
 133 372 133 372 143 372 c 2,43,-1
 200 372 l 1,44,-1
 200 372 l 1,45,46
 210 372 210 372 210 362 c 2,47,-1
 210 259 l 1,48,-1
 300 310 l 2,49,50
 308 315 308 315 313 307 c 2,51,-1
 341 258 l 1,52,-1
 342 257 l 1,53,54
 347 248 347 248 338 243 c 2,55,-1
 249 192 l 1,56,-1
 338 141 l 1,57,-1
 338 140 l 1,0,1
EndSplineSet
Validated: 5
EndChar

StartChar: uniF113
Encoding: 61715 61715 22
Width: 384
GlyphClass: 2
Flags: W
LayerCount: 2
Fore
SplineSet
384 192 m 2,0,-1
 384 183 l 2,1,2
 384 131 384 131 358.5 106 c 128,-1,3
 333 81 333 81 299 81 c 0,4,5
 278 81 278 81 250.5 94.5 c 128,-1,6
 223 108 223 108 221 120 c 1,7,-1
 221 123 l 1,8,9
 195 87 195 87 156 87 c 0,10,11
 124 87 124 87 105 107.5 c 128,-1,12
 86 128 86 128 86 162 c 0,13,14
 86 206 86 206 117 239.5 c 128,-1,15
 148 273 148 273 188 273 c 128,-1,16
 228 273 228 273 244 243 c 1,17,-1
 248 261 l 2,18,19
 250 266 250 266 255 266 c 2,20,-1
 292 266 l 2,21,22
 299 266 299 266 299 260 c 1,23,-1
 298 258 l 1,24,-1
 299 258 l 1,25,-1
 277 157 l 2,26,27
 277 156 277 156 276.5 152 c 128,-1,28
 276 148 276 148 276 146 c 0,29,30
 276 125 276 125 293 125 c 0,31,32
 308 125 308 125 320 147 c 128,-1,33
 332 169 332 169 332 205 c 1,34,35
 327 259 327 259 287 296 c 128,-1,36
 247 333 247 333 192 333 c 0,37,38
 134 333 134 333 92.5 291.5 c 128,-1,39
 51 250 51 250 51 192 c 128,-1,40
 51 134 51 134 92.5 92.5 c 128,-1,41
 134 51 134 51 192 51 c 0,42,43
 222 51 222 51 245 61 c 0,44,45
 246 61 246 61 248 62 c 1,46,47
 251 62 251 62 253 60 c 2,48,-1
 287 39 l 1,49,50
 291 38 291 38 291 32 c 0,51,52
 291 27 291 27 286 25 c 0,53,54
 242 0 242 0 192 0 c 0,55,56
 112 0 112 0 56 56 c 128,-1,57
 0 112 0 112 0 192 c 128,-1,58
 0 272 0 272 56 328 c 128,-1,59
 112 384 112 384 192 384 c 128,-1,60
 272 384 272 384 328 328 c 128,-1,61
 384 272 384 272 384 192 c 2,0,-1
226 157 m 1,62,-1
 237 209 l 1,63,64
 226 232 226 232 201 232 c 0,65,66
 175 232 175 232 157 212.5 c 128,-1,67
 139 193 139 193 139 167 c 0,68,69
 139 149 139 149 149 138 c 128,-1,70
 159 127 159 127 176 127 c 0,71,72
 205 127 205 127 226 157 c 1,62,-1
EndSplineSet
Validated: 1
EndChar

StartChar: uniF114
Encoding: 61716 61716 23
Width: 369
GlyphClass: 2
Flags: W
LayerCount: 2
Fore
SplineSet
122 53 m 1,0,-1
 255 53 l 1,1,-1
 272 8 l 1,2,-1
 105 8 l 1,3,-1
 122 53 l 1,0,-1
136 98 m 1,4,-1
 188 236 l 1,5,-1
 241 98 l 1,6,-1
 136 98 l 1,4,-1
333 376 m 2,7,8
 348 376 348 376 358.5 365.5 c 128,-1,9
 369 355 369 355 369 340 c 2,10,-1
 369 44 l 2,11,12
 369 29 369 29 358.5 18.5 c 128,-1,13
 348 8 348 8 333 8 c 2,14,-1
 330 8 l 1,15,-1
 224 278 l 2,16,17
 220 287 220 287 211 287 c 2,18,-1
 166 287 l 2,19,20
 157 287 157 287 153 278 c 2,21,-1
 47 8 l 1,22,-1
 36 8 l 2,23,24
 21 8 21 8 10.5 18.5 c 128,-1,25
 0 29 0 29 0 44 c 2,26,-1
 0 340 l 2,27,28
 0 355 0 355 10.5 365.5 c 128,-1,29
 21 376 21 376 36 376 c 2,30,-1
 333 376 l 2,7,8
EndSplineSet
Validated: 1
EndChar

StartChar: uniF115
Encoding: 61717 61717 24
Width: 484
GlyphClass: 2
Flags: W
LayerCount: 2
Fore
SplineSet
476 236 m 2,0,1
 484 236 484 236 484 227 c 2,2,-1
 484 165 l 2,3,4
 484 156 484 156 476 156 c 2,5,-1
 436 156 l 1,6,-1
 436 61 l 1,7,-1
 436 61 l 1,8,9
 436 52 436 52 427 52 c 2,10,-1
 9 52 l 2,11,12
 0 52 0 52 0 61 c 1,13,-1
 0 61 l 1,14,-1
 0 323 l 1,15,-1
 0 323 l 1,16,17
 0 332 0 332 9 332 c 2,18,-1
 427 332 l 2,19,20
 436 332 436 332 436 323 c 1,21,-1
 436 323 l 1,22,-1
 436 236 l 1,23,-1
 476 236 l 2,0,1
385 103 m 1,24,-1
 385 280 l 1,25,-1
 52 280 l 1,26,-1
 52 103 l 1,27,-1
 385 103 l 1,24,-1
EndSplineSet
Validated: 5
EndChar

StartChar: uniF116
Encoding: 61718 61718 25
Width: 484
GlyphClass: 2
Flags: W
LayerCount: 2
Fore
SplineSet
476 236 m 2,0,1
 484 236 484 236 484 227 c 2,2,-1
 484 165 l 2,3,4
 484 156 484 156 476 156 c 2,5,-1
 436 156 l 1,6,-1
 436 61 l 1,7,-1
 436 61 l 1,8,9
 436 52 436 52 427 52 c 2,10,-1
 9 52 l 2,11,12
 0 52 0 52 0 61 c 1,13,-1
 0 61 l 1,14,-1
 0 323 l 1,15,-1
 0 323 l 1,16,17
 0 332 0 332 9 332 c 2,18,-1
 427 332 l 2,19,20
 436 332 436 332 436 323 c 1,21,-1
 436 323 l 1,22,-1
 436 236 l 1,23,-1
 476 236 l 2,0,1
385 103 m 1,24,-1
 385 280 l 1,25,-1
 52 280 l 1,26,-1
 52 103 l 1,27,-1
 385 103 l 1,24,-1
78 128 m 1,28,-1
 78 257 l 1,29,-1
 359 257 l 1,30,-1
 359 128 l 1,31,-1
 78 128 l 1,28,-1
EndSplineSet
Validated: 5
EndChar

StartChar: uniF117
Encoding: 61719 61719 26
Width: 484
GlyphClass: 2
Flags: W
LayerCount: 2
Fore
SplineSet
476 236 m 2,0,1
 484 236 484 236 484 227 c 2,2,-1
 484 165 l 2,3,4
 484 156 484 156 476 156 c 2,5,-1
 436 156 l 1,6,-1
 436 61 l 1,7,-1
 436 61 l 1,8,9
 436 52 436 52 427 52 c 2,10,-1
 9 52 l 2,11,12
 0 52 0 52 0 61 c 1,13,-1
 0 61 l 1,14,-1
 0 323 l 1,15,-1
 0 323 l 1,16,17
 0 332 0 332 9 332 c 2,18,-1
 427 332 l 2,19,20
 436 332 436 332 436 323 c 1,21,-1
 436 323 l 1,22,-1
 436 236 l 1,23,-1
 476 236 l 2,0,1
385 103 m 1,24,-1
 385 280 l 1,25,-1
 52 280 l 1,26,-1
 52 103 l 1,27,-1
 385 103 l 1,24,-1
276 255 m 1,28,-1
 226 129 l 1,29,-1
 77 129 l 1,30,-1
 77 255 l 1,31,-1
 276 255 l 1,28,-1
EndSplineSet
Validated: 5
EndChar

StartChar: uniF118
Encoding: 61720 61720 27
Width: 384
GlyphClass: 2
Flags: W
LayerCount: 2
Fore
SplineSet
191 253 m 2,0,1
 192 253 192 253 197.5 251.5 c 128,-1,2
 203 250 203 250 206 249.5 c 128,-1,3
 209 249 209 249 215 247 c 128,-1,4
 221 245 221 245 223.5 243 c 128,-1,5
 226 241 226 241 231 237 c 128,-1,6
 236 233 236 233 235.5 229.5 c 128,-1,7
 235 226 235 226 235 220 c 1,8,9
 230 199 230 199 180 211 c 1,10,-1
 191 253 l 2,0,1
175 190 m 2,11,12
 176 190 176 190 184 188 c 128,-1,13
 192 186 192 186 197 184.5 c 128,-1,14
 202 183 202 183 209.5 179.5 c 128,-1,15
 217 176 217 176 221 172.5 c 128,-1,16
 225 169 225 169 227.5 163.5 c 128,-1,17
 230 158 230 158 228 152 c 0,18,19
 221 127 221 127 164 143 c 1,20,-1
 175 190 l 2,11,12
238 378 m 0,21,22
 315 358 315 358 356 290.5 c 128,-1,23
 397 223 397 223 378 146 c 0,24,25
 358 69 358 69 290.5 28 c 128,-1,26
 223 -13 223 -13 146 6 c 0,27,28
 69 26 69 26 28 93.5 c 128,-1,29
 -13 161 -13 161 6 238 c 0,30,31
 26 315 26 315 93.5 356 c 128,-1,32
 161 397 161 397 238 378 c 0,21,22
277 219 m 0,33,34
 282 252 282 252 234 268 c 1,35,-1
 243 302 l 1,36,-1
 222 308 l 1,37,-1
 214 274 l 1,38,39
 211 274 211 274 205.5 276 c 128,-1,40
 200 278 200 278 197 278 c 1,41,-1
 205 312 l 1,42,-1
 184 317 l 1,43,-1
 175 283 l 1,44,45
 170 284 170 284 162 286 c 2,46,-1
 133 293 l 1,47,-1
 127 271 l 1,48,-1
 143 267 l 2,49,50
 152 265 152 265 152 254 c 1,51,-1
 143 215 l 2,52,53
 144 215 144 215 144 214.5 c 128,-1,54
 144 214 144 214 145 214 c 1,55,56
 144 214 144 214 144 214.5 c 128,-1,57
 144 215 144 215 143 215 c 2,58,-1
 129 160 l 2,59,60
 127 154 127 154 119 155 c 2,61,-1
 104 158 l 1,62,-1
 93 134 l 1,63,-1
 121 128 l 2,64,65
 124 128 124 128 129 126.5 c 128,-1,66
 134 125 134 125 136 124 c 1,67,-1
 127 89 l 1,68,-1
 148 83 l 1,69,-1
 157 118 l 1,70,71
 161 116 161 116 174 114 c 1,72,-1
 165 79 l 1,73,-1
 186 74 l 1,74,-1
 195 109 l 1,75,76
 255 97 255 97 269 137 c 0,77,78
 281 172 281 172 250 188 c 1,79,80
 273 193 273 193 277 219 c 0,33,34
EndSplineSet
Validated: 37
EndChar

StartChar: uniF119
Encoding: 61721 61721 28
Width: 260
GlyphClass: 2
Flags: W
LayerCount: 2
Fore
SplineSet
213 205 m 1,0,1
 265 193 265 193 260 138 c 0,2,3
 256 102 256 102 231.5 87 c 128,-1,4
 207 72 207 72 162 70 c 1,5,-1
 162 23 l 1,6,-1
 162 23 l 1,7,8
 162 16 162 16 156 16 c 1,9,-1
 156 16 l 1,10,-1
 136 16 l 1,11,-1
 136 16 l 1,12,13
 130 16 130 16 130 23 c 2,14,-1
 130 69 l 1,15,16
 126 69 126 69 117.5 69.5 c 128,-1,17
 109 70 109 70 104 70 c 1,18,-1
 104 23 l 1,19,-1
 104 23 l 1,20,21
 104 16 104 16 98 16 c 1,22,-1
 98 16 l 1,23,-1
 78 16 l 1,24,-1
 78 16 l 1,25,26
 72 16 72 16 72 23 c 2,27,-1
 72 70 l 1,28,-1
 49 70 l 1,29,-1
 7 70 l 2,30,31
 1 70 1 70 1 77 c 1,32,-1
 1 77 l 1,33,-1
 6 104 l 1,34,-1
 7 104 l 1,35,36
 9 109 9 109 13 109 c 1,37,-1
 13 109 l 1,38,-1
 36 109 l 2,39,40
 46 109 46 109 49 120 c 1,41,-1
 49 205 l 1,42,-1
 49 266 l 1,43,44
 47 280 47 280 30 280 c 2,45,-1
 6 280 l 1,46,-1
 6 280 l 1,47,48
 0 280 0 280 0 286 c 2,49,-1
 0 308 l 2,50,51
 0 314 0 314 6 314 c 2,52,-1
 51 314 l 1,53,-1
 72 314 l 1,54,-1
 72 361 l 1,55,-1
 72 361 l 1,56,57
 72 368 72 368 78 368 c 1,58,-1
 78 368 l 1,59,-1
 78 368 l 1,60,-1
 98 368 l 1,61,-1
 98 368 l 1,62,63
 104 368 104 368 104 361 c 2,64,-1
 104 315 l 1,65,66
 108 315 108 315 117 315.5 c 128,-1,67
 126 316 126 316 130 316 c 1,68,-1
 130 361 l 1,69,-1
 130 361 l 1,70,71
 130 368 130 368 136 368 c 1,72,-1
 136 368 l 1,73,-1
 136 368 l 1,74,-1
 156 368 l 1,75,-1
 156 368 l 1,76,77
 162 368 162 368 162 361 c 2,78,-1
 162 314 l 1,79,80
 236 307 236 307 241 260 c 0,81,82
 245 222 245 222 213 205 c 1,0,1
105 277 m 1,83,-1
 105 213 l 1,84,85
 106 213 106 213 113 213 c 128,-1,86
 120 213 120 213 124.5 213 c 128,-1,87
 129 213 129 213 137 213.5 c 128,-1,88
 145 214 145 214 150 215 c 128,-1,89
 155 216 155 216 161.5 218.5 c 128,-1,90
 168 221 168 221 172 224.5 c 128,-1,91
 176 228 176 228 178.5 233 c 128,-1,92
 181 238 181 238 181 245 c 0,93,94
 181 253 181 253 178 259 c 128,-1,95
 175 265 175 265 169 268 c 128,-1,96
 163 271 163 271 157 273.5 c 128,-1,97
 151 276 151 276 142 276.5 c 128,-1,98
 133 277 133 277 128 277 c 128,-1,99
 123 277 123 277 114.5 277 c 128,-1,100
 106 277 106 277 105 277 c 1,83,-1
105 109 m 1,101,102
 107 109 107 109 114 109 c 128,-1,103
 121 109 121 109 125.5 109 c 128,-1,104
 130 109 130 109 138 109 c 128,-1,105
 146 109 146 109 152 110 c 128,-1,106
 158 111 158 111 165.5 112.5 c 128,-1,107
 173 114 173 114 177.5 117 c 128,-1,108
 182 120 182 120 186.5 123.5 c 128,-1,109
 191 127 191 127 193.5 132.5 c 128,-1,110
 196 138 196 138 196 144 c 0,111,112
 196 153 196 153 192.5 159.5 c 128,-1,113
 189 166 189 166 181.5 169.5 c 128,-1,114
 174 173 174 173 167.5 175.5 c 128,-1,115
 161 178 161 178 149.5 179 c 128,-1,116
 138 180 138 180 133 180 c 128,-1,117
 128 180 128 180 117 180 c 128,-1,118
 106 180 106 180 105 180 c 1,119,-1
 105 109 l 1,101,102
EndSplineSet
Validated: 37
EndChar

StartChar: uniF11A
Encoding: 61722 61722 29
Width: 342
GlyphClass: 2
Flags: W
LayerCount: 2
Fore
SplineSet
91 347 m 0,0,1
 91 383 91 383 127 383 c 0,2,3
 164 383 164 383 164 347 c 0,4,5
 164 310 164 310 127 310 c 0,6,7
 91 310 91 310 91 347 c 0,0,1
341 15 m 2,8,9
 342 14 342 14 342 12 c 0,10,11
 342 6 342 6 336 6 c 0,12,13
 332 6 332 6 331 9 c 1,14,-1
 331 9 l 1,15,-1
 331 10 l 1,16,-1
 224 194 l 1,17,-1
 221 194 l 2,18,19
 217 194 217 194 213 196 c 1,20,-1
 213 196 l 1,21,-1
 213 197 l 1,22,-1
 212 197 l 1,23,-1
 177 217 l 1,24,-1
 177 217 l 1,25,-1
 177 217 l 1,26,-1
 154 240 l 1,27,-1
 154 164 l 1,28,-1
 199 120 l 1,29,-1
 248 35 l 2,30,31
 252 30 252 30 252 22 c 0,32,33
 252 13 252 13 246 7 c 128,-1,34
 240 1 240 1 231 1 c 0,35,36
 218 1 218 1 212 12 c 2,37,-1
 165 93 l 1,38,-1
 128 130 l 1,39,-1
 87 58 l 1,40,-1
 38 9 l 1,41,42
 32 1 32 1 21 1 c 0,43,44
 12 1 12 1 6 7 c 128,-1,45
 0 13 0 13 0 22 c 0,46,47
 0 32 0 32 7 38 c 2,48,-1
 52 83 l 1,49,-1
 88 145 l 1,50,-1
 88 241 l 1,51,-1
 69 223 l 1,52,-1
 69 171 l 2,53,54
 69 164 69 164 65 160 c 128,-1,55
 61 156 61 156 54 156 c 0,56,57
 50 156 50 156 46 158 c 128,-1,58
 42 160 42 160 40 164 c 128,-1,59
 38 168 38 168 38 171 c 2,60,-1
 38 233 l 1,61,-1
 39 233 l 1,62,-1
 38 233 l 1,63,64
 38 234 38 234 40 236 c 2,65,-1
 94 291 l 2,66,67
 104 302 104 302 121 302 c 0,68,69
 139 302 139 302 149 289 c 1,70,-1
 196 242 l 1,71,-1
 227 224 l 1,72,73
 236 220 236 220 236 210 c 0,74,75
 236 204 236 204 234 201 c 1,76,-1
 341 15 l 2,8,9
EndSplineSet
Validated: 5
EndChar

StartChar: uniF11B
Encoding: 61723 61723 30
Width: 239
GlyphClass: 2
Flags: W
LayerCount: 2
Fore
SplineSet
231 120 m 1,0,1
 239 114 239 114 239 103 c 0,2,3
 239 97 239 97 233 89 c 1,4,-1
 232 88 l 1,5,-1
 130 -14 l 2,6,7
 123 -21 123 -21 114 -21 c 128,-1,8
 105 -21 105 -21 99 -15 c 128,-1,9
 93 -9 93 -9 93 0 c 1,10,-1
 93 0 l 1,11,-1
 93 1 l 1,12,-1
 93 125 l 1,13,-1
 38 70 l 2,14,15
 32 63 32 63 22 63 c 0,16,17
 13 63 13 63 6.5 69.5 c 128,-1,18
 0 76 0 76 0 85 c 128,-1,19
 0 94 0 94 6 100 c 1,20,-1
 6 100 l 1,21,-1
 93 186 l 1,22,-1
 93 197 l 1,23,-1
 7 283 l 2,24,25
 0 290 0 290 0 298 c 0,26,27
 0 307 0 307 6.5 313.5 c 128,-1,28
 13 320 13 320 22 320 c 128,-1,29
 31 320 31 320 38 313 c 2,30,-1
 93 258 l 1,31,-1
 93 377 l 1,32,33
 92 379 92 379 92 383 c 0,34,35
 92 392 92 392 98 398.5 c 128,-1,36
 104 405 104 405 113 405 c 0,37,38
 124 405 124 405 130 397 c 1,39,-1
 231 296 l 1,40,41
 239 290 239 290 239 280 c 0,42,43
 239 274 239 274 233 266 c 1,44,-1
 233 266 l 1,45,46
 232 266 232 266 232 265 c 128,-1,47
 232 264 232 264 231 263 c 2,48,-1
 159 192 l 1,49,-1
 231 120 l 1,0,1
186 103 m 1,50,-1
 136 154 l 1,51,-1
 136 53 l 1,52,-1
 186 103 l 1,50,-1
136 230 m 1,53,-1
 186 280 l 1,54,-1
 136 330 l 1,55,-1
 136 230 l 1,53,-1
EndSplineSet
Validated: 5
EndChar

StartChar: uniF11C
Encoding: 61724 61724 31
Width: 242
GlyphClass: 2
Flags: W
LayerCount: 2
Fore
SplineSet
186 197 m 1,0,1
 210 193 210 193 226 173 c 128,-1,2
 242 153 242 153 242 126 c 0,3,4
 242 92 242 92 220 69.5 c 128,-1,5
 198 47 198 47 157 47 c 2,6,-1
 13 47 l 2,7,8
 0 47 0 47 0 60 c 2,9,-1
 0 324 l 2,10,11
 0 337 0 337 13 337 c 2,12,-1
 153 337 l 2,13,14
 192 337 192 337 214 315.5 c 128,-1,15
 236 294 236 294 236 263 c 0,16,17
 236 237 236 237 221.5 219.5 c 128,-1,18
 207 202 207 202 186 197 c 1,0,1
62 283 m 1,19,-1
 62 222 l 1,20,-1
 139 222 l 2,21,22
 173 222 173 222 173 252 c 0,23,24
 173 266 173 266 164 274.5 c 128,-1,25
 155 283 155 283 139 283 c 2,26,-1
 62 283 l 1,19,-1
142 101 m 2,27,28
 179 101 179 101 179 134 c 0,29,30
 179 148 179 148 169 157.5 c 128,-1,31
 159 167 159 167 142 167 c 2,32,-1
 62 167 l 1,33,-1
 62 101 l 1,34,-1
 142 101 l 2,27,28
EndSplineSet
Validated: 1
EndChar

StartChar: uniF11D
Encoding: 61725 61725 32
Width: 328
GlyphClass: 2
Flags: W
LayerCount: 2
Fore
SplineSet
328 334 m 2,0,-1
 328 7 l 2,1,2
 328 -1 328 -1 320 -1 c 1,3,-1
 320 -1 l 1,4,-1
 8 -1 l 2,5,6
 0 -1 0 -1 0 7 c 1,7,-1
 0 7 l 1,8,-1
 0 8 l 1,9,-1
 0 73 l 1,10,-1
 0 376 l 1,11,-1
 0 377 l 2,12,13
 0 385 0 385 8 385 c 2,14,-1
 161 385 l 1,15,-1
 161 319 l 1,16,-1
 161 235 l 1,17,-1
 161 206 l 2,18,19
 161 202 161 202 165 202 c 0,20,21
 167 202 167 202 168 203 c 2,22,-1
 197 233 l 1,23,-1
 198 233 l 1,24,25
 199 234 199 234 200 234 c 0,26,27
 202 234 202 234 203 233 c 2,28,-1
 232 204 l 2,29,30
 234 202 234 202 235 202 c 0,31,32
 239 202 239 202 239 206 c 2,33,-1
 239 235 l 1,34,-1
 239 319 l 1,35,-1
 239 385 l 1,36,-1
 268 385 l 1,37,-1
 269 385 l 2,38,39
 277 385 277 385 277 377 c 2,40,-1
 277 58 l 2,41,42
 277 50 277 50 269 50 c 2,43,-1
 268 50 l 1,44,-1
 26 50 l 1,45,-1
 26 31 l 1,46,47
 28 24 28 24 34 24 c 2,48,-1
 295 24 l 2,49,50
 303 24 303 24 303 33 c 2,51,-1
 303 342 l 1,52,-1
 320 342 l 2,53,54
 328 342 328 342 328 334 c 2,0,-1
EndSplineSet
Validated: 5
EndChar

StartChar: uniF11E
Encoding: 61726 61726 33
Width: 328
GlyphClass: 2
Flags: W
LayerCount: 2
Fore
SplineSet
328 334 m 2,0,-1
 328 7 l 2,1,2
 328 -1 328 -1 320 -1 c 1,3,-1
 320 -1 l 1,4,-1
 8 -1 l 2,5,6
 0 -1 0 -1 0 7 c 1,7,-1
 0 7 l 1,8,-1
 0 8 l 1,9,-1
 0 73 l 1,10,-1
 0 376 l 1,11,-1
 0 377 l 2,12,13
 0 385 0 385 8 385 c 2,14,-1
 268 385 l 1,15,-1
 269 385 l 2,16,17
 277 385 277 385 277 377 c 2,18,-1
 277 58 l 2,19,20
 277 50 277 50 269 50 c 2,21,-1
 268 50 l 1,22,-1
 26 50 l 1,23,-1
 26 31 l 1,24,25
 28 24 28 24 34 24 c 2,26,-1
 295 24 l 2,27,28
 303 24 303 24 303 33 c 2,29,-1
 303 342 l 1,30,-1
 320 342 l 2,31,32
 328 342 328 342 328 334 c 2,0,-1
25 326 m 2,33,-1
 25 262 l 2,34,35
 25 254 25 254 34 254 c 2,36,-1
 243 254 l 2,37,38
 251 254 251 254 251 262 c 2,39,-1
 251 326 l 2,40,41
 251 334 251 334 243 334 c 2,42,-1
 34 334 l 2,43,44
 25 334 25 334 25 326 c 2,33,-1
EndSplineSet
Validated: 5
EndChar

StartChar: uniF11F
Encoding: 61727 61727 34
Width: 218
GlyphClass: 2
Flags: W
LayerCount: 2
Fore
SplineSet
203 381 m 2,0,1
 218 381 218 381 218 365 c 2,2,-1
 218 331 l 1,3,-1
 218 96 l 1,4,-1
 218 14 l 2,5,6
 218 3 218 3 207 3 c 0,7,8
 202 3 202 3 198 7 c 2,9,-1
 117 89 l 2,10,11
 114 92 114 92 109 92 c 0,12,13
 105 92 105 92 102 89 c 2,14,-1
 19 6 l 2,15,16
 16 3 16 3 11 3 c 0,17,18
 0 3 0 3 0 14 c 2,19,-1
 0 96 l 1,20,-1
 0 331 l 1,21,-1
 0 365 l 2,22,23
 0 381 0 381 15 381 c 2,24,-1
 203 381 l 2,0,1
EndSplineSet
Validated: 1
EndChar

StartChar: uniF120
Encoding: 61728 61728 35
Width: 265
GlyphClass: 2
Flags: W
LayerCount: 2
Fore
SplineSet
0 325 m 0,0,1
 0 361 0 361 36 361 c 0,2,3
 71 361 71 361 71 325 c 0,4,5
 71 290 71 290 36 290 c 0,6,7
 0 290 0 290 0 325 c 0,0,1
194 325 m 0,8,9
 194 361 194 361 229 361 c 0,10,11
 265 361 265 361 265 325 c 0,12,13
 265 290 265 290 229 290 c 0,14,15
 194 290 194 290 194 325 c 0,8,9
0 192 m 128,-1,17
 0 228 0 228 36 228 c 0,18,19
 71 228 71 228 71 192 c 128,-1,20
 71 156 71 156 36 156 c 0,21,16
 0 156 0 156 0 192 c 128,-1,17
194 192 m 128,-1,23
 194 228 194 228 229 228 c 0,24,25
 265 228 265 228 265 192 c 128,-1,26
 265 156 265 156 229 156 c 0,27,22
 194 156 194 156 194 192 c 128,-1,23
0 59 m 128,-1,29
 0 95 0 95 36 95 c 0,30,31
 71 95 71 95 71 59 c 128,-1,32
 71 23 71 23 36 23 c 0,33,28
 0 23 0 23 0 59 c 128,-1,29
194 59 m 128,-1,35
 194 95 194 95 229 95 c 0,36,37
 265 95 265 95 265 59 c 128,-1,38
 265 23 265 23 229 23 c 0,39,34
 194 23 194 23 194 59 c 128,-1,35
EndSplineSet
Validated: 1
EndChar

StartChar: uniF121
Encoding: 61729 61729 36
Width: 395
GlyphClass: 2
Flags: W
LayerCount: 2
Fore
SplineSet
395 192 m 128,-1,1
 395 185 395 185 389 181 c 2,2,-1
 341 153 l 1,3,-1
 368 107 l 2,4,5
 371 102 371 102 367 94 c 0,6,7
 364 88 364 88 357 88 c 2,8,-1
 303 88 l 1,9,-1
 303 33 l 1,10,-1
 302 33 l 1,11,12
 302 26 302 26 296 23 c 0,13,14
 288 19 288 19 283 22 c 2,15,-1
 236 49 l 1,16,-1
 209 2 l 2,17,18
 205 -4 205 -4 198 -4 c 128,-1,19
 191 -4 191 -4 187 2 c 2,20,-1
 160 48 l 1,21,-1
 111 20 l 2,22,23
 106 18 106 18 99 21 c 128,-1,24
 92 24 92 24 92 31 c 2,25,-1
 92 86 l 1,26,-1
 37 86 l 2,27,28
 30 86 30 86 27 93 c 128,-1,29
 24 100 24 100 26 105 c 2,30,-1
 53 153 l 1,31,-1
 6 181 l 2,32,33
 0 185 0 185 0 192 c 128,-1,34
 0 199 0 199 6 203 c 2,35,-1
 54 231 l 1,36,-1
 27 277 l 2,37,38
 24 282 24 282 28 290 c 0,39,40
 31 296 31 296 38 296 c 2,41,-1
 92 296 l 1,42,-1
 92 351 l 2,43,44
 92 358 92 358 99 361 c 128,-1,45
 106 364 106 364 111 362 c 2,46,-1
 159 335 l 1,47,-1
 186 382 l 2,48,49
 190 388 190 388 197 388 c 128,-1,50
 204 388 204 388 208 382 c 2,51,-1
 235 336 l 1,52,-1
 284 364 l 2,53,54
 289 366 289 366 296 363 c 128,-1,55
 303 360 303 360 303 353 c 2,56,-1
 303 298 l 1,57,-1
 358 298 l 2,58,59
 364 298 364 298 368 291 c 128,-1,60
 372 284 372 284 369 279 c 1,61,-1
 369 278 l 1,62,-1
 342 231 l 1,63,-1
 389 203 l 2,64,0
 395 199 395 199 395 192 c 128,-1,1
165 134 m 1,65,-1
 177 141 l 1,66,-1
 143 200 l 1,67,-1
 131 193 l 1,68,-1
 152 156 l 1,69,-1
 103 177 l 1,70,-1
 90 169 l 1,71,-1
 124 110 l 1,72,-1
 137 118 l 1,73,-1
 115 156 l 1,74,-1
 165 134 l 1,65,-1
189 148 m 1,75,-1
 231 172 l 1,76,-1
 224 183 l 1,77,-1
 195 166 l 1,78,-1
 187 179 l 1,79,-1
 216 196 l 1,80,-1
 210 207 l 1,81,-1
 181 190 l 1,82,-1
 174 203 l 1,83,-1
 203 220 l 1,84,-1
 197 231 l 1,85,-1
 155 207 l 1,86,-1
 189 148 l 1,75,-1
286 204 m 1,87,-1
 299 211 l 1,88,-1
 282 280 l 1,89,-1
 268 272 l 1,90,-1
 282 223 l 1,91,-1
 246 259 l 1,92,-1
 237 254 l 1,93,-1
 250 205 l 1,94,-1
 215 241 l 1,95,-1
 201 233 l 1,96,-1
 252 184 l 1,97,-1
 265 192 l 1,98,-1
 252 238 l 1,99,-1
 286 204 l 1,87,-1
EndSplineSet
Validated: 1
EndChar

StartChar: uniF122
Encoding: 61730 61730 37
Width: 395
GlyphClass: 2
Flags: W
LayerCount: 2
Fore
SplineSet
167 163 m 1,0,-1
 162 194 l 1,1,-1
 186 174 l 1,2,-1
 167 163 l 1,0,-1
395 192 m 128,-1,4
 395 185 395 185 389 181 c 2,5,-1
 341 153 l 1,6,-1
 368 107 l 2,7,8
 371 102 371 102 367 94 c 0,9,10
 364 88 364 88 357 88 c 2,11,-1
 303 88 l 1,12,-1
 303 33 l 1,13,-1
 302 33 l 1,14,15
 302 26 302 26 296 23 c 0,16,17
 288 19 288 19 283 22 c 2,18,-1
 236 49 l 1,19,-1
 209 2 l 2,20,21
 205 -4 205 -4 198 -4 c 128,-1,22
 191 -4 191 -4 187 2 c 2,23,-1
 160 48 l 1,24,-1
 111 20 l 2,25,26
 106 18 106 18 99 21 c 128,-1,27
 92 24 92 24 92 31 c 2,28,-1
 92 86 l 1,29,-1
 37 86 l 2,30,31
 30 86 30 86 27 93 c 128,-1,32
 24 100 24 100 26 105 c 2,33,-1
 53 153 l 1,34,-1
 6 181 l 2,35,36
 0 185 0 185 0 192 c 128,-1,37
 0 199 0 199 6 203 c 2,38,-1
 54 231 l 1,39,-1
 27 277 l 2,40,41
 24 282 24 282 28 290 c 0,42,43
 31 296 31 296 38 296 c 2,44,-1
 92 296 l 1,45,-1
 92 351 l 2,46,47
 92 358 92 358 99 361 c 128,-1,48
 106 364 106 364 111 362 c 2,49,-1
 159 335 l 1,50,-1
 186 382 l 2,51,52
 190 388 190 388 197 388 c 128,-1,53
 204 388 204 388 208 382 c 2,54,-1
 235 336 l 1,55,-1
 284 364 l 2,56,57
 289 366 289 366 296 363 c 128,-1,58
 303 360 303 360 303 353 c 2,59,-1
 303 298 l 1,60,-1
 358 298 l 2,61,62
 364 298 364 298 368 291 c 128,-1,63
 372 284 372 284 369 279 c 1,64,-1
 369 278 l 1,65,-1
 342 231 l 1,66,-1
 389 203 l 2,67,3
 395 199 395 199 395 192 c 128,-1,4
134 114 m 0,68,69
 157 127 157 127 146 147 c 0,70,71
 138 160 138 160 119 154.5 c 128,-1,72
 100 149 100 149 98 152 c 0,73,74
 95 158 95 158 103 163 c 0,75,76
 114 169 114 169 124 166 c 1,77,-1
 125 180 l 1,78,79
 112 183 112 183 98 175 c 0,80,81
 75 162 75 162 86 144 c 0,82,83
 93 131 93 131 112.5 136.5 c 128,-1,84
 132 142 132 142 134 138 c 0,85,86
 138 132 138 132 128 126 c 0,87,88
 117 119 117 119 104 123 c 1,89,-1
 103 109 l 1,90,91
 120 105 120 105 134 114 c 0,68,69
205 157 m 1,92,-1
 219 165 l 1,93,-1
 162 211 l 1,94,-1
 147 202 l 1,95,-1
 158 130 l 1,96,-1
 172 138 l 1,97,-1
 170 150 l 1,98,-1
 195 165 l 1,99,-1
 205 157 l 1,92,-1
224 168 m 1,100,-1
 262 190 l 1,101,-1
 255 201 l 1,102,-1
 230 186 l 1,103,-1
 203 234 l 1,104,-1
 190 227 l 1,105,-1
 224 168 l 1,100,-1
270 195 m 1,106,-1
 312 219 l 1,107,-1
 306 230 l 1,108,-1
 277 213 l 1,109,-1
 269 226 l 1,110,-1
 297 243 l 1,111,-1
 291 254 l 1,112,-1
 262 237 l 1,113,-1
 255 250 l 1,114,-1
 284 267 l 1,115,-1
 278 278 l 1,116,-1
 236 254 l 1,117,-1
 270 195 l 1,106,-1
EndSplineSet
Validated: 33
EndChar

StartChar: uniF123
Encoding: 61731 61731 38
Width: 395
GlyphClass: 2
Flags: W
LayerCount: 2
Fore
SplineSet
395 192 m 128,-1,1
 395 185 395 185 389 181 c 2,2,-1
 341 153 l 1,3,-1
 368 107 l 2,4,5
 371 102 371 102 367 94 c 0,6,7
 364 88 364 88 357 88 c 2,8,-1
 303 88 l 1,9,-1
 303 33 l 1,10,-1
 302 33 l 1,11,12
 302 26 302 26 296 23 c 0,13,14
 288 19 288 19 283 22 c 2,15,-1
 236 49 l 1,16,-1
 209 2 l 2,17,18
 205 -4 205 -4 198 -4 c 128,-1,19
 191 -4 191 -4 187 2 c 2,20,-1
 160 48 l 1,21,-1
 111 20 l 2,22,23
 106 18 106 18 99 21 c 128,-1,24
 92 24 92 24 92 31 c 2,25,-1
 92 86 l 1,26,-1
 37 86 l 2,27,28
 30 86 30 86 27 93 c 128,-1,29
 24 100 24 100 26 105 c 2,30,-1
 53 153 l 1,31,-1
 6 181 l 2,32,33
 0 185 0 185 0 192 c 128,-1,34
 0 199 0 199 6 203 c 2,35,-1
 54 231 l 1,36,-1
 27 277 l 2,37,38
 24 282 24 282 28 290 c 0,39,40
 31 296 31 296 38 296 c 2,41,-1
 92 296 l 1,42,-1
 92 351 l 2,43,44
 92 358 92 358 99 361 c 128,-1,45
 106 364 106 364 111 362 c 2,46,-1
 159 335 l 1,47,-1
 186 382 l 2,48,49
 190 388 190 388 197 388 c 128,-1,50
 204 388 204 388 208 382 c 2,51,-1
 235 336 l 1,52,-1
 284 364 l 2,53,54
 289 366 289 366 296 363 c 128,-1,55
 303 360 303 360 303 353 c 2,56,-1
 303 298 l 1,57,-1
 358 298 l 2,58,59
 364 298 364 298 368 291 c 128,-1,60
 372 284 372 284 369 279 c 1,61,-1
 369 278 l 1,62,-1
 342 231 l 1,63,-1
 389 203 l 2,64,0
 395 199 395 199 395 192 c 128,-1,1
EndSplineSet
Validated: 1
EndChar

StartChar: uniF124
Encoding: 61732 61732 39
Width: 326
GlyphClass: 2
Flags: W
LayerCount: 2
Fore
SplineSet
320 246 m 2,0,1
 326 246 326 246 326 239 c 2,2,-1
 326 14 l 2,3,4
 326 8 326 8 320 8 c 2,5,-1
 6 8 l 2,6,7
 0 8 0 8 0 14 c 2,8,-1
 0 239 l 2,9,10
 0 246 0 246 6 246 c 2,11,-1
 320 246 l 2,0,1
109 55 m 0,12,13
 134 55 134 55 149.5 67 c 128,-1,14
 165 79 165 79 165 99 c 0,15,16
 165 120 165 120 140 130 c 1,17,18
 161 140 161 140 161 161 c 0,19,20
 161 174 161 174 149 182.5 c 128,-1,21
 137 191 137 191 117 191 c 0,22,23
 94 191 94 191 80 184 c 0,24,25
 78 182 78 182 78 181 c 2,26,-1
 81 159 l 2,27,28
 81 157 81 157 83 157 c 2,29,-1
 86 157 l 1,30,31
 98 163 98 163 110 163 c 0,32,33
 125 163 125 163 125 154 c 0,34,35
 125 143 125 143 101 141 c 0,36,37
 98 141 98 141 98 138 c 2,38,-1
 98 116 l 2,39,40
 98 113 98 113 101 113 c 0,41,42
 131 112 131 112 131 97 c 0,43,44
 131 84 131 84 111 84 c 0,45,46
 94 84 94 84 82 89 c 1,47,-1
 79 89 l 1,48,49
 78 88 78 88 78 87 c 2,50,-1
 75 65 l 2,51,52
 75 63 75 63 77 61 c 1,53,54
 91 55 91 55 109 55 c 0,12,13
245 61 m 2,55,-1
 245 186 l 2,56,57
 245 189 245 189 242 189 c 2,58,-1
 229 189 l 1,59,-1
 227 189 l 1,60,-1
 189 170 l 2,61,62
 187 168 187 168 187 167 c 2,63,-1
 190 145 l 2,64,65
 190 142 190 142 192 142 c 2,66,-1
 195 142 l 1,67,-1
 212 149 l 1,68,-1
 212 61 l 2,69,70
 212 57 212 57 215 57 c 2,71,-1
 242 57 l 2,72,73
 245 57 245 57 245 61 c 2,55,-1
320 347 m 2,74,75
 326 347 326 347 326 341 c 2,76,-1
 326 275 l 2,77,78
 326 268 326 268 320 268 c 2,79,-1
 6 268 l 2,80,81
 0 268 0 268 0 275 c 2,82,-1
 0 341 l 2,83,84
 0 347 0 347 6 347 c 2,85,-1
 40 347 l 1,86,-1
 40 331 l 2,87,88
 40 297 40 297 76 297 c 128,-1,89
 112 297 112 297 112 331 c 2,90,-1
 112 347 l 1,91,-1
 214 347 l 1,92,-1
 214 331 l 2,93,94
 214 297 214 297 250 297 c 128,-1,95
 286 297 286 297 286 331 c 2,96,-1
 286 347 l 1,97,-1
 320 347 l 2,74,75
76 318 m 128,-1,99
 61 318 61 318 61 331 c 2,100,-1
 61 347 l 1,101,-1
 61 363 l 2,102,103
 61 376 61 376 76 376 c 128,-1,104
 91 376 91 376 91 363 c 2,105,-1
 91 347 l 1,106,-1
 91 331 l 2,107,98
 91 318 91 318 76 318 c 128,-1,99
250 318 m 128,-1,109
 235 318 235 318 235 331 c 2,110,-1
 235 347 l 1,111,-1
 235 363 l 2,112,113
 235 376 235 376 250 376 c 128,-1,114
 265 376 265 376 265 363 c 2,115,-1
 265 347 l 1,116,-1
 265 331 l 2,117,108
 265 318 265 318 250 318 c 128,-1,109
EndSplineSet
Validated: 1
EndChar

StartChar: uniF125
Encoding: 61733 61733 40
Width: 415
GlyphClass: 2
Flags: W
LayerCount: 2
Fore
SplineSet
159 175 m 0,0,1
 159 224 159 224 208 224 c 0,2,3
 256 224 256 224 256 175 c 0,4,5
 256 127 256 127 208 127 c 0,6,7
 159 127 159 127 159 175 c 0,0,1
396 324 m 2,8,9
 404 324 404 324 409 319 c 0,10,11
 415 313 415 313 415 305 c 2,12,-1
 415 46 l 2,13,14
 415 38 415 38 409 32 c 0,15,16
 404 27 404 27 396 27 c 1,17,-1
 396 26 l 1,18,-1
 19 26 l 1,19,-1
 19 27 l 1,20,21
 11 27 11 27 6 32 c 0,22,23
 0 38 0 38 0 46 c 2,24,-1
 0 305 l 2,25,26
 0 313 0 313 6 319 c 0,27,28
 11 324 11 324 19 324 c 2,29,-1
 104 324 l 1,30,-1
 104 339 l 2,31,32
 104 346 104 346 110 352 c 128,-1,33
 116 358 116 358 123 358 c 2,34,-1
 291 358 l 2,35,36
 299 358 299 358 305 352 c 0,37,38
 310 347 310 347 310 339 c 2,39,-1
 310 324 l 1,40,-1
 396 324 l 2,8,9
209 77 m 0,41,42
 236 77 236 77 258 90 c 0,43,44
 280 104 280 104 294 126 c 0,45,46
 307 148 307 148 307 175 c 0,47,48
 307 216 307 216 278 245 c 128,-1,49
 249 274 249 274 209 274 c 0,50,51
 168 274 168 274 139 245 c 128,-1,52
 110 216 110 216 110 175 c 0,53,54
 110 135 110 135 139 106 c 128,-1,55
 168 77 168 77 209 77 c 0,41,42
389 248 m 1,56,-1
 389 299 l 1,57,-1
 314 299 l 1,58,-1
 314 248 l 1,59,-1
 389 248 l 1,56,-1
EndSplineSet
Validated: 1
EndChar

StartChar: uniF126
Encoding: 61734 61734 41
Width: 397
GlyphClass: 2
Flags: W
LayerCount: 2
Fore
SplineSet
393 293 m 2,0,1
 402 284 402 284 393 275 c 2,2,-1
 143 25 l 2,3,4
 139 21 139 21 134 21 c 1,5,-1
 134 22 l 1,6,-1
 133 21 l 1,7,8
 129 21 129 21 125 25 c 2,9,-1
 4 146 l 2,10,11
 0 150 0 150 0 155 c 128,-1,12
 0 160 0 160 4 164 c 2,13,-1
 70 230 l 2,14,15
 78 238 78 238 87 230 c 2,16,-1
 134 183 l 1,17,-1
 310 359 l 2,18,19
 314 363 314 363 318 363 c 0,20,21
 323 363 323 363 327 359 c 2,22,-1
 393 293 l 2,0,1
EndSplineSet
Validated: 33
EndChar

StartChar: uniF127
Encoding: 61735 61735 42
Width: 381
GlyphClass: 2
Flags: W
LayerCount: 2
Fore
SplineSet
379 323 m 2,0,1
 384 318 384 318 379 312 c 2,2,-1
 170 103 l 2,3,4
 167 100 167 100 164 100 c 1,5,-1
 164 100 l 1,6,7
 161 100 161 100 158 103 c 2,8,-1
 77 183 l 2,9,10
 74 186 74 186 74 189 c 128,-1,11
 74 192 74 192 77 195 c 2,12,-1
 121 239 l 2,13,14
 127 245 127 245 133 239 c 2,15,-1
 164 208 l 1,16,-1
 323 368 l 2,17,18
 325 370 325 370 329 370 c 128,-1,19
 333 370 333 370 335 368 c 2,20,-1
 379 323 l 2,0,1
277 173 m 1,21,-1
 328 225 l 1,22,-1
 328 40 l 2,23,24
 328 30 328 30 320 22 c 128,-1,25
 312 14 312 14 302 14 c 2,26,-1
 301 14 l 1,27,-1
 301 14 l 1,28,-1
 26 14 l 1,29,-1
 26 14 l 1,30,-1
 26 14 l 1,31,32
 16 14 16 14 8 22 c 128,-1,33
 0 30 0 30 0 40 c 2,34,-1
 0 316 l 2,35,36
 0 326 0 326 8 334 c 128,-1,37
 16 342 16 342 26 342 c 2,38,-1
 27 342 l 1,39,-1
 261 342 l 1,40,-1
 210 291 l 1,41,-1
 51 291 l 1,42,-1
 51 65 l 1,43,-1
 277 65 l 1,44,-1
 277 173 l 1,21,-1
EndSplineSet
Validated: 5
EndChar

StartChar: uniF128
Encoding: 61736 61736 43
Width: 315
GlyphClass: 2
Flags: W
LayerCount: 2
Fore
SplineSet
315 360 m 1,0,-1
 315 -2 l 1,1,-1
 315 -2 l 1,2,3
 315 -13 315 -13 307 -21 c 128,-1,4
 299 -29 299 -29 288 -29 c 2,5,-1
 287 -29 l 1,6,-1
 28 -29 l 1,7,-1
 27 -29 l 2,8,9
 16 -29 16 -29 8 -21 c 128,-1,10
 0 -13 0 -13 0 -2 c 1,11,-1
 0 -2 l 1,12,-1
 0 360 l 1,13,-1
 0 360 l 1,14,15
 0 371 0 371 8 379 c 128,-1,16
 16 387 16 387 27 387 c 2,17,-1
 102 387 l 1,18,-1
 102 404 l 1,19,-1
 102 405 l 2,20,21
 102 413 102 413 110 413 c 1,22,-1
 110 413 l 1,23,-1
 205 413 l 2,24,25
 213 413 213 413 213 405 c 1,26,-1
 213 405 l 1,27,-1
 213 387 l 1,28,-1
 288 387 l 2,29,30
 299 387 299 387 307 379 c 128,-1,31
 315 371 315 371 315 360 c 1,32,-1
 315 360 l 1,0,-1
264 22 m 1,33,-1
 264 336 l 1,34,-1
 239 336 l 1,35,-1
 239 320 l 2,36,37
 239 311 239 311 229 311 c 2,38,-1
 86 311 l 1,39,-1
 86 311 l 1,40,41
 76 311 76 311 76 320 c 2,42,-1
 76 321 l 1,43,-1
 76 336 l 1,44,-1
 51 336 l 1,45,-1
 51 22 l 1,46,-1
 264 22 l 1,33,-1
102 237 m 1,47,-1
 102 237 l 1,48,-1
 102 224 l 1,49,-1
 102 224 l 1,50,51
 102 218 102 218 96 218 c 2,52,-1
 95 218 l 1,53,-1
 83 218 l 2,54,55
 76 218 76 218 76 224 c 1,56,-1
 76 224 l 1,57,-1
 76 237 l 2,58,59
 76 244 76 244 83 244 c 2,60,-1
 95 244 l 1,61,-1
 95 243 l 1,62,-1
 96 244 l 1,63,64
 102 244 102 244 102 237 c 1,47,-1
239 237 m 1,65,-1
 239 237 l 1,66,-1
 239 224 l 1,67,-1
 239 224 l 1,68,69
 239 218 239 218 232 218 c 2,70,-1
 134 218 l 2,71,72
 127 218 127 218 127 224 c 1,73,-1
 127 224 l 1,74,-1
 127 237 l 2,75,76
 127 244 127 244 134 244 c 2,77,-1
 232 244 l 2,78,79
 239 244 239 244 239 237 c 1,65,-1
102 186 m 1,80,-1
 102 186 l 1,81,-1
 102 173 l 1,82,-1
 102 173 l 1,83,84
 102 167 102 167 96 167 c 2,85,-1
 95 167 l 1,86,-1
 83 167 l 2,87,88
 76 167 76 167 76 173 c 1,89,-1
 76 173 l 1,90,-1
 76 186 l 2,91,92
 76 193 76 193 83 193 c 2,93,-1
 95 193 l 1,94,-1
 95 192 l 1,95,-1
 96 193 l 1,96,97
 102 193 102 193 102 186 c 1,80,-1
239 186 m 1,98,-1
 239 186 l 1,99,-1
 239 173 l 1,100,-1
 239 173 l 1,101,102
 239 167 239 167 232 167 c 2,103,-1
 134 167 l 2,104,105
 127 167 127 167 127 173 c 1,106,-1
 127 173 l 1,107,-1
 127 186 l 2,108,109
 127 193 127 193 134 193 c 2,110,-1
 232 193 l 2,111,112
 239 193 239 193 239 186 c 1,98,-1
102 135 m 1,113,-1
 102 135 l 1,114,-1
 102 122 l 1,115,-1
 102 122 l 1,116,117
 102 116 102 116 96 116 c 2,118,-1
 95 116 l 1,119,-1
 83 116 l 2,120,121
 76 116 76 116 76 122 c 1,122,-1
 76 122 l 1,123,-1
 76 135 l 2,124,125
 76 141 76 141 83 141 c 2,126,-1
 95 141 l 1,127,-1
 96 141 l 2,128,129
 102 141 102 141 102 135 c 1,113,-1
239 135 m 1,130,-1
 239 135 l 1,131,-1
 239 122 l 1,132,-1
 239 122 l 1,133,134
 239 116 239 116 232 116 c 2,135,-1
 134 116 l 2,136,137
 127 116 127 116 127 122 c 1,138,-1
 127 122 l 1,139,-1
 127 135 l 2,140,141
 127 141 127 141 134 141 c 2,142,-1
 232 141 l 2,143,144
 239 141 239 141 239 135 c 1,130,-1
EndSplineSet
Validated: 5
EndChar

StartChar: uniF129
Encoding: 61737 61737 44
Width: 392
GlyphClass: 2
Flags: W
LayerCount: 2
Fore
SplineSet
391 228 m 2,0,1
 392 226 392 226 392 223 c 128,-1,2
 392 220 392 220 391 219 c 2,3,-1
 275 103 l 1,4,-1
 275 103 l 1,5,-1
 216 87 l 1,6,7
 213 85 213 85 209 89 c 0,8,9
 206 92 206 92 208 95 c 1,10,-1
 224 154 l 1,11,-1
 224 154 l 1,12,-1
 339 270 l 2,13,14
 344 274 344 274 348 270 c 2,15,-1
 391 228 l 2,0,1
227 107 m 1,16,-1
 262 116 l 1,17,-1
 237 142 l 1,18,-1
 227 107 l 1,16,-1
309 73 m 2,19,20
 315 73 315 73 315 67 c 1,21,-1
 315 67 l 1,22,-1
 315 -2 l 1,23,-1
 315 -2 l 1,24,25
 315 -13 315 -13 307 -21 c 128,-1,26
 299 -29 299 -29 288 -29 c 2,27,-1
 287 -29 l 1,28,-1
 28 -29 l 1,29,-1
 27 -29 l 2,30,31
 16 -29 16 -29 8 -21 c 128,-1,32
 0 -13 0 -13 0 -2 c 1,33,-1
 0 -2 l 1,34,-1
 0 360 l 1,35,-1
 0 360 l 1,36,37
 0 371 0 371 8 379 c 128,-1,38
 16 387 16 387 27 387 c 2,39,-1
 102 387 l 1,40,-1
 102 404 l 1,41,-1
 102 405 l 2,42,43
 102 413 102 413 110 413 c 1,44,-1
 110 413 l 1,45,-1
 205 413 l 2,46,47
 213 413 213 413 213 405 c 1,48,-1
 213 405 l 1,49,-1
 213 387 l 1,50,-1
 288 387 l 2,51,52
 299 387 299 387 307 379 c 128,-1,53
 315 371 315 371 315 360 c 1,54,-1
 315 360 l 1,55,-1
 315 292 l 2,56,57
 315 285 315 285 309 285 c 2,58,-1
 270 285 l 2,59,60
 264 285 264 285 264 292 c 2,61,-1
 264 336 l 1,62,-1
 239 336 l 1,63,-1
 239 320 l 2,64,65
 239 311 239 311 229 311 c 2,66,-1
 86 311 l 1,67,-1
 86 311 l 1,68,69
 76 311 76 311 76 320 c 2,70,-1
 76 321 l 1,71,-1
 76 336 l 1,72,-1
 51 336 l 1,73,-1
 51 22 l 1,74,-1
 264 22 l 1,75,-1
 264 67 l 2,76,77
 264 73 264 73 270 73 c 1,78,-1
 270 73 l 1,79,-1
 309 73 l 2,19,20
EndSplineSet
Validated: 5
EndChar

StartChar: uniF12A
Encoding: 61738 61738 45
Width: 315
GlyphClass: 2
Flags: W
LayerCount: 2
Fore
SplineSet
315 360 m 1,0,-1
 315 -2 l 1,1,-1
 315 -2 l 1,2,3
 315 -13 315 -13 307 -21 c 128,-1,4
 299 -29 299 -29 288 -29 c 2,5,-1
 287 -29 l 1,6,-1
 28 -29 l 1,7,-1
 27 -29 l 2,8,9
 16 -29 16 -29 8 -21 c 128,-1,10
 0 -13 0 -13 0 -2 c 1,11,-1
 0 -2 l 1,12,-1
 0 360 l 1,13,-1
 0 360 l 1,14,15
 0 371 0 371 8 379 c 128,-1,16
 16 387 16 387 27 387 c 2,17,-1
 102 387 l 1,18,-1
 102 404 l 1,19,-1
 102 405 l 2,20,21
 102 413 102 413 110 413 c 1,22,-1
 110 413 l 1,23,-1
 205 413 l 2,24,25
 213 413 213 413 213 405 c 1,26,-1
 213 405 l 1,27,-1
 213 387 l 1,28,-1
 288 387 l 2,29,30
 299 387 299 387 307 379 c 128,-1,31
 315 371 315 371 315 360 c 1,32,-1
 315 360 l 1,0,-1
264 22 m 1,33,-1
 264 336 l 1,34,-1
 239 336 l 1,35,-1
 239 320 l 2,36,37
 239 311 239 311 229 311 c 2,38,-1
 86 311 l 1,39,-1
 86 311 l 1,40,41
 76 311 76 311 76 320 c 2,42,-1
 76 321 l 1,43,-1
 76 336 l 1,44,-1
 51 336 l 1,45,-1
 51 22 l 1,46,-1
 264 22 l 1,33,-1
EndSplineSet
Validated: 5
EndChar

StartChar: uniF12B
Encoding: 61739 61739 46
Width: 384
GlyphClass: 2
Flags: W
LayerCount: 2
Fore
SplineSet
192 333 m 128,-1,1
 134 333 134 333 92.5 291.5 c 128,-1,2
 51 250 51 250 51 192 c 128,-1,3
 51 134 51 134 92.5 92.5 c 128,-1,4
 134 51 134 51 192 51 c 128,-1,5
 250 51 250 51 291.5 92.5 c 128,-1,6
 333 134 333 134 333 192 c 128,-1,7
 333 250 333 250 291.5 291.5 c 128,-1,0
 250 333 250 333 192 333 c 128,-1,1
192 384 m 128,-1,9
 272 384 272 384 328 328 c 128,-1,10
 384 272 384 272 384 192 c 128,-1,11
 384 112 384 112 328 56 c 128,-1,12
 272 0 272 0 192 0 c 128,-1,13
 112 0 112 0 56 56 c 128,-1,14
 0 112 0 112 0 192 c 128,-1,15
 0 272 0 272 56 328 c 128,-1,8
 112 384 112 384 192 384 c 128,-1,9
290 263 m 2,16,17
 297 256 297 256 290 249 c 2,18,-1
 199 158 l 2,19,20
 196 155 196 155 192 155 c 128,-1,21
 188 155 188 155 185 158 c 2,22,-1
 123 220 l 2,23,24
 120 223 120 223 120 227 c 0,25,26
 120 232 120 232 123 235 c 2,27,-1
 143 255 l 2,28,29
 150 262 150 262 157 255 c 2,30,-1
 192 219 l 1,31,-1
 256 283 l 2,32,33
 263 290 263 290 270 283 c 2,34,-1
 290 263 l 2,16,17
EndSplineSet
Validated: 1
EndChar

StartChar: uniF12C
Encoding: 61740 61740 47
Width: 342
GlyphClass: 2
Flags: W
LayerCount: 2
Fore
SplineSet
333 300 m 2,0,1
 342 298 342 298 342 289 c 2,2,-1
 342 195 l 1,3,-1
 342 189 l 1,4,-1
 342 95 l 2,5,6
 342 86 342 86 333 84 c 2,7,-1
 173 52 l 1,8,-1
 169 52 l 1,9,-1
 9 84 l 2,10,11
 0 86 0 86 0 95 c 2,12,-1
 0 189 l 1,13,-1
 0 195 l 1,14,-1
 0 289 l 2,15,16
 0 298 0 298 9 300 c 2,17,-1
 169 332 l 1,18,-1
 173 332 l 1,19,-1
 333 300 l 2,0,1
149 150 m 0,20,21
 151 154 151 154 149 157 c 128,-1,22
 147 160 147 160 144 162 c 2,23,-1
 125 170 l 2,24,25
 122 172 122 172 119 170 c 256,26,27
 116 168 116 168 114 165 c 0,28,29
 107 151 107 151 97 151 c 0,30,31
 86 151 86 151 79.5 162.5 c 128,-1,32
 73 174 73 174 73 192 c 128,-1,33
 73 210 73 210 79.5 221.5 c 128,-1,34
 86 233 86 233 97 233 c 128,-1,35
 108 233 108 233 114 220 c 0,36,37
 118 212 118 212 126 216 c 2,38,-1
 144 224 l 2,39,40
 147 226 147 226 149 229 c 0,41,42
 150 231 150 231 148 235 c 0,43,44
 131 270 131 270 97 270 c 0,45,46
 68 270 68 270 50.5 248.5 c 128,-1,47
 33 227 33 227 33 192 c 128,-1,48
 33 157 33 157 50.5 135.5 c 128,-1,49
 68 114 68 114 97 114 c 0,50,51
 132 114 132 114 149 150 c 0,20,21
308 150 m 0,52,53
 310 154 310 154 308 157 c 128,-1,54
 306 160 306 160 303 162 c 2,55,-1
 285 170 l 2,56,57
 282 172 282 172 278 170 c 0,58,59
 275 168 275 168 273 165 c 0,60,61
 266 151 266 151 257 151 c 0,62,63
 246 151 246 151 239 162.5 c 128,-1,64
 232 174 232 174 232 192 c 128,-1,65
 232 210 232 210 239 221.5 c 128,-1,66
 246 233 246 233 257 233 c 128,-1,67
 268 233 268 233 274 220 c 0,68,69
 278 212 278 212 285 216 c 2,70,-1
 303 224 l 2,71,72
 306 226 306 226 308 229 c 0,73,74
 309 231 309 231 307 235 c 0,75,76
 290 270 290 270 257 270 c 0,77,78
 228 270 228 270 210 248.5 c 128,-1,79
 192 227 192 227 192 192 c 128,-1,80
 192 157 192 157 210 135.5 c 128,-1,81
 228 114 228 114 257 114 c 0,82,83
 292 114 292 114 308 150 c 0,52,53
EndSplineSet
Validated: 1
EndChar

StartChar: uniF12D
Encoding: 61741 61741 48
Width: 473
GlyphClass: 2
Flags: W
LayerCount: 2
Fore
SplineSet
387 206 m 1,0,1
 421 210 421 210 447 184.5 c 128,-1,2
 473 159 473 159 473 122 c 0,3,4
 473 96 473 96 457 72 c 0,5,6
 452 65 452 65 445 65 c 2,7,-1
 31 65 l 2,8,9
 23 65 23 65 18 73 c 0,10,11
 0 103 0 103 0 139 c 0,12,13
 0 189 0 189 32 224.5 c 128,-1,14
 64 260 64 260 110 260 c 0,15,16
 121 260 121 260 133 257 c 1,17,18
 176 319 176 319 248 319 c 0,19,20
 296 319 296 319 334.5 287.5 c 128,-1,21
 373 256 373 256 387 206 c 1,0,1
EndSplineSet
Validated: 33
EndChar

StartChar: uniF12E
Encoding: 61742 61742 49
Width: 470
GlyphClass: 2
Flags: W
LayerCount: 2
Fore
SplineSet
302 166 m 2,0,-1
 394 166 l 1,1,-1
 394 73 l 1,2,3
 390 59 390 59 377 59 c 2,4,-1
 152 59 l 1,5,-1
 108 15 l 1,6,7
 103 7 103 7 93 7 c 0,8,9
 76 7 76 7 76 24 c 2,10,-1
 76 59 l 1,11,-1
 17 59 l 2,12,13
 4 59 4 59 0 73 c 1,14,-1
 0 361 l 1,15,16
 2 377 2 377 17 377 c 2,17,-1
 377 377 l 2,18,19
 392 377 392 377 394 361 c 1,20,-1
 394 270 l 1,21,-1
 302 270 l 2,22,23
 293 270 293 270 293 261 c 2,24,-1
 293 175 l 2,25,26
 293 166 293 166 302 166 c 2,0,-1
461 245 m 2,27,28
 470 245 470 245 470 236 c 2,29,-1
 470 200 l 2,30,31
 470 192 470 192 461 192 c 2,32,-1
 328 192 l 2,33,34
 319 192 319 192 319 200 c 2,35,-1
 319 236 l 2,36,37
 319 245 319 245 328 245 c 2,38,-1
 461 245 l 2,27,28
EndSplineSet
Validated: 1
EndChar

StartChar: uniF12F
Encoding: 61743 61743 50
Width: 394
GlyphClass: 2
Flags: W
LayerCount: 2
Fore
SplineSet
394 361 m 1,0,-1
 394 73 l 1,1,2
 390 59 390 59 377 59 c 2,3,-1
 152 59 l 1,4,-1
 108 15 l 1,5,6
 103 7 103 7 93 7 c 0,7,8
 76 7 76 7 76 24 c 2,9,-1
 76 59 l 1,10,-1
 17 59 l 2,11,12
 4 59 4 59 0 73 c 1,13,-1
 0 361 l 1,14,15
 2 377 2 377 17 377 c 2,16,-1
 377 377 l 2,17,18
 392 377 392 377 394 361 c 1,0,-1
87 189 m 0,19,20
 98 189 98 189 105.5 196.5 c 128,-1,21
 113 204 113 204 113 215 c 0,22,23
 113 225 113 225 106.5 232 c 128,-1,24
 100 239 100 239 90 239 c 0,25,26
 85 239 85 239 84 238 c 1,27,28
 89 259 89 259 108 269 c 1,29,-1
 109 269 l 1,30,31
 111 271 111 271 111 272 c 128,-1,32
 111 273 111 273 109 275 c 2,33,-1
 95 284 l 2,34,35
 94 284 94 284 94 284.5 c 128,-1,36
 94 285 94 285 93 285 c 128,-1,37
 92 285 92 285 92 284.5 c 128,-1,38
 92 284 92 284 91 284 c 0,39,40
 57 260 57 260 57 223 c 0,41,42
 57 207 57 207 65.5 198 c 128,-1,43
 74 189 74 189 87 189 c 0,19,20
154 189 m 0,44,45
 165 189 165 189 173 197 c 128,-1,46
 181 205 181 205 181 215 c 128,-1,47
 181 225 181 225 174.5 232 c 128,-1,48
 168 239 168 239 158 239 c 0,49,50
 152 239 152 239 151 238 c 1,51,52
 156 258 156 258 176 269 c 1,53,-1
 176 269 l 1,54,55
 178 271 178 271 178 272 c 0,56,57
 178 274 178 274 177 275 c 2,58,-1
 163 284 l 2,59,60
 162 284 162 284 162 284.5 c 128,-1,61
 162 285 162 285 161 285 c 128,-1,62
 160 285 160 285 160 284.5 c 128,-1,63
 160 284 160 284 159 284 c 0,64,65
 125 260 125 260 125 223 c 0,66,67
 125 207 125 207 133 198 c 128,-1,68
 141 189 141 189 154 189 c 0,44,45
235 152 m 0,69,70
 270 177 270 177 270 214 c 0,71,72
 270 230 270 230 261.5 239 c 128,-1,73
 253 248 253 248 240 248 c 0,74,75
 230 248 230 248 222 240 c 128,-1,76
 214 232 214 232 214 221 c 128,-1,77
 214 210 214 210 220 203.5 c 128,-1,78
 226 197 226 197 236 197 c 0,79,80
 242 197 242 197 243 198 c 1,81,82
 238 178 238 178 218 167 c 1,83,-1
 218 167 l 1,84,85
 216 165 216 165 216 164 c 128,-1,86
 216 163 216 163 218 161 c 1,87,-1
 217 161 l 1,88,-1
 231 152 l 2,89,90
 232 152 232 152 232 152 c 1,91,-1
 234 151 l 1,92,-1
 234 152 l 1,93,94
 234 152 234 152 235 152 c 0,69,70
303 152 m 0,95,96
 337 176 337 176 337 214 c 0,97,98
 337 230 337 230 329 239 c 128,-1,99
 321 248 321 248 308 248 c 0,100,101
 298 248 298 248 289.5 240 c 128,-1,102
 281 232 281 232 281 221 c 0,103,104
 281 211 281 211 287.5 204 c 128,-1,105
 294 197 294 197 304 197 c 0,106,107
 310 197 310 197 311 198 c 1,108,109
 306 178 306 178 286 167 c 1,110,-1
 286 167 l 1,111,112
 284 165 284 165 284 164 c 0,113,114
 284 162 284 162 285 161 c 2,115,-1
 299 152 l 2,116,117
 300 152 300 152 300 151.5 c 128,-1,118
 300 151 300 151 301 151 c 128,-1,119
 302 151 302 151 302 151.5 c 128,-1,120
 302 152 302 152 303 152 c 0,95,96
EndSplineSet
Validated: 1
EndChar

StartChar: uniF130
Encoding: 61744 61744 51
Width: 394
GlyphClass: 2
Flags: W
LayerCount: 2
Fore
SplineSet
394 361 m 1,0,-1
 394 73 l 1,1,2
 390 59 390 59 377 59 c 2,3,-1
 152 59 l 1,4,-1
 108 15 l 1,5,6
 103 7 103 7 93 7 c 0,7,8
 76 7 76 7 76 24 c 2,9,-1
 76 59 l 1,10,-1
 17 59 l 2,11,12
 4 59 4 59 0 73 c 1,13,-1
 0 361 l 1,14,15
 2 377 2 377 17 377 c 2,16,-1
 377 377 l 2,17,18
 392 377 392 377 394 361 c 1,0,-1
305 155 m 1,19,-1
 305 279 l 1,20,-1
 240 249 l 1,21,-1
 240 277 l 2,22,23
 240 289 240 289 227 289 c 2,24,-1
 117 289 l 2,25,26
 105 289 105 289 105 277 c 2,27,-1
 105 157 l 2,28,29
 105 145 105 145 117 145 c 2,30,-1
 227 145 l 2,31,32
 240 145 240 145 240 157 c 2,33,-1
 240 186 l 1,34,-1
 305 155 l 1,19,-1
EndSplineSet
Validated: 1
EndChar

StartChar: uniF131
Encoding: 61745 61745 52
Width: 394
GlyphClass: 2
Flags: W
LayerCount: 2
Fore
SplineSet
394 361 m 1,0,-1
 394 73 l 1,1,2
 390 59 390 59 377 59 c 2,3,-1
 152 59 l 1,4,-1
 108 15 l 1,5,6
 103 7 103 7 93 7 c 0,7,8
 76 7 76 7 76 24 c 2,9,-1
 76 59 l 1,10,-1
 17 59 l 2,11,12
 4 59 4 59 0 73 c 1,13,-1
 0 361 l 1,14,15
 2 377 2 377 17 377 c 2,16,-1
 377 377 l 2,17,18
 392 377 392 377 394 361 c 1,0,-1
EndSplineSet
Validated: 1
EndChar

StartChar: uniF132
Encoding: 61746 61746 53
Width: 461
GlyphClass: 2
Flags: W
LayerCount: 2
Fore
SplineSet
461 357 m 1,0,-1
 461 140 l 1,1,2
 459 129 459 129 448 129 c 2,3,-1
 404 129 l 1,4,-1
 404 103 l 2,5,6
 404 90 404 90 391 90 c 0,7,8
 384 90 384 90 380 96 c 1,9,-1
 347 129 l 1,10,-1
 290 129 l 1,11,-1
 290 279 l 1,12,13
 288 289 288 289 279 289 c 2,14,-1
 164 289 l 1,15,-1
 164 357 l 1,16,17
 166 368 166 368 177 368 c 2,18,-1
 448 368 l 2,19,20
 459 368 459 368 461 357 c 1,0,-1
253 264 m 2,21,22
 263 264 263 264 265 253 c 1,23,-1
 265 60 l 1,24,-1
 264 60 l 1,25,26
 262 50 262 50 253 50 c 2,27,-1
 102 50 l 1,28,-1
 72 21 l 1,29,30
 69 16 69 16 63 16 c 0,31,32
 51 16 51 16 51 27 c 2,33,-1
 51 50 l 1,34,-1
 11 50 l 2,35,36
 2 50 2 50 0 60 c 1,37,-1
 0 253 l 1,38,39
 2 264 2 264 11 264 c 2,40,-1
 253 264 l 2,21,22
EndSplineSet
Validated: 1
EndChar

StartChar: uniF133
Encoding: 61747 61747 54
Width: 384
GlyphClass: 2
Flags: W
LayerCount: 2
Fore
SplineSet
192 384 m 128,-1,1
 272 384 272 384 328 328 c 128,-1,2
 384 272 384 272 384 192 c 128,-1,3
 384 112 384 112 328 56 c 128,-1,4
 272 0 272 0 192 0 c 128,-1,5
 112 0 112 0 56 56 c 128,-1,6
 0 112 0 112 0 192 c 128,-1,7
 0 272 0 272 56 328 c 128,-1,0
 112 384 112 384 192 384 c 128,-1,1
192 51 m 128,-1,9
 250 51 250 51 291.5 92.5 c 128,-1,10
 333 134 333 134 333 192 c 128,-1,11
 333 250 333 250 291.5 291.5 c 128,-1,12
 250 333 250 333 192 333 c 128,-1,13
 134 333 134 333 92.5 291.5 c 128,-1,14
 51 250 51 250 51 192 c 128,-1,15
 51 134 51 134 92.5 92.5 c 128,-1,8
 134 51 134 51 192 51 c 128,-1,9
267 281 m 1,16,17
 274 284 274 284 279 279 c 128,-1,18
 284 274 284 274 281 267 c 1,19,-1
 221 167 l 1,20,-1
 218 164 l 1,21,-1
 117 103 l 2,22,23
 115 102 115 102 112 102 c 0,24,25
 108 102 108 102 105 105 c 0,26,27
 100 110 100 110 103 117 c 1,28,-1
 164 218 l 1,29,-1
 167 221 l 1,30,-1
 267 281 l 1,16,17
EndSplineSet
Validated: 1
EndChar

StartChar: uniF134
Encoding: 61748 61748 55
Width: 384
GlyphClass: 2
Flags: W
LayerCount: 2
Fore
SplineSet
192 384 m 128,-1,1
 272 384 272 384 328 328 c 128,-1,2
 384 272 384 272 384 192 c 128,-1,3
 384 112 384 112 328 56 c 128,-1,4
 272 0 272 0 192 0 c 128,-1,5
 112 0 112 0 56 56 c 128,-1,6
 0 112 0 112 0 192 c 128,-1,7
 0 272 0 272 56 328 c 128,-1,0
 112 384 112 384 192 384 c 128,-1,1
193 333 m 1,8,-1
 193 51 l 1,9,10
 251 51 251 51 292 92 c 128,-1,11
 333 133 333 133 333 192 c 128,-1,12
 333 251 333 251 292 292 c 128,-1,13
 251 333 251 333 193 333 c 1,8,-1
EndSplineSet
Validated: 1
EndChar

StartChar: uniF135
Encoding: 61749 61749 56
Width: 378
GlyphClass: 2
Flags: W
LayerCount: 2
Fore
SplineSet
378 314 m 2,0,-1
 378 313 l 1,1,-1
 378 276 l 1,2,-1
 0 276 l 1,3,-1
 0 312 l 1,4,-1
 0 314 l 2,5,6
 0 327 0 327 14 327 c 2,7,-1
 15 327 l 1,8,-1
 364 327 l 1,9,-1
 365 327 l 2,10,11
 378 327 378 327 378 314 c 2,0,-1
0 70 m 1,12,-1
 0 225 l 1,13,-1
 378 225 l 1,14,-1
 378 70 l 2,15,16
 378 57 378 57 365 57 c 2,17,-1
 15 57 l 1,18,-1
 14 57 l 2,19,20
 0 57 0 57 0 70 c 1,21,-1
 0 70 l 1,12,-1
EndSplineSet
Validated: 5
EndChar

StartChar: uniF136
Encoding: 61750 61750 57
Width: 419
GlyphClass: 2
Flags: W
LayerCount: 2
Fore
SplineSet
405 84 m 2,0,1
 419 84 419 84 419 70 c 2,2,-1
 419 47 l 2,3,4
 419 33 419 33 405 33 c 2,5,-1
 368 33 l 1,6,-1
 368 -3 l 2,7,8
 368 -17 368 -17 354 -17 c 2,9,-1
 331 -17 l 2,10,11
 317 -17 317 -17 317 -3 c 2,12,-1
 317 33 l 1,13,-1
 76 33 l 2,14,15
 66 33 66 33 58.5 40.5 c 128,-1,16
 51 48 51 48 51 58 c 2,17,-1
 51 59 l 1,18,-1
 51 300 l 1,19,-1
 14 300 l 2,20,21
 0 300 0 300 0 314 c 2,22,-1
 0 337 l 2,23,24
 0 351 0 351 14 351 c 2,25,-1
 51 351 l 1,26,-1
 51 387 l 2,27,28
 51 401 51 401 65 401 c 2,29,-1
 88 401 l 2,30,31
 102 401 102 401 102 387 c 2,32,-1
 102 351 l 1,33,-1
 343 351 l 2,34,35
 353 351 353 351 360.5 343.5 c 128,-1,36
 368 336 368 336 368 326 c 2,37,-1
 368 325 l 1,38,-1
 368 84 l 1,39,-1
 405 84 l 2,0,1
102 84 m 1,40,-1
 317 84 l 1,41,-1
 317 300 l 1,42,-1
 102 300 l 1,43,-1
 102 84 l 1,40,-1
EndSplineSet
Validated: 1
EndChar

StartChar: uniF137
Encoding: 61751 61751 58
Width: 348
GlyphClass: 2
Flags: W
LayerCount: 2
Fore
SplineSet
348 38 m 2,0,-1
 348 19 l 1,1,-1
 348 19 l 1,2,3
 348 3 348 3 333 3 c 2,4,-1
 16 3 l 2,5,6
 0 3 0 3 0 19 c 1,7,-1
 0 19 l 1,8,-1
 0 38 l 2,9,10
 0 54 0 54 16 54 c 2,11,-1
 333 54 l 2,12,13
 348 54 348 54 348 38 c 2,0,-1
44 251 m 1,14,15
 44 250 44 250 45 250 c 2,16,-1
 46 250 l 1,17,-1
 80 215 l 1,18,-1
 162 296 l 2,19,20
 167 301 167 301 174 301 c 128,-1,21
 181 301 181 301 186 296 c 2,22,-1
 268 215 l 1,23,-1
 303 250 l 1,24,25
 303 252 303 252 304 252 c 2,26,-1
 305 252 l 1,27,28
 311 256 311 256 315 256 c 0,29,30
 322 256 322 256 327 251 c 128,-1,31
 332 246 332 246 332 239 c 2,32,-1
 332 236 l 1,33,-1
 332 91 l 1,34,-1
 332 91 l 1,35,-1
 332 89 l 1,36,37
 330 75 330 75 315 75 c 1,38,-1
 315 74 l 1,39,-1
 33 74 l 1,40,-1
 33 74 l 1,41,42
 19 74 19 74 17 89 c 1,43,-1
 16 89 l 1,44,-1
 16 239 l 1,45,-1
 17 239 l 1,46,47
 17 255 17 255 33 255 c 0,48,49
 40 255 40 255 44 251 c 1,50,-1
 44 251 l 1,14,15
292 208 m 1,51,-1
 291 208 l 1,52,-1
 292 208 l 1,51,-1
2 309 m 128,-1,54
 2 340 2 340 33 340 c 0,55,56
 63 340 63 340 63 309 c 128,-1,57
 63 278 63 278 33 278 c 0,58,53
 2 278 2 278 2 309 c 128,-1,54
283 309 m 128,-1,60
 283 340 283 340 314 340 c 128,-1,61
 345 340 345 340 345 309 c 128,-1,62
 345 278 345 278 314 278 c 128,-1,59
 283 278 283 278 283 309 c 128,-1,60
145 350 m 128,-1,64
 145 381 145 381 176 381 c 128,-1,65
 207 381 207 381 207 350 c 128,-1,66
 207 319 207 319 176 319 c 128,-1,63
 145 319 145 319 145 350 c 128,-1,64
EndSplineSet
Validated: 5
EndChar

StartChar: uniF138
Encoding: 61752 61752 59
Width: 325
GlyphClass: 2
Flags: W
LayerCount: 2
Fore
SplineSet
0 375 m 1,0,-1
 325 375 l 1,1,-1
 295 45 l 1,2,-1
 163 9 l 1,3,-1
 30 45 l 1,4,-1
 0 375 l 1,0,-1
260 268 m 1,5,-1
 264 308 l 1,6,-1
 162 308 l 1,7,-1
 59 308 l 1,8,-1
 64 268 l 1,9,-1
 162 268 l 1,10,-1
 168 268 l 1,11,-1
 162 266 l 1,12,-1
 68 226 l 1,13,-1
 71 187 l 1,14,-1
 162 187 l 1,15,-1
 211 187 l 1,16,-1
 208 135 l 1,17,-1
 162 122 l 1,18,-1
 162 122 l 1,19,-1
 118 133 l 1,20,-1
 115 165 l 1,21,-1
 74 165 l 1,22,-1
 79 103 l 1,23,-1
 162 78 l 1,24,-1
 163 78 l 1,25,-1
 245 103 l 1,26,-1
 256 226 l 1,27,-1
 162 226 l 1,28,-1
 162 226 l 1,29,-1
 260 268 l 1,5,-1
EndSplineSet
Validated: 5
EndChar

StartChar: uniF139
Encoding: 61753 61753 60
Width: 422
GlyphClass: 2
Flags: W
LayerCount: 2
Fore
SplineSet
124 323 m 1,0,-1
 124 61 l 1,1,-1
 124 61 l 1,2,3
 124 52 124 52 117 45.5 c 128,-1,4
 110 39 110 39 101 39 c 2,5,-1
 21 39 l 1,6,-1
 21 40 l 1,7,8
 12 40 12 40 6 46 c 128,-1,9
 0 52 0 52 0 61 c 2,10,-1
 0 323 l 2,11,12
 0 332 0 332 6 338.5 c 128,-1,13
 12 345 12 345 21 345 c 2,14,-1
 101 345 l 2,15,16
 110 345 110 345 116.5 338.5 c 128,-1,17
 123 332 123 332 123 323 c 1,18,-1
 124 323 l 1,0,-1
62 65 m 128,-1,20
 76 65 76 65 85 74.5 c 128,-1,21
 94 84 94 84 94 97 c 128,-1,22
 94 110 94 110 85 119.5 c 128,-1,23
 76 129 76 129 62 129 c 128,-1,24
 48 129 48 129 39 119.5 c 128,-1,25
 30 110 30 110 30 97 c 128,-1,26
 30 84 30 84 39 74.5 c 128,-1,19
 48 65 48 65 62 65 c 128,-1,20
98 180 m 1,27,-1
 98 319 l 1,28,-1
 26 319 l 1,29,-1
 26 180 l 1,30,-1
 98 180 l 1,27,-1
273 323 m 2,31,-1
 273 61 l 1,32,-1
 273 61 l 1,33,34
 273 52 273 52 266.5 45.5 c 128,-1,35
 260 39 260 39 251 39 c 2,36,-1
 170 39 l 1,37,-1
 170 40 l 1,38,39
 161 40 161 40 155 46 c 128,-1,40
 149 52 149 52 149 61 c 2,41,-1
 149 323 l 2,42,43
 149 332 149 332 155 338.5 c 128,-1,44
 161 345 161 345 170 345 c 2,45,-1
 251 345 l 2,46,47
 260 345 260 345 266.5 338.5 c 128,-1,48
 273 332 273 332 273 323 c 2,31,-1
211 65 m 128,-1,50
 224 65 224 65 233.5 74.5 c 128,-1,51
 243 84 243 84 243 97 c 128,-1,52
 243 110 243 110 233.5 119.5 c 128,-1,53
 224 129 224 129 211 129 c 128,-1,54
 198 129 198 129 188.5 119.5 c 128,-1,55
 179 110 179 110 179 97 c 128,-1,56
 179 84 179 84 188.5 74.5 c 128,-1,49
 198 65 198 65 211 65 c 128,-1,50
247 180 m 1,57,-1
 247 319 l 1,58,-1
 175 319 l 1,59,-1
 175 180 l 1,60,-1
 247 180 l 1,57,-1
422 323 m 2,61,-1
 422 61 l 1,62,-1
 422 61 l 1,63,64
 422 52 422 52 415.5 45.5 c 128,-1,65
 409 39 409 39 400 39 c 2,66,-1
 319 39 l 1,67,-1
 319 40 l 1,68,69
 310 40 310 40 304 46 c 128,-1,70
 298 52 298 52 298 61 c 2,71,-1
 298 323 l 2,72,73
 298 332 298 332 304 338.5 c 128,-1,74
 310 345 310 345 319 345 c 2,75,-1
 400 345 l 2,76,77
 409 345 409 345 415.5 338.5 c 128,-1,78
 422 332 422 332 422 323 c 2,61,-1
360 65 m 128,-1,80
 374 65 374 65 383 74.5 c 128,-1,81
 392 84 392 84 392 97 c 128,-1,82
 392 110 392 110 383 119.5 c 128,-1,83
 374 129 374 129 360 129 c 128,-1,84
 346 129 346 129 337 119.5 c 128,-1,85
 328 110 328 110 328 97 c 128,-1,86
 328 84 328 84 337 74.5 c 128,-1,79
 346 65 346 65 360 65 c 128,-1,80
396 180 m 1,87,-1
 396 319 l 1,88,-1
 324 319 l 1,89,-1
 324 180 l 1,90,-1
 396 180 l 1,87,-1
EndSplineSet
Validated: 5
EndChar

StartChar: uniF13A
Encoding: 61754 61754 61
Width: 348
GlyphClass: 2
Flags: W
LayerCount: 2
Fore
SplineSet
348 329 m 2,0,-1
 348 55 l 2,1,2
 348 40 348 40 337 29 c 128,-1,3
 326 18 326 18 311 18 c 2,4,-1
 37 18 l 2,5,6
 22 18 22 18 11 29 c 128,-1,7
 0 40 0 40 0 55 c 2,8,-1
 0 329 l 2,9,10
 0 344 0 344 11 355 c 128,-1,11
 22 366 22 366 37 366 c 2,12,-1
 311 366 l 1,13,14
 326 365 326 365 337 354.5 c 128,-1,15
 348 344 348 344 348 329 c 2,0,-1
87 71 m 128,-1,17
 102 71 102 71 112.5 81.5 c 128,-1,18
 123 92 123 92 123 107 c 128,-1,19
 123 122 123 122 112.5 132.5 c 128,-1,20
 102 143 102 143 87 143 c 128,-1,21
 72 143 72 143 61.5 132.5 c 128,-1,22
 51 122 51 122 51 107 c 128,-1,23
 51 92 51 92 61.5 81.5 c 128,-1,16
 72 71 72 71 87 71 c 128,-1,17
87 243 m 128,-1,25
 102 243 102 243 112.5 253.5 c 128,-1,26
 123 264 123 264 123 279 c 128,-1,27
 123 294 123 294 112.5 304.5 c 128,-1,28
 102 315 102 315 87 315 c 128,-1,29
 72 315 72 315 61.5 304.5 c 128,-1,30
 51 294 51 294 51 279 c 128,-1,31
 51 264 51 264 61.5 253.5 c 128,-1,24
 72 243 72 243 87 243 c 128,-1,25
174 156 m 128,-1,33
 189 156 189 156 199.5 166.5 c 128,-1,34
 210 177 210 177 210 192 c 128,-1,35
 210 207 210 207 199.5 217.5 c 128,-1,36
 189 228 189 228 174 228 c 128,-1,37
 159 228 159 228 148.5 217.5 c 128,-1,38
 138 207 138 207 138 192 c 128,-1,39
 138 177 138 177 148.5 166.5 c 128,-1,32
 159 156 159 156 174 156 c 128,-1,33
261 69 m 128,-1,41
 276 69 276 69 286.5 79.5 c 128,-1,42
 297 90 297 90 297 105 c 128,-1,43
 297 120 297 120 286.5 130.5 c 128,-1,44
 276 141 276 141 261 141 c 128,-1,45
 246 141 246 141 235.5 130.5 c 128,-1,46
 225 120 225 120 225 105 c 128,-1,47
 225 90 225 90 235.5 79.5 c 128,-1,40
 246 69 246 69 261 69 c 128,-1,41
261 243 m 128,-1,49
 276 243 276 243 286.5 253.5 c 128,-1,50
 297 264 297 264 297 279 c 128,-1,51
 297 294 297 294 286.5 304.5 c 128,-1,52
 276 315 276 315 261 315 c 128,-1,53
 246 315 246 315 235.5 304.5 c 128,-1,54
 225 294 225 294 225 279 c 128,-1,55
 225 264 225 264 235.5 253.5 c 128,-1,48
 246 243 246 243 261 243 c 128,-1,49
EndSplineSet
Validated: 1
EndChar

StartChar: uniF13B
Encoding: 61755 61755 62
Width: 348
GlyphClass: 2
Flags: W
LayerCount: 2
Fore
SplineSet
348 329 m 2,0,-1
 348 55 l 2,1,2
 348 40 348 40 337 29 c 128,-1,3
 326 18 326 18 311 18 c 2,4,-1
 37 18 l 2,5,6
 22 18 22 18 11 29 c 128,-1,7
 0 40 0 40 0 55 c 2,8,-1
 0 329 l 2,9,10
 0 344 0 344 11 355 c 128,-1,11
 22 366 22 366 37 366 c 2,12,-1
 311 366 l 1,13,14
 326 365 326 365 337 354.5 c 128,-1,15
 348 344 348 344 348 329 c 2,0,-1
87 71 m 128,-1,17
 102 71 102 71 112.5 81.5 c 128,-1,18
 123 92 123 92 123 107 c 128,-1,19
 123 122 123 122 112.5 132.5 c 128,-1,20
 102 143 102 143 87 143 c 128,-1,21
 72 143 72 143 61.5 132.5 c 128,-1,22
 51 122 51 122 51 107 c 128,-1,23
 51 92 51 92 61.5 81.5 c 128,-1,16
 72 71 72 71 87 71 c 128,-1,17
87 243 m 128,-1,25
 102 243 102 243 112.5 253.5 c 128,-1,26
 123 264 123 264 123 279 c 128,-1,27
 123 294 123 294 112.5 304.5 c 128,-1,28
 102 315 102 315 87 315 c 128,-1,29
 72 315 72 315 61.5 304.5 c 128,-1,30
 51 294 51 294 51 279 c 128,-1,31
 51 264 51 264 61.5 253.5 c 128,-1,24
 72 243 72 243 87 243 c 128,-1,25
261 69 m 128,-1,33
 276 69 276 69 286.5 79.5 c 128,-1,34
 297 90 297 90 297 105 c 128,-1,35
 297 120 297 120 286.5 130.5 c 128,-1,36
 276 141 276 141 261 141 c 128,-1,37
 246 141 246 141 235.5 130.5 c 128,-1,38
 225 120 225 120 225 105 c 128,-1,39
 225 90 225 90 235.5 79.5 c 128,-1,32
 246 69 246 69 261 69 c 128,-1,33
261 243 m 128,-1,41
 276 243 276 243 286.5 253.5 c 128,-1,42
 297 264 297 264 297 279 c 128,-1,43
 297 294 297 294 286.5 304.5 c 128,-1,44
 276 315 276 315 261 315 c 128,-1,45
 246 315 246 315 235.5 304.5 c 128,-1,46
 225 294 225 294 225 279 c 128,-1,47
 225 264 225 264 235.5 253.5 c 128,-1,40
 246 243 246 243 261 243 c 128,-1,41
EndSplineSet
Validated: 1
EndChar

StartChar: uniF13C
Encoding: 61756 61756 63
Width: 348
GlyphClass: 2
Flags: W
LayerCount: 2
Fore
SplineSet
348 329 m 2,0,-1
 348 55 l 2,1,2
 348 40 348 40 337 29 c 128,-1,3
 326 18 326 18 311 18 c 2,4,-1
 37 18 l 2,5,6
 22 18 22 18 11 29 c 128,-1,7
 0 40 0 40 0 55 c 2,8,-1
 0 329 l 2,9,10
 0 344 0 344 11 355 c 128,-1,11
 22 366 22 366 37 366 c 2,12,-1
 311 366 l 1,13,14
 326 365 326 365 337 354.5 c 128,-1,15
 348 344 348 344 348 329 c 2,0,-1
174 153 m 128,-1,17
 190 153 190 153 201.5 164.5 c 128,-1,18
 213 176 213 176 213 192 c 128,-1,19
 213 208 213 208 201.5 219.5 c 128,-1,20
 190 231 190 231 174 231 c 128,-1,21
 158 231 158 231 146.5 219.5 c 128,-1,22
 135 208 135 208 135 192 c 128,-1,23
 135 176 135 176 146.5 164.5 c 128,-1,16
 158 153 158 153 174 153 c 128,-1,17
EndSplineSet
Validated: 1
EndChar

StartChar: uniF13D
Encoding: 61757 61757 64
Width: 348
GlyphClass: 2
Flags: W
LayerCount: 2
Fore
SplineSet
348 329 m 2,0,-1
 348 55 l 2,1,2
 348 40 348 40 337 29 c 128,-1,3
 326 18 326 18 311 18 c 2,4,-1
 37 18 l 2,5,6
 22 18 22 18 11 29 c 128,-1,7
 0 40 0 40 0 55 c 2,8,-1
 0 329 l 2,9,10
 0 344 0 344 11 355 c 128,-1,11
 22 366 22 366 37 366 c 2,12,-1
 311 366 l 1,13,14
 326 365 326 365 337 354.5 c 128,-1,15
 348 344 348 344 348 329 c 2,0,-1
87 71 m 128,-1,17
 102 71 102 71 112.5 81.5 c 128,-1,18
 123 92 123 92 123 107 c 128,-1,19
 123 122 123 122 112.5 132.5 c 128,-1,20
 102 143 102 143 87 143 c 128,-1,21
 72 143 72 143 61.5 132.5 c 128,-1,22
 51 122 51 122 51 107 c 128,-1,23
 51 92 51 92 61.5 81.5 c 128,-1,16
 72 71 72 71 87 71 c 128,-1,17
87 156 m 128,-1,25
 102 156 102 156 112.5 166.5 c 128,-1,26
 123 177 123 177 123 192 c 128,-1,27
 123 207 123 207 112.5 217.5 c 128,-1,28
 102 228 102 228 87 228 c 128,-1,29
 72 228 72 228 61.5 217.5 c 128,-1,30
 51 207 51 207 51 192 c 128,-1,31
 51 177 51 177 61.5 166.5 c 128,-1,24
 72 156 72 156 87 156 c 128,-1,25
87 243 m 128,-1,33
 102 243 102 243 112.5 253.5 c 128,-1,34
 123 264 123 264 123 279 c 128,-1,35
 123 294 123 294 112.5 304.5 c 128,-1,36
 102 315 102 315 87 315 c 128,-1,37
 72 315 72 315 61.5 304.5 c 128,-1,38
 51 294 51 294 51 279 c 128,-1,39
 51 264 51 264 61.5 253.5 c 128,-1,32
 72 243 72 243 87 243 c 128,-1,33
261 69 m 128,-1,41
 276 69 276 69 286.5 79.5 c 128,-1,42
 297 90 297 90 297 105 c 128,-1,43
 297 120 297 120 286.5 130.5 c 128,-1,44
 276 141 276 141 261 141 c 128,-1,45
 246 141 246 141 235.5 130.5 c 128,-1,46
 225 120 225 120 225 105 c 128,-1,47
 225 90 225 90 235.5 79.5 c 128,-1,40
 246 69 246 69 261 69 c 128,-1,41
261 156 m 128,-1,49
 276 156 276 156 286.5 166.5 c 128,-1,50
 297 177 297 177 297 192 c 128,-1,51
 297 207 297 207 286.5 217.5 c 128,-1,52
 276 228 276 228 261 228 c 128,-1,53
 246 228 246 228 235.5 217.5 c 128,-1,54
 225 207 225 207 225 192 c 128,-1,55
 225 177 225 177 235.5 166.5 c 128,-1,48
 246 156 246 156 261 156 c 128,-1,49
261 243 m 128,-1,57
 276 243 276 243 286.5 253.5 c 128,-1,58
 297 264 297 264 297 279 c 128,-1,59
 297 294 297 294 286.5 304.5 c 128,-1,60
 276 315 276 315 261 315 c 128,-1,61
 246 315 246 315 235.5 304.5 c 128,-1,62
 225 294 225 294 225 279 c 128,-1,63
 225 264 225 264 235.5 253.5 c 128,-1,56
 246 243 246 243 261 243 c 128,-1,57
EndSplineSet
Validated: 1
EndChar

StartChar: uniF13E
Encoding: 61758 61758 65
Width: 348
GlyphClass: 2
Flags: W
LayerCount: 2
Fore
SplineSet
348 329 m 2,0,-1
 348 55 l 2,1,2
 348 40 348 40 337 29 c 128,-1,3
 326 18 326 18 311 18 c 2,4,-1
 37 18 l 2,5,6
 22 18 22 18 11 29 c 128,-1,7
 0 40 0 40 0 55 c 2,8,-1
 0 329 l 2,9,10
 0 344 0 344 11 355 c 128,-1,11
 22 366 22 366 37 366 c 2,12,-1
 311 366 l 1,13,14
 326 365 326 365 337 354.5 c 128,-1,15
 348 344 348 344 348 329 c 2,0,-1
87 243 m 128,-1,17
 102 243 102 243 112.5 253.5 c 128,-1,18
 123 264 123 264 123 279 c 128,-1,19
 123 294 123 294 112.5 304.5 c 128,-1,20
 102 315 102 315 87 315 c 128,-1,21
 72 315 72 315 61.5 304.5 c 128,-1,22
 51 294 51 294 51 279 c 128,-1,23
 51 264 51 264 61.5 253.5 c 128,-1,16
 72 243 72 243 87 243 c 128,-1,17
174 156 m 128,-1,25
 189 156 189 156 199.5 166.5 c 128,-1,26
 210 177 210 177 210 192 c 128,-1,27
 210 207 210 207 199.5 217.5 c 128,-1,28
 189 228 189 228 174 228 c 128,-1,29
 159 228 159 228 148.5 217.5 c 128,-1,30
 138 207 138 207 138 192 c 128,-1,31
 138 177 138 177 148.5 166.5 c 128,-1,24
 159 156 159 156 174 156 c 128,-1,25
261 69 m 128,-1,33
 276 69 276 69 286.5 79.5 c 128,-1,34
 297 90 297 90 297 105 c 128,-1,35
 297 120 297 120 286.5 130.5 c 128,-1,36
 276 141 276 141 261 141 c 128,-1,37
 246 141 246 141 235.5 130.5 c 128,-1,38
 225 120 225 120 225 105 c 128,-1,39
 225 90 225 90 235.5 79.5 c 128,-1,32
 246 69 246 69 261 69 c 128,-1,33
EndSplineSet
Validated: 1
EndChar

StartChar: uniF13F
Encoding: 61759 61759 66
Width: 348
GlyphClass: 2
Flags: W
LayerCount: 2
Fore
SplineSet
348 329 m 2,0,-1
 348 55 l 2,1,2
 348 40 348 40 337 29 c 128,-1,3
 326 18 326 18 311 18 c 2,4,-1
 37 18 l 2,5,6
 22 18 22 18 11 29 c 128,-1,7
 0 40 0 40 0 55 c 2,8,-1
 0 329 l 2,9,10
 0 344 0 344 11 355 c 128,-1,11
 22 366 22 366 37 366 c 2,12,-1
 311 366 l 1,13,14
 326 365 326 365 337 354.5 c 128,-1,15
 348 344 348 344 348 329 c 2,0,-1
87 243 m 128,-1,17
 102 243 102 243 112.5 253.5 c 128,-1,18
 123 264 123 264 123 279 c 128,-1,19
 123 294 123 294 112.5 304.5 c 128,-1,20
 102 315 102 315 87 315 c 128,-1,21
 72 315 72 315 61.5 304.5 c 128,-1,22
 51 294 51 294 51 279 c 128,-1,23
 51 264 51 264 61.5 253.5 c 128,-1,16
 72 243 72 243 87 243 c 128,-1,17
261 69 m 128,-1,25
 276 69 276 69 286.5 79.5 c 128,-1,26
 297 90 297 90 297 105 c 128,-1,27
 297 120 297 120 286.5 130.5 c 128,-1,28
 276 141 276 141 261 141 c 128,-1,29
 246 141 246 141 235.5 130.5 c 128,-1,30
 225 120 225 120 225 105 c 128,-1,31
 225 90 225 90 235.5 79.5 c 128,-1,24
 246 69 246 69 261 69 c 128,-1,25
EndSplineSet
Validated: 1
EndChar

StartChar: uniF140
Encoding: 61760 61760 67
Width: 333
GlyphClass: 2
Flags: W
LayerCount: 2
Fore
SplineSet
333 295 m 2,0,-1
 333 151 l 2,1,2
 333 138 333 138 321 138 c 2,3,-1
 250 138 l 1,4,-1
 250 80 l 1,5,-1
 250 79 l 1,6,-1
 250 62 l 2,7,8
 250 50 250 50 241.5 41.5 c 128,-1,9
 233 33 233 33 221 33 c 0,10,11
 203 33 203 33 195 48 c 2,12,-1
 145 134 l 1,13,-1
 145 134 l 1,14,-1
 145 135 l 1,15,-1
 142 138 l 1,16,-1
 91 138 l 1,17,-1
 90 138 l 2,18,19
 77 138 77 138 77 151 c 1,20,-1
 77 151 l 1,21,-1
 77 295 l 1,22,-1
 77 338 l 1,23,-1
 77 339 l 1,24,-1
 77 339 l 1,25,26
 77 351 77 351 90 351 c 2,27,-1
 91 351 l 1,28,-1
 276 351 l 2,29,30
 280 351 280 351 281 350 c 2,31,-1
 331 300 l 2,32,33
 333 298 333 298 333 295 c 2,0,-1
51 316 m 1,34,-1
 51 178 l 1,35,-1
 51 176 l 2,36,37
 51 163 51 163 38 163 c 1,38,-1
 38 163 l 1,39,-1
 38 163 l 1,40,-1
 13 163 l 2,41,42
 2 163 2 163 0 175 c 1,43,-1
 0 316 l 2,44,45
 0 328 0 328 13 328 c 2,46,-1
 37 328 l 1,47,-1
 38 329 l 1,48,49
 51 329 51 329 51 316 c 1,50,-1
 51 316 l 1,34,-1
EndSplineSet
Validated: 5
EndChar

StartChar: uniF141
Encoding: 61761 61761 68
Width: 447
GlyphClass: 2
Flags: W
LayerCount: 2
Fore
SplineSet
447 294 m 2,0,-1
 447 90 l 1,1,-1
 447 90 l 1,2,3
 447 82 447 82 441 76 c 128,-1,4
 435 70 435 70 427 70 c 1,5,-1
 427 70 l 1,6,-1
 20 70 l 2,7,8
 12 70 12 70 6 76 c 128,-1,9
 0 82 0 82 0 90 c 1,10,-1
 0 90 l 1,11,-1
 0 294 l 2,12,13
 0 302 0 302 6 308 c 128,-1,14
 12 314 12 314 20 314 c 2,15,-1
 427 314 l 1,16,-1
 427 314 l 1,17,18
 435 314 435 314 441 308 c 128,-1,19
 447 302 447 302 447 294 c 2,0,-1
371 266 m 1,20,-1
 371 266 l 1,21,22
 371 262 371 262 375 262 c 1,23,-1
 375 262 l 1,24,-1
 396 262 l 1,25,-1
 396 241 l 2,26,27
 396 237 396 237 400 237 c 2,28,-1
 417 237 l 1,29,-1
 418 237 l 2,30,31
 422 237 422 237 422 241 c 2,32,-1
 422 284 l 2,33,34
 422 288 422 288 418 288 c 2,35,-1
 417 288 l 1,36,-1
 375 288 l 1,37,-1
 375 288 l 1,38,39
 371 288 371 288 371 284 c 2,40,-1
 371 266 l 1,20,-1
77 118 m 1,41,-1
 77 118 l 1,42,43
 77 122 77 122 73 122 c 2,44,-1
 72 122 l 1,45,-1
 51 122 l 1,46,-1
 51 143 l 2,47,48
 51 147 51 147 47 147 c 2,49,-1
 30 147 l 1,50,-1
 30 147 l 1,51,52
 26 147 26 147 26 143 c 2,53,-1
 26 100 l 2,54,55
 26 96 26 96 30 96 c 1,56,-1
 30 96 l 1,57,-1
 72 96 l 1,58,-1
 73 96 l 2,59,60
 77 96 77 96 77 100 c 2,61,-1
 77 118 l 1,41,-1
77 284 m 1,62,-1
 77 284 l 1,63,64
 77 288 77 288 73 288 c 2,65,-1
 30 288 l 2,66,67
 26 288 26 288 26 284 c 1,68,-1
 26 284 l 1,69,-1
 26 241 l 1,70,-1
 26 241 l 1,71,72
 26 237 26 237 30 237 c 2,73,-1
 47 237 l 1,74,-1
 47 237 l 1,75,76
 51 237 51 237 51 241 c 1,77,-1
 51 241 l 1,78,-1
 51 262 l 1,79,-1
 73 262 l 2,80,81
 77 262 77 262 77 267 c 2,82,-1
 77 284 l 1,62,-1
224 96 m 128,-1,84
 264 96 264 96 292 124 c 128,-1,85
 320 152 320 152 320 192 c 128,-1,86
 320 232 320 232 292 260 c 128,-1,87
 264 288 264 288 224 288 c 128,-1,88
 184 288 184 288 156 260 c 128,-1,89
 128 232 128 232 128 192 c 128,-1,90
 128 152 128 152 156 124 c 128,-1,83
 184 96 184 96 224 96 c 128,-1,84
422 143 m 1,91,-1
 422 143 l 1,92,93
 422 147 422 147 418 147 c 2,94,-1
 400 147 l 2,95,96
 396 147 396 147 396 143 c 1,97,-1
 396 143 l 1,98,-1
 396 122 l 1,99,-1
 375 122 l 2,100,101
 371 122 371 122 371 117 c 2,102,-1
 371 100 l 1,103,-1
 371 100 l 1,104,105
 371 96 371 96 375 96 c 2,106,-1
 418 96 l 2,107,108
 422 96 422 96 422 100 c 1,109,-1
 422 100 l 1,110,-1
 422 143 l 1,91,-1
224 263 m 128,-1,112
 253 263 253 263 273.5 242 c 128,-1,113
 294 221 294 221 294 192 c 0,114,115
 294 168 294 168 282 152 c 1,116,117
 282 158 282 158 278 160 c 2,118,-1
 250 173 l 1,119,-1
 238 179 l 1,120,121
 245 183 245 183 250 193 c 0,122,123
 253 200 253 200 253 209 c 0,124,125
 253 215 253 215 252 218 c 0,126,127
 245 243 245 243 224 243 c 0,128,129
 202 243 202 243 195 219 c 0,130,131
 194 216 194 216 194 209 c 128,-1,132
 194 202 194 202 198 192 c 0,133,134
 203 182 203 182 210 178 c 1,135,-1
 199 173 l 1,136,-1
 170 160 l 2,137,138
 166 159 166 159 166 152 c 1,139,140
 153 170 153 170 153 192 c 0,141,142
 153 221 153 221 174 242 c 128,-1,111
 195 263 195 263 224 263 c 128,-1,112
EndSplineSet
Validated: 5
EndChar

StartChar: uniF142
Encoding: 61762 61762 69
Width: 209
GlyphClass: 2
Flags: W
LayerCount: 2
Fore
SplineSet
126 219 m 1,0,1
 150 213 150 213 165.5 206 c 128,-1,2
 181 199 181 199 195 182.5 c 128,-1,3
 209 166 209 166 209 142 c 0,4,5
 209 110 209 110 187.5 88.5 c 128,-1,6
 166 67 166 67 126 63 c 1,7,-1
 126 35 l 2,8,9
 126 29 126 29 120 29 c 2,10,-1
 97 29 l 2,11,12
 91 29 91 29 91 35 c 2,13,-1
 91 63 l 1,14,15
 37 67 37 67 2 102 c 0,16,17
 0 104 0 104 0 107 c 0,18,19
 0 109 0 109 1 110 c 2,20,-1
 23 142 l 2,21,22
 24 145 24 145 28 145 c 0,23,24
 30 145 30 145 31 144 c 2,25,-1
 32 143 l 2,26,27
 59 116 59 116 91 111 c 1,28,-1
 91 169 l 1,29,30
 54 177 54 177 32 194 c 128,-1,31
 10 211 10 211 10 245 c 0,32,33
 10 274 10 274 32 295 c 128,-1,34
 54 316 54 316 91 320 c 1,35,-1
 91 349 l 2,36,37
 91 355 91 355 97 355 c 2,38,-1
 120 355 l 2,39,40
 126 355 126 355 126 349 c 2,41,-1
 126 319 l 1,42,43
 173 314 173 314 203 286 c 0,44,45
 205 284 205 284 205 282 c 128,-1,46
 205 280 205 280 203 278 c 2,47,-1
 182 247 l 1,48,-1
 181 247 l 1,49,50
 179 245 179 245 177 245 c 0,51,52
 174 245 174 245 173 246 c 0,53,54
 152 264 152 264 126 270 c 1,55,-1
 126 219 l 1,0,1
91 227 m 1,56,-1
 91 273 l 1,57,58
 65 270 65 270 65 249 c 0,59,60
 65 236 65 236 91 227 c 1,56,-1
126 111 m 1,61,62
 155 117 155 117 155 137 c 0,63,64
 155 152 155 152 126 161 c 1,65,-1
 126 111 l 1,61,62
EndSplineSet
Validated: 1
EndChar

StartChar: uniF143
Encoding: 61763 61763 70
Width: 404
GlyphClass: 2
Flags: W
LayerCount: 2
Fore
SplineSet
379 194 m 2,0,1
 390 194 390 194 397 187 c 128,-1,2
 404 180 404 180 404 169 c 2,3,-1
 404 25 l 2,4,5
 404 14 404 14 397 7 c 128,-1,6
 390 0 390 0 379 0 c 2,7,-1
 25 0 l 2,8,9
 14 0 14 0 7 7 c 128,-1,10
 0 14 0 14 0 25 c 2,11,-1
 0 169 l 2,12,13
 0 180 0 180 7 187 c 128,-1,14
 14 194 14 194 25 194 c 2,15,-1
 115 194 l 2,16,17
 134 194 134 194 139 177 c 0,18,19
 146 156 146 156 163 143.5 c 128,-1,20
 180 131 180 131 202 131 c 128,-1,21
 224 131 224 131 241 143.5 c 128,-1,22
 258 156 258 156 265 177 c 0,23,24
 270 194 270 194 289 194 c 2,25,-1
 379 194 l 2,0,1
197 181 m 2,26,-1
 127 279 l 1,27,28
 125 284 125 284 126 286 c 0,29,30
 128 289 128 289 132 289 c 2,31,-1
 165 289 l 1,32,-1
 165 377 l 2,33,34
 165 384 165 384 172 384 c 2,35,-1
 232 384 l 2,36,37
 239 384 239 384 239 377 c 2,38,-1
 239 289 l 1,39,-1
 272 289 l 2,40,41
 276 289 276 289 278 286 c 0,42,43
 279 284 279 284 277 279 c 1,44,-1
 208 181 l 2,45,46
 206 178 206 178 202 178 c 128,-1,47
 198 178 198 178 197 181 c 2,26,-1
EndSplineSet
Validated: 1
EndChar

StartChar: uniF144
Encoding: 61764 61764 71
Width: 382
GlyphClass: 2
Flags: W
LayerCount: 2
Fore
SplineSet
13 141 m 2,0,1
 0 141 0 141 0 154 c 0,2,3
 0 159 0 159 4 163 c 2,4,-1
 180 340 l 1,5,6
 183 345 183 345 191 345 c 0,7,8
 197 345 197 345 200 340 c 1,9,-1
 378 163 l 2,10,11
 382 160 382 160 382 154 c 0,12,13
 382 141 382 141 370 141 c 2,14,-1
 13 141 l 2,0,1
382 52 m 2,15,16
 382 39 382 39 369 39 c 2,17,-1
 12 39 l 1,18,19
 0 41 0 41 0 52 c 2,20,-1
 0 53 l 1,21,-1
 0 102 l 2,22,23
 0 113 0 113 12 115 c 1,24,-1
 369 116 l 2,25,26
 382 116 382 116 382 103 c 1,27,-1
 382 103 l 1,28,-1
 382 52 l 2,15,16
EndSplineSet
Validated: 5
EndChar

StartChar: uniF145
Encoding: 61765 61765 72
Width: 493
GlyphClass: 2
Flags: W
LayerCount: 2
Fore
SplineSet
389 393 m 1,0,1
 402 393 402 393 402 380 c 2,2,-1
 402 4 l 2,3,4
 402 -9 402 -9 389 -9 c 1,5,-1
 389 -9 l 1,6,-1
 13 -9 l 1,7,-1
 13 -9 l 1,8,-1
 13 -9 l 1,9,10
 0 -9 0 -9 0 4 c 2,11,-1
 0 380 l 2,12,13
 0 393 0 393 13 393 c 2,14,-1
 389 393 l 1,15,-1
 389 393 l 1,0,1
51 341 m 1,16,-1
 51 43 l 1,17,-1
 350 43 l 1,18,-1
 350 341 l 1,19,-1
 51 341 l 1,16,-1
490 120 m 2,20,21
 492 120 492 120 493 119 c 128,-1,22
 494 118 494 118 492 116 c 2,23,-1
 461 72 l 1,24,-1
 459 70 l 2,25,26
 458 70 458 70 456 72 c 2,27,-1
 425 116 l 2,28,29
 423 118 423 118 424 119 c 128,-1,30
 425 120 425 120 427 120 c 2,31,-1
 442 120 l 1,32,-1
 442 160 l 2,33,34
 442 163 442 163 445 163 c 2,35,-1
 472 163 l 2,36,37
 475 163 475 163 475 160 c 2,38,-1
 475 120 l 1,39,-1
 490 120 l 2,20,21
427 264 m 2,40,41
 425 264 425 264 424 265 c 128,-1,42
 423 266 423 266 425 268 c 2,43,-1
 456 312 l 2,44,45
 458 314 458 314 459 314 c 2,46,-1
 461 312 l 1,47,-1
 493 268 l 2,48,49
 494 266 494 266 493 265 c 256,50,51
 492 264 492 264 490 264 c 2,52,-1
 475 264 l 1,53,-1
 475 224 l 2,54,55
 475 221 475 221 472 221 c 2,56,-1
 445 221 l 2,57,58
 442 221 442 221 442 224 c 2,59,-1
 442 264 l 1,60,-1
 427 264 l 2,40,41
109 284 m 0,61,62
 109 310 109 310 134 310 c 128,-1,63
 159 310 159 310 159 284 c 0,64,65
 159 259 159 259 134 259 c 128,-1,66
 109 259 109 259 109 284 c 0,61,62
182 252 m 1,67,68
 193 250 193 250 193 240 c 2,69,-1
 193 168 l 2,70,71
 193 164 193 164 190 161 c 0,72,73
 182 153 182 153 174 161 c 0,74,75
 171 164 171 164 171 168 c 2,76,-1
 171 218 l 2,77,78
 171 222 171 222 168 222 c 0,79,80
 164 222 164 222 164 218 c 2,81,-1
 164 186 l 1,82,-1
 164 153 l 1,83,-1
 164 87 l 2,84,85
 164 74 164 74 152 74 c 0,86,87
 139 74 139 74 139 87 c 2,88,-1
 139 153 l 2,89,90
 139 157 139 157 136 157 c 0,91,92
 132 157 132 157 132 153 c 2,93,-1
 132 87 l 2,94,95
 132 74 132 74 120 74 c 0,96,97
 107 74 107 74 107 87 c 2,98,-1
 107 186 l 1,99,-1
 107 218 l 1,100,-1
 107 218 l 1,101,102
 107 222 107 222 104 222 c 128,-1,103
 101 222 101 222 101 218 c 1,104,-1
 101 218 l 1,105,-1
 101 168 l 2,106,107
 101 165 101 165 97 161 c 0,108,109
 90 154 90 154 82 161 c 0,110,111
 79 164 79 164 79 168 c 2,112,-1
 79 240 l 2,113,114
 79 252 79 252 91 252 c 2,115,-1
 182 252 l 1,67,68
238 284 m 0,116,117
 238 310 238 310 264 310 c 0,118,119
 289 310 289 310 289 284 c 0,120,121
 289 259 289 259 264 259 c 0,122,123
 238 259 238 259 238 284 c 0,116,117
312 252 m 1,124,125
 322 250 322 250 322 240 c 2,126,-1
 322 168 l 2,127,128
 322 164 322 164 319 161 c 0,129,130
 312 154 312 154 304 161 c 0,131,132
 301 164 301 164 301 168 c 2,133,-1
 301 218 l 2,134,135
 301 222 301 222 298 222 c 0,136,137
 294 222 294 222 294 218 c 2,138,-1
 294 186 l 1,139,-1
 294 153 l 1,140,-1
 294 87 l 2,141,142
 294 74 294 74 282 74 c 0,143,144
 269 74 269 74 269 87 c 2,145,-1
 269 153 l 2,146,147
 269 157 269 157 266 157 c 0,148,149
 262 157 262 157 262 153 c 2,150,-1
 262 87 l 2,151,152
 262 74 262 74 250 74 c 0,153,154
 237 74 237 74 237 87 c 2,155,-1
 237 186 l 1,156,-1
 237 218 l 1,157,-1
 237 218 l 1,158,159
 237 222 237 222 234 222 c 0,160,161
 230 222 230 222 230 218 c 1,162,-1
 230 218 l 1,163,-1
 230 168 l 2,164,165
 230 164 230 164 227 161 c 0,166,167
 220 154 220 154 212 161 c 0,168,169
 209 164 209 164 209 168 c 2,170,-1
 209 240 l 2,171,172
 209 252 209 252 221 252 c 2,173,-1
 312 252 l 1,124,125
EndSplineSet
Validated: 5
EndChar

StartChar: uniF146
Encoding: 61766 61766 73
Width: 283
GlyphClass: 2
Flags: W
LayerCount: 2
Fore
SplineSet
280 125 m 1,0,1
 284 122 284 122 282 117 c 1,2,-1
 282 117 l 1,3,-1
 282 117 l 1,4,5
 245 50 245 50 167 50 c 0,6,7
 116 50 116 50 78.5 76.5 c 128,-1,8
 41 103 41 103 27 148 c 1,9,-1
 6 148 l 1,10,-1
 6 147 l 1,11,12
 0 147 0 147 0 153 c 2,13,-1
 0 174 l 2,14,15
 0 180 0 180 6 180 c 2,16,-1
 21 180 l 1,17,-1
 21 192 l 1,18,-1
 21 205 l 1,19,-1
 6 205 l 2,20,21
 0 205 0 205 0 211 c 2,22,-1
 0 232 l 2,23,24
 0 238 0 238 6 238 c 2,25,-1
 27 238 l 1,26,27
 41 282 41 282 79 308 c 128,-1,28
 117 334 117 334 167 334 c 0,29,30
 245 334 245 334 282 267 c 1,31,-1
 282 267 l 1,32,-1
 282 267 l 1,33,34
 284 262 284 262 280 259 c 1,35,-1
 279 259 l 1,36,-1
 239 240 l 2,37,38
 234 238 234 238 232 242 c 0,39,40
 210 282 210 282 167 282 c 0,41,42
 115 282 115 282 92 238 c 1,43,-1
 192 238 l 2,44,45
 198 238 198 238 198 232 c 2,46,-1
 198 211 l 2,47,48
 198 205 198 205 192 205 c 1,49,-1
 192 205 l 1,50,-1
 192 205 l 1,51,-1
 82 205 l 1,52,53
 81 200 81 200 81 192 c 2,54,-1
 81 180 l 1,55,-1
 192 180 l 2,56,57
 198 180 198 180 198 174 c 2,58,-1
 198 153 l 2,59,60
 198 147 198 147 192 147 c 2,61,-1
 91 147 l 1,62,63
 114 102 114 102 167 102 c 0,64,65
 210 102 210 102 231 141 c 1,66,-1
 232 142 l 1,67,68
 234 146 234 146 239 144 c 2,69,-1
 279 125 l 1,70,-1
 280 125 l 1,0,1
EndSplineSet
Validated: 5
EndChar

StartChar: uniF147
Encoding: 61767 61767 74
Width: 365
GlyphClass: 2
Flags: W
LayerCount: 2
Fore
SplineSet
359 204 m 1,0,1
 365 201 365 201 365 193 c 0,2,3
 365 187 365 187 361 183 c 1,4,-1
 361 183 l 1,5,-1
 360 182 l 1,6,-1
 281 103 l 1,7,8
 242 59 242 59 182 59 c 0,9,10
 131 59 131 59 92 95 c 1,11,-1
 92 94 l 1,12,-1
 5 181 l 2,13,14
 0 186 0 186 0 192 c 128,-1,15
 0 198 0 198 3 201 c 2,16,-1
 83 280 l 1,17,18
 123 325 123 325 182 325 c 0,19,20
 234 325 234 325 273 289 c 1,21,-1
 273 290 l 1,22,-1
 359 204 l 1,0,1
182 102 m 128,-1,24
 220 102 220 102 246 128 c 128,-1,25
 272 154 272 154 272 192 c 128,-1,26
 272 230 272 230 246 256 c 128,-1,27
 220 282 220 282 182 282 c 128,-1,28
 144 282 144 282 118 256 c 128,-1,29
 92 230 92 230 92 192 c 128,-1,30
 92 154 92 154 118 128 c 128,-1,23
 144 102 144 102 182 102 c 128,-1,24
139 192 m 0,31,32
 139 235 139 235 182 235 c 0,33,34
 226 235 226 235 226 192 c 0,35,36
 226 148 226 148 182 148 c 0,37,38
 139 148 139 148 139 192 c 0,31,32
EndSplineSet
Validated: 5
EndChar

StartChar: uniF148
Encoding: 61768 61768 75
Width: 372
GlyphClass: 2
Flags: W
LayerCount: 2
Fore
SplineSet
372 192 m 0,0,1
 372 188 372 188 368 185 c 1,2,-1
 368 184 l 1,3,-1
 176 73 l 2,4,5
 174 71 174 71 169 71 c 0,6,7
 161 71 161 71 161 79 c 2,8,-1
 161 157 l 1,9,-1
 15 73 l 2,10,11
 13 71 13 71 9 71 c 0,12,13
 0 71 0 71 0 79 c 2,14,-1
 0 305 l 2,15,16
 0 313 0 313 9 313 c 0,17,18
 13 313 13 313 15 311 c 2,19,-1
 161 227 l 1,20,-1
 161 305 l 2,21,22
 161 313 161 313 169 313 c 0,23,24
 174 313 174 313 176 311 c 2,25,-1
 367 200 l 2,26,27
 372 198 372 198 372 192 c 0,0,1
EndSplineSet
Validated: 1
EndChar

StartChar: uniF149
Encoding: 61769 61769 76
Width: 268
GlyphClass: 2
Flags: W
LayerCount: 2
Fore
SplineSet
229 163 m 0,0,1
 200 134 200 134 159 126 c 1,2,-1
 159 85 l 1,3,-1
 187 85 l 2,4,5
 191 85 191 85 193 83 c 128,-1,6
 195 81 195 81 195 77 c 2,7,-1
 195 42 l 2,8,9
 195 34 195 34 187 34 c 2,10,-1
 159 34 l 1,11,-1
 159 0 l 2,12,13
 159 -8 159 -8 151 -8 c 2,14,-1
 116 -8 l 1,15,-1
 116 -8 l 1,16,-1
 114 -8 l 1,17,18
 108 -6 108 -6 108 0 c 2,19,-1
 108 34 l 1,20,-1
 81 34 l 2,21,22
 73 34 73 34 73 42 c 2,23,-1
 73 77 l 2,24,25
 73 81 73 81 75 83 c 128,-1,26
 77 85 77 85 81 85 c 2,27,-1
 108 85 l 1,28,-1
 108 126 l 1,29,30
 68 134 68 134 39 163 c 0,31,32
 0 202 0 202 0 258 c 128,-1,33
 0 314 0 314 39 353 c 128,-1,34
 78 392 78 392 134 392 c 128,-1,35
 190 392 190 392 229 353 c 128,-1,36
 268 314 268 314 268 258 c 128,-1,37
 268 202 268 202 229 163 c 0,0,1
134 175 m 128,-1,39
 168 175 168 175 192.5 199.5 c 128,-1,40
 217 224 217 224 217 258 c 128,-1,41
 217 292 217 292 192.5 316.5 c 128,-1,42
 168 341 168 341 134 341 c 128,-1,43
 100 341 100 341 75.5 316.5 c 128,-1,44
 51 292 51 292 51 258 c 128,-1,45
 51 224 51 224 75.5 199.5 c 128,-1,38
 100 175 100 175 134 175 c 128,-1,39
EndSplineSet
Validated: 1
EndChar

StartChar: uniF14A
Encoding: 61770 61770 77
Width: 227
GlyphClass: 2
Flags: W
LayerCount: 2
Fore
SplineSet
68 345 m 128,-1,1
 68 387 68 387 110 387 c 128,-1,2
 152 387 152 387 152 345 c 128,-1,3
 152 303 152 303 110 303 c 128,-1,0
 68 303 68 303 68 345 c 128,-1,1
227 171 m 1,4,-1
 227 168 l 2,5,6
 227 164 227 164 224 159 c 0,7,8
 222 155 222 155 218 153 c 0,9,10
 214 150 214 150 209 150 c 0,11,12
 196 150 196 150 192 162 c 2,13,-1
 172 238 l 2,14,15
 170 243 170 243 166 243 c 0,16,17
 161 243 161 243 161 237 c 2,18,-1
 161 235 l 1,19,-1
 193 113 l 2,20,21
 194 112 194 112 194 110 c 1,22,-1
 195 109 l 1,23,-1
 194 109 l 1,24,-1
 195 109 l 1,25,26
 195 99 195 99 185 99 c 2,27,-1
 161 99 l 1,28,-1
 161 18 l 2,29,30
 161 12 161 12 158 8 c 0,31,32
 155 3 155 3 150 0 c 0,33,34
 146 -3 146 -3 140 -3 c 0,35,36
 132 -3 132 -3 125 4 c 0,37,38
 119 10 119 10 119 18 c 2,39,-1
 119 99 l 1,40,-1
 107 99 l 1,41,-1
 107 18 l 2,42,43
 107 10 107 10 101 4 c 0,44,45
 94 -3 94 -3 87 -3 c 0,46,47
 79 -3 79 -3 72 4 c 0,48,49
 66 10 66 10 66 18 c 2,50,-1
 66 99 l 1,51,-1
 42 99 l 2,52,53
 32 99 32 99 32 109 c 1,54,-1
 32 109 l 1,55,-1
 32 110 l 2,56,57
 32 112 32 112 33 113 c 2,58,-1
 66 236 l 1,59,-1
 66 237 l 1,60,-1
 66 237 l 1,61,-1
 66 238 l 1,62,63
 64 243 64 243 61 243 c 0,64,65
 57 243 57 243 55 238 c 1,66,-1
 55 238 l 1,67,-1
 35 162 l 1,68,-1
 34 162 l 1,69,70
 29 150 29 150 18 150 c 0,71,72
 11 150 11 150 5 156 c 0,73,74
 0 161 0 161 0 168 c 2,75,-1
 0 171 l 1,76,-1
 28 276 l 1,77,-1
 29 278 l 1,78,79
 33 291 33 291 47 291 c 1,80,-1
 47 292 l 1,81,-1
 179 292 l 1,82,-1
 179 291 l 1,83,84
 194 291 194 291 198 278 c 1,85,-1
 199 276 l 1,86,-1
 227 171 l 1,4,-1
EndSplineSet
Validated: 5
EndChar

StartChar: uniF14B
Encoding: 61771 61771 78
Width: 410
GlyphClass: 2
Flags: W
LayerCount: 2
Fore
SplineSet
410 334 m 0,0,1
 410 318 410 318 399 309 c 1,2,-1
 243 154 l 1,3,-1
 243 36 l 1,4,-1
 243 34 l 2,5,6
 243 17 243 17 226 17 c 0,7,8
 223 17 223 17 217 19 c 1,9,-1
 217 19 l 1,10,-1
 216 20 l 1,11,-1
 176 43 l 2,12,13
 167 48 167 48 167 58 c 1,14,-1
 167 58 l 1,15,-1
 167 154 l 1,16,-1
 12 308 l 1,17,18
 0 317 0 317 0 334 c 0,19,20
 0 348 0 348 10 357.5 c 128,-1,21
 20 367 20 367 33 367 c 2,22,-1
 35 367 l 1,23,-1
 378 367 l 1,24,25
 392 366 392 366 401 356.5 c 128,-1,26
 410 347 410 347 410 334 c 0,0,1
114 301 m 0,27,-1
EndSplineSet
Validated: 5
EndChar

StartChar: uniF14C
Encoding: 61772 61772 79
Width: 411
GlyphClass: 2
Flags: W
LayerCount: 2
Fore
SplineSet
100 308 m 1,0,-1
 100 353 l 1,1,-1
 100 354 l 2,2,3
 100 366 100 366 113 366 c 1,4,-1
 113 366 l 1,5,-1
 298 366 l 2,6,7
 310 366 310 366 310 354 c 2,8,-1
 310 307 l 1,9,-1
 279 307 l 1,10,-1
 279 334 l 1,11,-1
 131 334 l 1,12,-1
 131 308 l 1,13,-1
 100 308 l 1,0,-1
76 18 m 1,14,-1
 76 280 l 1,15,-1
 335 280 l 1,16,-1
 335 18 l 1,17,-1
 76 18 l 1,14,-1
128 167 m 2,18,-1
 128 130 l 2,19,20
 128 129 128 129 129 128 c 128,-1,21
 130 127 130 127 132 127 c 2,22,-1
 184 127 l 1,23,-1
 184 74 l 2,24,25
 184 72 184 72 185 71 c 128,-1,26
 186 70 186 70 188 70 c 2,27,-1
 225 70 l 2,28,29
 226 70 226 70 227 71 c 0,30,31
 229 73 229 73 229 74 c 2,32,-1
 229 127 l 1,33,-1
 281 127 l 2,34,35
 283 127 283 127 284 128 c 128,-1,36
 285 129 285 129 285 130 c 2,37,-1
 285 167 l 2,38,39
 285 171 285 171 281 171 c 2,40,-1
 229 171 l 1,41,-1
 229 223 l 2,42,43
 229 227 229 227 225 227 c 2,44,-1
 188 227 l 2,45,46
 184 227 184 227 184 223 c 2,47,-1
 184 171 l 1,48,-1
 132 171 l 2,49,50
 128 171 128 171 128 167 c 2,18,-1
20 280 m 2,51,-1
 51 280 l 1,52,-1
 51 18 l 1,53,-1
 20 18 l 2,54,55
 12 18 12 18 6 24 c 128,-1,56
 0 30 0 30 0 38 c 2,57,-1
 0 39 l 1,58,-1
 0 259 l 2,59,60
 0 267 0 267 6 273.5 c 128,-1,61
 12 280 12 280 20 280 c 2,51,-1
411 38 m 2,62,63
 411 30 411 30 405 24 c 128,-1,64
 399 18 399 18 391 18 c 1,65,-1
 391 18 l 1,66,-1
 360 18 l 1,67,-1
 360 280 l 1,68,-1
 391 280 l 2,69,70
 399 280 399 280 405 274 c 128,-1,71
 411 268 411 268 411 260 c 2,72,-1
 411 38 l 2,62,63
EndSplineSet
Validated: 5
EndChar

StartChar: uniF14D
Encoding: 61773 61773 80
Width: 372
GlyphClass: 2
Flags: W
LayerCount: 2
Fore
SplineSet
364 325 m 2,0,1
 372 325 372 325 372 317 c 2,2,-1
 372 148 l 2,3,4
 372 144 372 144 369 142 c 0,5,6
 335 106 335 106 285 106 c 0,7,8
 239 106 239 106 206 137 c 1,9,10
 168 182 168 182 110 182 c 0,11,12
 79 182 79 182 54 169 c 1,13,-1
 54 24 l 2,14,15
 54 13 54 13 46 5 c 128,-1,16
 38 -3 38 -3 27 -3 c 128,-1,17
 16 -3 16 -3 8 5 c 128,-1,18
 0 13 0 13 0 24 c 2,19,-1
 0 346 l 2,20,21
 0 357 0 357 8 365 c 128,-1,22
 16 373 16 373 27 373 c 0,23,24
 44 373 44 373 51 358 c 1,25,26
 83 387 83 387 128 387 c 0,27,28
 175 387 175 387 208 356 c 1,29,30
 246 311 246 311 303 311 c 0,31,32
 335 311 335 311 361 325 c 1,33,-1
 364 325 l 2,0,1
EndSplineSet
Validated: 1
EndChar

StartChar: uniF14E
Encoding: 61774 61774 81
Width: 425
GlyphClass: 2
Flags: W
LayerCount: 2
Fore
SplineSet
397 325 m 2,0,1
 408 325 408 325 416.5 316.5 c 128,-1,2
 425 308 425 308 425 297 c 2,3,-1
 425 49 l 2,4,5
 425 38 425 38 416.5 29.5 c 128,-1,6
 408 21 408 21 397 21 c 2,7,-1
 28 21 l 2,8,9
 17 21 17 21 8.5 29.5 c 128,-1,10
 0 38 0 38 0 49 c 2,11,-1
 0 297 l 2,12,13
 0 308 0 308 8.5 316.5 c 128,-1,14
 17 325 17 325 28 325 c 2,15,-1
 58 325 l 1,16,-1
 84 357 l 2,17,18
 88 363 88 363 97 363 c 2,19,-1
 171 363 l 2,20,21
 180 363 180 363 186 353 c 0,22,23
 189 349 189 349 209 325 c 1,24,-1
 397 325 l 2,0,1
374 124 m 2,25,-1
 374 155 l 2,26,27
 374 159 374 159 371 159 c 2,28,-1
 326 159 l 1,29,-1
 326 204 l 2,30,31
 326 207 326 207 322 207 c 2,32,-1
 291 207 l 2,33,34
 287 207 287 207 287 204 c 2,35,-1
 287 159 l 1,36,-1
 242 159 l 2,37,38
 239 159 239 159 239 155 c 2,39,-1
 239 124 l 2,40,41
 239 123 239 123 240 122 c 128,-1,42
 241 121 241 121 242 121 c 2,43,-1
 287 121 l 1,44,-1
 287 76 l 2,45,46
 287 74 287 74 288 73 c 128,-1,47
 289 72 289 72 291 72 c 2,48,-1
 322 72 l 2,49,50
 324 72 324 72 325 73 c 128,-1,51
 326 74 326 74 326 76 c 2,52,-1
 326 121 l 1,53,-1
 371 121 l 2,54,55
 372 121 372 121 373 122 c 128,-1,56
 374 123 374 123 374 124 c 2,25,-1
EndSplineSet
Validated: 1
EndChar

StartChar: uniF14F
Encoding: 61775 61775 82
Width: 425
GlyphClass: 2
Flags: W
LayerCount: 2
Fore
SplineSet
312 181 m 128,-1,1
 319 181 319 181 324 176 c 128,-1,2
 329 171 329 171 329 164 c 1,3,-1
 329 164 l 1,4,-1
 329 149 l 1,5,-1
 295 149 l 1,6,-1
 295 164 l 2,7,8
 295 171 295 171 300 176 c 128,-1,0
 305 181 305 181 312 181 c 128,-1,1
397 325 m 2,9,10
 408 325 408 325 416.5 316.5 c 128,-1,11
 425 308 425 308 425 297 c 2,12,-1
 425 49 l 2,13,14
 425 38 425 38 416.5 29.5 c 128,-1,15
 408 21 408 21 397 21 c 2,16,-1
 28 21 l 2,17,18
 17 21 17 21 8.5 29.5 c 128,-1,19
 0 38 0 38 0 49 c 2,20,-1
 0 297 l 2,21,22
 0 308 0 308 8.5 316.5 c 128,-1,23
 17 325 17 325 28 325 c 2,24,-1
 58 325 l 1,25,-1
 84 357 l 2,26,27
 88 363 88 363 97 363 c 2,28,-1
 171 363 l 2,29,30
 180 363 180 363 186 353 c 0,31,32
 189 349 189 349 209 325 c 1,33,-1
 397 325 l 2,9,10
374 77 m 2,34,-1
 374 144 l 2,35,36
 374 149 374 149 369 149 c 2,37,-1
 363 149 l 1,38,-1
 354 149 l 1,39,-1
 354 164 l 2,40,41
 354 181 354 181 341.5 193.5 c 128,-1,42
 329 206 329 206 312 206 c 128,-1,43
 295 206 295 206 283 193.5 c 128,-1,44
 271 181 271 181 271 164 c 2,45,-1
 271 149 l 1,46,-1
 263 149 l 1,47,-1
 257 149 l 2,48,49
 252 149 252 149 252 144 c 2,50,-1
 252 77 l 2,51,52
 252 72 252 72 257 72 c 2,53,-1
 369 72 l 2,54,55
 374 72 374 72 374 77 c 2,34,-1
EndSplineSet
Validated: 5
EndChar

StartChar: uniF150
Encoding: 61776 61776 83
Width: 425
GlyphClass: 2
Flags: W
LayerCount: 2
Fore
SplineSet
397 325 m 2,0,1
 408 325 408 325 416.5 316.5 c 128,-1,2
 425 308 425 308 425 297 c 2,3,-1
 425 49 l 2,4,5
 425 38 425 38 416.5 29.5 c 128,-1,6
 408 21 408 21 397 21 c 2,7,-1
 28 21 l 2,8,9
 17 21 17 21 8.5 29.5 c 128,-1,10
 0 38 0 38 0 49 c 2,11,-1
 0 297 l 2,12,13
 0 308 0 308 8.5 316.5 c 128,-1,14
 17 325 17 325 28 325 c 2,15,-1
 58 325 l 1,16,-1
 84 357 l 2,17,18
 88 363 88 363 97 363 c 2,19,-1
 171 363 l 2,20,21
 180 363 180 363 186 353 c 0,22,23
 189 349 189 349 209 325 c 1,24,-1
 397 325 l 2,0,1
EndSplineSet
Validated: 1
EndChar

StartChar: uniF151
Encoding: 61777 61777 84
Width: 264
GlyphClass: 2
Flags: W
LayerCount: 2
Fore
SplineSet
0 264 m 128,-1,1
 0 286 0 286 22 286 c 128,-1,2
 44 286 44 286 44 264 c 128,-1,3
 44 242 44 242 22 242 c 128,-1,0
 0 242 0 242 0 264 c 128,-1,1
168 368 m 0,4,5
 168 413 168 413 213 413 c 128,-1,6
 258 413 258 413 258 368 c 0,7,8
 258 324 258 324 213 324 c 128,-1,9
 168 324 168 324 168 368 c 0,4,5
92 354 m 128,-1,11
 92 382 92 382 120 382 c 128,-1,12
 148 382 148 382 148 354 c 128,-1,13
 148 326 148 326 120 326 c 128,-1,10
 92 326 92 326 92 354 c 128,-1,11
249 69 m 1,14,15
 262 53 262 53 262 31 c 0,16,17
 262 5 262 5 245 -12 c 128,-1,18
 228 -29 228 -29 202 -29 c 0,19,20
 181 -29 181 -29 167 -18 c 0,21,22
 151 -5 151 -5 145 12 c 1,23,-1
 69 143 l 1,24,-1
 70 144 l 1,25,26
 62 158 62 158 59 169 c 0,27,28
 54 187 54 187 54 202 c 0,29,30
 54 245 54 245 85 276 c 128,-1,31
 116 307 116 307 159 307 c 0,32,33
 187 307 187 307 212 293 c 0,34,35
 235 280 235 280 250 254 c 0,36,37
 264 229 264 229 264 202 c 0,38,39
 264 168 264 168 247 143 c 1,40,41
 238 127 238 127 238 108 c 0,42,43
 238 86 238 86 249 69 c 1,14,15
39 311 m 0,44,45
 39 334 39 334 61 334 c 128,-1,46
 83 334 83 334 83 311 c 0,47,48
 83 289 83 289 61 289 c 128,-1,49
 39 289 39 289 39 311 c 0,44,45
EndSplineSet
Validated: 1
EndChar

StartChar: uniF152
Encoding: 61778 61778 85
Width: 356
GlyphClass: 2
Flags: W
LayerCount: 2
Fore
SplineSet
325 59 m 2,0,1
 326 59 326 59 326 57 c 2,2,-1
 326 56 l 1,3,-1
 320 44 l 2,4,5
 320 43 320 43 318 43 c 2,6,-1
 317 43 l 1,7,-1
 301 51 l 2,8,9
 300 51 300 51 300 53 c 0,10,11
 300 54 300 54 300 54 c 1,12,-1
 301 54 l 1,13,-1
 307 66 l 2,14,15
 309 68 309 68 310 67 c 2,16,-1
 325 59 l 2,0,1
325 328 m 2,17,18
 326 328 326 328 326 326 c 2,19,-1
 326 325 l 1,20,-1
 319 314 l 1,21,22
 319 312 319 312 318 312 c 2,23,-1
 316 313 l 1,24,-1
 301 322 l 2,25,26
 300 322 300 322 300 323 c 2,27,-1
 300 325 l 1,28,-1
 307 336 l 2,29,30
 309 338 309 338 310 337 c 2,31,-1
 325 328 l 2,17,18
295 75 m 2,32,33
 297 73 297 73 296 72 c 2,34,-1
 289 60 l 2,35,36
 289 59 289 59 287 59 c 2,37,-1
 286 59 l 1,38,-1
 282 62 l 1,39,-1
 277 64 l 1,40,-1
 215 30 l 1,41,-1
 215 30 l 1,42,43
 214 29 214 29 210 29 c 0,44,45
 207 29 207 29 206 30 c 1,46,-1
 206 30 l 1,47,-1
 143 64 l 1,48,-1
 81 30 l 1,49,-1
 80 30 l 1,50,51
 79 29 79 29 76 29 c 128,-1,52
 73 29 73 29 72 30 c 1,53,-1
 71 30 l 1,54,-1
 4 67 l 1,55,56
 0 68 0 68 0 73 c 2,57,-1
 0 347 l 2,58,59
 0 352 0 352 5 354 c 0,60,61
 8 355 8 355 14 353 c 1,62,-1
 76 319 l 1,63,-1
 138 353 l 1,64,-1
 139 353 l 1,65,-1
 139 354 l 1,66,-1
 141 354 l 1,67,-1
 143 354 l 1,68,-1
 145 354 l 1,69,-1
 147 354 l 1,70,-1
 148 353 l 1,71,-1
 210 319 l 1,72,-1
 272 353 l 1,73,74
 276 357 276 357 281 354 c 2,75,-1
 288 349 l 1,76,-1
 295 346 l 2,77,78
 296 346 296 346 296 344 c 1,79,80
 295 344 295 344 295 343 c 2,81,-1
 289 331 l 2,82,83
 289 330 289 330 287 330 c 1,84,-1
 286 331 l 1,85,-1
 277 336 l 1,86,-1
 277 84 l 1,87,-1
 295 75 l 2,32,33
76 46 m 1,88,-1
 76 302 l 1,89,-1
 18 333 l 1,90,-1
 18 77 l 1,91,-1
 76 46 l 1,88,-1
210 46 m 1,92,-1
 210 302 l 1,93,-1
 143 338 l 1,94,-1
 143 82 l 1,95,-1
 210 46 l 1,92,-1
354 160 m 2,96,97
 356 160 356 160 356 157 c 2,98,-1
 356 130 l 2,99,100
 356 128 356 128 354 128 c 2,101,-1
 341 128 l 2,102,103
 338 128 338 128 338 130 c 2,104,-1
 338 157 l 2,105,106
 338 160 338 160 341 160 c 2,107,-1
 354 160 l 2,96,97
354 52 m 2,108,109
 356 52 356 52 356 50 c 2,110,-1
 356 40 l 2,111,112
 356 29 356 29 346 29 c 0,113,114
 344 29 344 29 340 31 c 2,115,-1
 332 35 l 2,116,117
 331 35 331 35 331 37 c 2,118,-1
 331 38 l 1,119,-1
 337 50 l 1,120,-1
 338 51 l 1,121,-1
 340 52 l 1,122,-1
 341 52 l 1,123,-1
 354 52 l 2,108,109
349 314 m 2,124,125
 356 310 356 310 356 302 c 2,126,-1
 356 292 l 2,127,128
 356 290 356 290 354 290 c 2,129,-1
 341 290 l 2,130,131
 338 290 338 290 338 292 c 2,132,-1
 338 300 l 1,133,-1
 332 304 l 2,134,135
 331 304 331 304 331 305 c 2,136,-1
 331 307 l 1,137,-1
 337 318 l 2,138,139
 339 320 339 320 340 319 c 2,140,-1
 349 314 l 2,124,125
354 267 m 2,141,142
 356 267 356 267 356 265 c 2,143,-1
 356 238 l 2,144,145
 356 236 356 236 354 236 c 2,146,-1
 341 236 l 2,147,148
 338 236 338 236 338 238 c 2,149,-1
 338 265 l 2,150,151
 338 267 338 267 341 267 c 2,152,-1
 354 267 l 2,141,142
354 106 m 2,153,154
 356 106 356 106 356 104 c 2,155,-1
 356 77 l 2,156,157
 356 74 356 74 354 74 c 2,158,-1
 341 74 l 2,159,160
 338 74 338 74 338 77 c 2,161,-1
 338 104 l 2,162,163
 338 106 338 106 341 106 c 2,164,-1
 354 106 l 2,153,154
354 213 m 2,165,166
 356 213 356 213 356 211 c 2,167,-1
 356 184 l 2,168,169
 356 182 356 182 354 182 c 2,170,-1
 341 182 l 2,171,172
 338 182 338 182 338 184 c 2,173,-1
 338 211 l 2,174,175
 338 213 338 213 341 213 c 2,176,-1
 354 213 l 2,165,166
EndSplineSet
Validated: 5
EndChar

StartChar: uniF153
Encoding: 61779 61779 86
Width: 427
GlyphClass: 2
Flags: W
LayerCount: 2
Fore
SplineSet
193 140 m 2,0,1
 201 140 201 140 201 132 c 2,2,-1
 201 20 l 2,3,4
 201 12 201 12 193 12 c 2,5,-1
 121 12 l 2,6,7
 113 12 113 12 113 20 c 2,8,-1
 113 132 l 2,9,10
 113 140 113 140 121 140 c 2,11,-1
 193 140 l 2,0,1
306 372 m 2,12,13
 314 372 314 372 314 364 c 2,14,-1
 314 20 l 2,15,16
 314 12 314 12 306 12 c 2,17,-1
 234 12 l 2,18,19
 226 12 226 12 226 20 c 2,20,-1
 226 364 l 2,21,22
 226 372 226 372 234 372 c 2,23,-1
 306 372 l 2,12,13
420 267 m 2,24,25
 427 267 427 267 427 260 c 2,26,-1
 427 20 l 2,27,28
 427 12 427 12 420 12 c 2,29,-1
 347 12 l 2,30,31
 339 12 339 12 339 20 c 2,32,-1
 339 260 l 2,33,34
 339 267 339 267 347 267 c 2,35,-1
 420 267 l 2,24,25
80 267 m 2,36,37
 88 267 88 267 88 260 c 2,38,-1
 88 20 l 2,39,40
 88 12 88 12 80 12 c 2,41,-1
 8 12 l 2,42,43
 0 12 0 12 0 20 c 2,44,-1
 0 260 l 2,45,46
 0 267 0 267 8 267 c 2,47,-1
 80 267 l 2,36,37
EndSplineSet
Validated: 1
EndChar

StartChar: uniF154
Encoding: 61780 61780 87
Width: 387
GlyphClass: 2
Flags: W
LayerCount: 2
Fore
SplineSet
380 238 m 2,0,1
 387 238 387 238 387 230 c 2,2,-1
 387 153 l 2,3,4
 387 145 387 145 380 145 c 2,5,-1
 8 145 l 2,6,7
 0 145 0 145 0 153 c 2,8,-1
 0 230 l 2,9,10
 0 238 0 238 8 238 c 2,11,-1
 380 238 l 2,0,1
226 357 m 1,12,13
 231 355 231 355 231 349 c 2,14,-1
 231 272 l 2,15,16
 231 266 231 266 226 264 c 1,17,-1
 8 264 l 2,18,19
 0 264 0 264 0 272 c 2,20,-1
 0 349 l 2,21,22
 0 357 0 357 8 357 c 2,23,-1
 226 357 l 1,12,13
275 120 m 2,24,25
 283 120 283 120 283 112 c 2,26,-1
 283 35 l 2,27,28
 283 27 283 27 275 27 c 2,29,-1
 8 27 l 2,30,31
 0 27 0 27 0 35 c 2,32,-1
 0 112 l 2,33,34
 0 120 0 120 8 120 c 2,35,-1
 275 120 l 2,24,25
EndSplineSet
Validated: 1
EndChar

StartChar: uniF155
Encoding: 61781 61781 88
Width: 380
GlyphClass: 2
Flags: W
LayerCount: 2
Fore
SplineSet
212 382 m 0,0,1
 282 381 282 381 330.5 332 c 128,-1,2
 379 283 379 283 380 213 c 0,3,4
 380 207 380 207 374 207 c 2,5,-1
 373 207 l 1,6,-1
 212 207 l 2,7,8
 205 207 205 207 205 213 c 2,9,-1
 205 374 l 1,10,-1
 205 375 l 2,11,12
 205 382 205 382 212 382 c 0,0,1
341 174 m 2,13,-1
 341 172 l 2,14,15
 341 102 341 102 291.5 52 c 128,-1,16
 242 2 242 2 171 2 c 128,-1,17
 100 2 100 2 50 52 c 128,-1,18
 0 102 0 102 0 172 c 128,-1,19
 0 242 0 242 50 292.5 c 128,-1,20
 100 343 100 343 171 343 c 2,21,-1
 172 343 l 1,22,-1
 173 343 l 2,23,24
 180 343 180 343 180 336 c 1,25,-1
 179 335 l 1,26,-1
 180 335 l 1,27,-1
 180 188 l 2,28,29
 180 181 180 181 186 181 c 2,30,-1
 334 181 l 2,31,32
 341 181 341 181 341 174 c 2,13,-1
EndSplineSet
Validated: 1
EndChar

StartChar: uniF156
Encoding: 61782 61782 89
Width: 410
GlyphClass: 2
Flags: W
LayerCount: 2
Fore
SplineSet
384 37 m 2,0,-1
 25 37 l 2,1,2
 14 37 14 37 7 44.5 c 128,-1,3
 0 52 0 52 0 62 c 2,4,-1
 0 322 l 2,5,6
 0 332 0 332 7 339.5 c 128,-1,7
 14 347 14 347 25 347 c 2,8,-1
 384 347 l 2,9,10
 395 347 395 347 402.5 339.5 c 128,-1,11
 410 332 410 332 410 322 c 2,12,-1
 410 62 l 2,13,14
 410 52 410 52 402.5 44.5 c 128,-1,15
 395 37 395 37 384 37 c 2,0,-1
359 87 m 1,16,-1
 359 297 l 1,17,-1
 50 297 l 1,18,-1
 50 87 l 1,19,-1
 359 87 l 1,16,-1
162 111 m 2,20,21
 154 111 154 111 149 116 c 2,22,-1
 124 141 l 1,23,-1
 93 116 l 2,24,25
 78 105 78 105 68 118 c 0,26,27
 57 133 57 133 70 143 c 2,28,-1
 114 179 l 2,29,30
 126 190 126 190 138 178 c 2,31,-1
 159 157 l 1,32,-1
 205 229 l 2,33,34
 211 237 211 237 221 237 c 128,-1,35
 231 237 231 237 236 227 c 2,36,-1
 263 169 l 1,37,-1
 315 261 l 2,38,39
 324 277 324 277 340 268 c 128,-1,40
 356 259 356 259 347 244 c 2,41,-1
 277 121 l 2,42,43
 272 112 272 112 261 112 c 128,-1,44
 250 112 250 112 245 123 c 2,45,-1
 217 182 l 1,46,-1
 177 119 l 2,47,48
 173 113 173 113 164 111 c 1,49,-1
 162 111 l 2,20,21
EndSplineSet
Validated: 33
EndChar

StartChar: uniF157
Encoding: 61783 61783 90
Width: 399
GlyphClass: 2
Flags: W
LayerCount: 2
Fore
SplineSet
148 320 m 1,0,1
 143 323 143 323 143 329 c 0,2,3
 143 339 143 339 153 339 c 0,4,5
 158 339 158 339 161 336 c 2,6,-1
 221 276 l 1,7,8
 226 273 226 273 226 267 c 0,9,10
 226 257 226 257 215 257 c 0,11,12
 213 257 213 257 209 259 c 1,13,-1
 208 259 l 1,14,-1
 208 260 l 1,15,-1
 148 320 l 1,0,1
215 111 m 1,16,-1
 190 111 l 2,17,18
 162 111 162 111 149 112 c 1,19,-1
 173 70 l 2,20,21
 177 64 177 64 177 59 c 0,22,23
 177 52 177 52 171.5 46.5 c 128,-1,24
 166 41 166 41 159 41 c 0,25,26
 150 41 150 41 145 48 c 2,27,-1
 107 113 l 1,28,-1
 70 48 l 1,29,-1
 69 48 l 1,30,31
 64 41 64 41 55 41 c 0,32,33
 48 41 48 41 42.5 46.5 c 128,-1,34
 37 52 37 52 37 59 c 0,35,36
 37 64 37 64 41 70 c 2,37,-1
 73 126 l 1,38,39
 59 136 59 136 59 182 c 0,40,41
 59 196 59 196 63 216 c 1,42,-1
 6 249 l 2,43,44
 0 252 0 252 0 260 c 0,45,46
 0 273 0 273 13 273 c 0,47,48
 17 273 17 273 19 272 c 2,49,-1
 75 239 l 2,50,51
 76 239 76 239 78 240 c 1,52,-1
 215 240 l 1,53,-1
 215 111 l 1,16,-1
306 125 m 1,54,-1
 337 70 l 2,55,56
 341 64 341 64 341 59 c 0,57,58
 341 52 341 52 335.5 46.5 c 128,-1,59
 330 41 330 41 323 41 c 0,60,61
 314 41 314 41 309 48 c 1,62,-1
 308 48 l 1,63,-1
 271 113 l 1,64,-1
 233 48 l 2,65,66
 228 41 228 41 219 41 c 0,67,68
 212 41 212 41 206.5 46.5 c 128,-1,69
 201 52 201 52 201 59 c 0,70,71
 201 64 201 64 205 70 c 2,72,-1
 236 124 l 1,73,-1
 236 240 l 1,74,-1
 319 157 l 1,75,76
 316 130 316 130 306 125 c 1,54,-1
399 235 m 0,77,78
 399 229 399 229 395 225 c 2,79,-1
 384 214 l 1,80,-1
 374 214 l 1,81,-1
 334 214 l 1,82,-1
 320 200 l 1,83,84
 321 195 321 195 321 184 c 1,85,-1
 249 256 l 1,86,-1
 291 298 l 1,87,-1
 317 343 l 1,88,-1
 330 321 l 2,89,90
 331 321 331 321 337 318 c 1,91,-1
 337 319 l 1,92,-1
 363 304 l 1,93,94
 374 299 374 299 374 286 c 2,95,-1
 374 265 l 1,96,-1
 394 245 l 1,97,98
 399 242 399 242 399 235 c 0,77,78
EndSplineSet
Validated: 1
EndChar

StartChar: uniF158
Encoding: 61784 61784 91
Width: 321
GlyphClass: 2
Flags: W
LayerCount: 2
Fore
SplineSet
148 302 m 128,-1,1
 191 302 191 302 221.5 271 c 128,-1,2
 252 240 252 240 252 196 c 0,3,4
 252 178 252 178 246 160 c 1,5,-1
 246 159 l 1,6,7
 245 158 245 158 245 157 c 0,8,9
 230 131 230 131 220 119 c 0,10,11
 220 118 220 118 218 116.5 c 128,-1,12
 216 115 216 115 216 114 c 0,13,14
 206 103 206 103 206 90 c 0,15,16
 207 54 207 54 205 45 c 0,17,18
 199 7 199 7 150 5 c 1,19,-1
 150 5 l 1,20,21
 143 5 143 5 138 9.5 c 128,-1,22
 133 14 133 14 133 21 c 0,23,24
 133 30 133 30 137 34 c 0,25,26
 142 39 142 39 149 39 c 0,27,28
 169 40 169 40 172 50 c 1,29,-1
 172 52 l 1,30,-1
 172 89 l 1,31,32
 171 113 171 113 190 137 c 1,33,-1
 194 141 l 1,34,35
 206 155 206 155 215 173 c 1,36,37
 218 183 218 183 218 196 c 0,38,39
 218 225 218 225 197.5 246.5 c 128,-1,40
 177 268 177 268 148 268 c 128,-1,41
 119 268 119 268 98 246.5 c 128,-1,42
 77 225 77 225 77 196 c 0,43,44
 77 189 77 189 72 184 c 128,-1,45
 67 179 67 179 60 179 c 128,-1,46
 53 179 53 179 48 184 c 128,-1,47
 43 189 43 189 43 196 c 0,48,49
 43 240 43 240 74 271 c 128,-1,0
 105 302 105 302 148 302 c 128,-1,1
172 194 m 0,50,51
 172 204 172 204 165 211 c 128,-1,52
 158 218 158 218 148 218 c 128,-1,53
 138 218 138 218 131 211 c 128,-1,54
 124 204 124 204 124 194 c 0,55,56
 124 188 124 188 119.5 183.5 c 128,-1,57
 115 179 115 179 109 179 c 0,58,59
 95 179 95 179 95 194 c 0,60,61
 95 216 95 216 110.5 231 c 128,-1,62
 126 246 126 246 148 246 c 128,-1,63
 170 246 170 246 185 231 c 128,-1,64
 200 216 200 216 200 194 c 0,65,66
 200 179 200 179 186 179 c 128,-1,67
 172 179 172 179 172 194 c 0,50,51
75 142 m 2,68,69
 86 153 86 153 97 142 c 0,70,71
 102 137 102 137 102 130 c 0,72,73
 102 124 102 124 97 119 c 2,74,-1
 27 48 l 2,75,76
 23 44 23 44 16 44 c 128,-1,77
 9 44 9 44 5 48 c 0,78,79
 0 53 0 53 0 60 c 0,80,81
 0 66 0 66 5 71 c 2,82,-1
 75 142 l 2,68,69
207 334 m 1,83,84
 236 334 236 334 256 314 c 128,-1,85
 276 294 276 294 276 266 c 2,86,-1
 276 259 l 2,87,88
 276 253 276 253 270 253 c 2,89,-1
 258 253 l 2,90,91
 252 253 252 253 252 259 c 2,92,-1
 252 266 l 2,93,94
 252 284 252 284 238.5 297 c 128,-1,95
 225 310 225 310 207 310 c 1,96,-1
 207 310 l 1,97,-1
 200 310 l 2,98,99
 195 310 195 310 195 316 c 2,100,-1
 195 327 l 2,101,102
 195 334 195 334 200 334 c 2,103,-1
 207 334 l 1,104,-1
 207 334 l 1,83,84
321 266 m 2,105,-1
 321 259 l 2,106,107
 321 253 321 253 315 253 c 2,108,-1
 304 253 l 2,109,110
 297 253 297 253 297 259 c 2,111,-1
 297 266 l 2,112,113
 297 303 297 303 270.5 329 c 128,-1,114
 244 355 244 355 207 355 c 1,115,-1
 207 355 l 1,116,-1
 200 355 l 2,117,118
 195 355 195 355 195 361 c 2,119,-1
 195 373 l 2,120,121
 195 379 195 379 200 379 c 2,122,-1
 207 379 l 1,123,-1
 207 379 l 1,124,125
 254 379 254 379 287.5 346 c 128,-1,126
 321 313 321 313 321 266 c 2,105,-1
EndSplineSet
Validated: 37
EndChar

StartChar: uniF159
Encoding: 61785 61785 92
Width: 409
GlyphClass: 2
Flags: W
LayerCount: 2
Fore
SplineSet
295 379 m 0,0,1
 342 379 342 379 375.5 345.5 c 128,-1,2
 409 312 409 312 409 265 c 0,3,4
 409 234 409 234 398.5 204.5 c 128,-1,5
 388 175 388 175 378 161.5 c 128,-1,6
 368 148 368 148 350 125 c 1,7,-1
 344 118 l 1,8,9
 319 87 319 87 212 7 c 0,10,11
 210 5 210 5 204 5 c 0,12,13
 199 5 199 5 197 7 c 0,14,15
 90 87 90 87 65 118 c 1,16,-1
 59 125 l 1,17,18
 41 148 41 148 31 161.5 c 128,-1,19
 21 175 21 175 10.5 204.5 c 128,-1,20
 0 234 0 234 0 265 c 0,21,22
 0 312 0 312 33.5 345.5 c 128,-1,23
 67 379 67 379 114 379 c 0,24,25
 171 379 171 379 204 335 c 1,26,27
 237 379 237 379 295 379 c 0,0,1
EndSplineSet
Validated: 1
EndChar

StartChar: uniF15A
Encoding: 61786 61786 93
Width: 353
GlyphClass: 2
Flags: W
LayerCount: 2
Fore
SplineSet
348 254 m 2,0,1
 353 251 353 251 353 244 c 2,2,-1
 353 11 l 2,3,4
 353 -2 353 -2 340 -2 c 2,5,-1
 244 -2 l 2,6,7
 232 -2 232 -2 232 11 c 2,8,-1
 232 154 l 1,9,-1
 121 154 l 1,10,-1
 121 11 l 2,11,12
 121 -2 121 -2 109 -2 c 2,13,-1
 13 -2 l 2,14,15
 0 -2 0 -2 0 11 c 2,16,-1
 0 244 l 2,17,18
 0 251 0 251 5 254 c 2,19,-1
 166 383 l 2,20,21
 174 389 174 389 182 383 c 2,22,-1
 348 254 l 2,0,1
EndSplineSet
Validated: 1
EndChar

StartChar: uniF15B
Encoding: 61787 61787 94
Width: 300
GlyphClass: 2
Flags: W
LayerCount: 2
Fore
SplineSet
0 362 m 1,0,-1
 300 362 l 1,1,-1
 273 56 l 1,2,-1
 150 22 l 1,3,-1
 27 56 l 1,4,-1
 0 362 l 1,0,-1
243 289 m 1,5,-1
 244 300 l 1,6,-1
 150 300 l 1,7,-1
 56 300 l 1,8,-1
 57 289 l 1,9,-1
 66 186 l 1,10,-1
 150 186 l 1,11,-1
 196 186 l 1,12,-1
 192 137 l 1,13,-1
 150 126 l 1,14,-1
 150 126 l 1,15,-1
 108 137 l 1,16,-1
 105 167 l 1,17,-1
 85 167 l 1,18,-1
 68 167 l 1,19,-1
 73 108 l 1,20,-1
 150 87 l 1,21,-1
 150 87 l 1,22,-1
 227 108 l 1,23,-1
 227 115 l 1,24,-1
 236 213 l 1,25,-1
 237 224 l 1,26,-1
 227 224 l 1,27,-1
 150 224 l 1,28,-1
 100 224 l 1,29,-1
 97 262 l 1,30,-1
 150 262 l 1,31,-1
 240 262 l 1,32,-1
 241 262 l 1,33,-1
 241 270 l 1,34,-1
 243 289 l 1,5,-1
EndSplineSet
Validated: 5
EndChar

StartChar: uniF15C
Encoding: 61788 61788 95
Width: 355
GlyphClass: 2
Flags: W
LayerCount: 2
Fore
SplineSet
337 370 m 2,0,1
 355 370 355 370 355 353 c 2,2,-1
 355 337 l 2,3,4
 355 320 355 320 337 320 c 2,5,-1
 17 320 l 2,6,7
 0 320 0 320 0 337 c 2,8,-1
 0 353 l 2,9,10
 0 370 0 370 17 370 c 2,11,-1
 337 370 l 2,0,1
337 64 m 2,12,13
 355 64 355 64 355 47 c 2,14,-1
 355 31 l 2,15,16
 355 14 355 14 337 14 c 2,17,-1
 17 14 l 2,18,19
 0 14 0 14 0 31 c 2,20,-1
 0 47 l 2,21,22
 0 64 0 64 17 64 c 2,23,-1
 337 64 l 2,12,13
355 149 m 2,24,-1
 355 133 l 2,25,26
 355 116 355 116 337 116 c 2,27,-1
 139 116 l 2,28,29
 121 116 121 116 121 133 c 2,30,-1
 121 149 l 2,31,32
 121 166 121 166 139 166 c 2,33,-1
 337 166 l 1,34,-1
 337 166 l 1,35,36
 355 166 355 166 355 149 c 2,24,-1
355 250 m 2,37,-1
 355 234 l 2,38,39
 355 217 355 217 337 217 c 2,40,-1
 139 217 l 2,41,42
 121 217 121 217 121 234 c 2,43,-1
 121 250 l 2,44,45
 121 258 121 258 126.5 263 c 128,-1,46
 132 268 132 268 139 268 c 2,47,-1
 337 268 l 1,48,-1
 337 268 l 1,49,50
 344 268 344 268 349.5 263 c 128,-1,51
 355 258 355 258 355 250 c 2,37,-1
0 192 m 0,52,53
 0 193 0 193 1 194 c 1,54,-1
 1 195 l 1,55,-1
 65 231 l 2,56,57
 66 232 66 232 67 232 c 0,58,59
 70 232 70 232 70 229 c 2,60,-1
 70 155 l 2,61,62
 70 152 70 152 67 152 c 0,63,64
 66 152 66 152 65 153 c 2,65,-1
 2 189 l 2,66,67
 0 189 0 189 0 192 c 0,52,53
EndSplineSet
Validated: 5
EndChar

StartChar: uniF15D
Encoding: 61789 61789 96
Width: 355
GlyphClass: 2
Flags: W
LayerCount: 2
Fore
SplineSet
337 370 m 2,0,1
 355 370 355 370 355 353 c 2,2,-1
 355 337 l 2,3,4
 355 320 355 320 337 320 c 2,5,-1
 17 320 l 2,6,7
 0 320 0 320 0 337 c 2,8,-1
 0 353 l 2,9,10
 0 370 0 370 17 370 c 2,11,-1
 337 370 l 2,0,1
337 64 m 2,12,13
 355 64 355 64 355 47 c 2,14,-1
 355 31 l 2,15,16
 355 14 355 14 337 14 c 2,17,-1
 17 14 l 2,18,19
 0 14 0 14 0 31 c 2,20,-1
 0 47 l 2,21,22
 0 64 0 64 17 64 c 2,23,-1
 337 64 l 2,12,13
355 149 m 2,24,-1
 355 133 l 2,25,26
 355 116 355 116 337 116 c 2,27,-1
 138 116 l 2,28,29
 121 116 121 116 121 133 c 2,30,-1
 121 149 l 2,31,32
 121 166 121 166 138 166 c 2,33,-1
 337 166 l 2,34,35
 355 166 355 166 355 149 c 2,24,-1
355 250 m 2,36,-1
 355 234 l 2,37,38
 355 217 355 217 337 217 c 2,39,-1
 138 217 l 2,40,41
 121 217 121 217 121 234 c 2,42,-1
 121 250 l 2,43,44
 121 268 121 268 138 268 c 2,45,-1
 337 268 l 2,46,47
 344 268 344 268 349.5 263 c 128,-1,48
 355 258 355 258 355 250 c 2,36,-1
3 152 m 0,49,50
 0 152 0 152 0 155 c 2,51,-1
 0 229 l 2,52,53
 0 232 0 232 3 232 c 0,54,55
 4 232 4 232 5 231 c 2,56,-1
 68 195 l 2,57,58
 70 195 70 195 70 192 c 0,59,60
 70 191 70 191 69 190 c 1,61,-1
 69 189 l 1,62,-1
 5 153 l 2,63,64
 4 152 4 152 3 152 c 0,49,50
EndSplineSet
Validated: 1
EndChar

StartChar: uniF15E
Encoding: 61790 61790 97
Width: 384
GlyphClass: 2
Flags: W
LayerCount: 2
Fore
SplineSet
192 384 m 128,-1,1
 272 384 272 384 328 328 c 128,-1,2
 384 272 384 272 384 192 c 128,-1,3
 384 112 384 112 328 56 c 128,-1,4
 272 0 272 0 192 0 c 128,-1,5
 112 0 112 0 56 56 c 128,-1,6
 0 112 0 112 0 192 c 128,-1,7
 0 272 0 272 56 328 c 128,-1,0
 112 384 112 384 192 384 c 128,-1,1
212 85 m 2,8,-1
 212 209 l 2,9,10
 212 216 212 216 205 216 c 2,11,-1
 179 216 l 2,12,13
 172 216 172 216 172 209 c 2,14,-1
 172 85 l 2,15,16
 172 79 172 79 179 79 c 2,17,-1
 205 79 l 2,18,19
 212 79 212 79 212 85 c 2,8,-1
192 244 m 128,-1,21
 202 244 202 244 208.5 250.5 c 128,-1,22
 215 257 215 257 215 267 c 128,-1,23
 215 277 215 277 208.5 283.5 c 128,-1,24
 202 290 202 290 192 290 c 128,-1,25
 182 290 182 290 175.5 283.5 c 128,-1,26
 169 277 169 277 169 267 c 128,-1,27
 169 257 169 257 175.5 250.5 c 128,-1,20
 182 244 182 244 192 244 c 128,-1,21
EndSplineSet
Validated: 1
EndChar

StartChar: uniF15F
Encoding: 61791 61791 98
Width: 108
GlyphClass: 2
Flags: W
LayerCount: 2
Fore
SplineSet
108 324 m 2,0,-1
 108 320 l 1,1,-1
 50 59 l 2,2,3
 48 47 48 47 37 47 c 2,4,-1
 12 47 l 1,5,6
 0 49 0 49 0 60 c 2,7,-1
 0 63 l 1,8,-1
 0 63 l 1,9,-1
 58 324 l 1,10,11
 58 337 58 337 71 337 c 2,12,-1
 95 337 l 2,13,14
 108 337 108 337 108 324 c 2,0,-1
EndSplineSet
Validated: 5
EndChar

StartChar: uniF160
Encoding: 61792 61792 99
Width: 445
GlyphClass: 2
Flags: W
LayerCount: 2
Fore
SplineSet
445 218 m 1,0,-1
 445 218 l 1,1,-1
 445 186 l 2,2,3
 445 181 445 181 443 179 c 128,-1,4
 441 177 441 177 436 177 c 2,5,-1
 409 177 l 1,6,-1
 408 177 l 1,7,-1
 408 116 l 1,8,-1
 408 77 l 2,9,10
 408 68 408 68 399 68 c 2,11,-1
 398 68 l 1,12,-1
 367 68 l 2,13,14
 357 68 357 68 357 77 c 2,15,-1
 357 98 l 1,16,-1
 357 177 l 1,17,-1
 332 177 l 1,18,-1
 332 151 l 1,19,-1
 332 112 l 2,20,21
 332 103 332 103 322 103 c 2,22,-1
 291 103 l 1,23,-1
 290 103 l 2,24,25
 281 103 281 103 281 112 c 2,26,-1
 281 128 l 1,27,-1
 281 151 l 1,28,-1
 281 177 l 1,29,-1
 236 177 l 1,30,31
 228 135 228 135 195.5 106.5 c 128,-1,32
 163 78 163 78 119 78 c 0,33,34
 70 78 70 78 35 113 c 128,-1,35
 0 148 0 148 0 197 c 128,-1,36
 0 246 0 246 35 281 c 128,-1,37
 70 316 70 316 119 316 c 0,38,39
 160 316 160 316 192 291 c 128,-1,40
 224 266 224 266 234 227 c 1,41,-1
 397 227 l 1,42,-1
 409 227 l 1,43,-1
 436 227 l 2,44,45
 440 227 440 227 443 224 c 0,46,47
 445 222 445 222 445 218 c 1,0,-1
119 128 m 128,-1,49
 148 128 148 128 167.5 148 c 128,-1,50
 187 168 187 168 187 196 c 128,-1,51
 187 224 187 224 167.5 244 c 128,-1,52
 148 264 148 264 119 264 c 128,-1,53
 90 264 90 264 70.5 244 c 128,-1,54
 51 224 51 224 51 196 c 128,-1,55
 51 168 51 168 70.5 148 c 128,-1,48
 90 128 90 128 119 128 c 128,-1,49
EndSplineSet
Validated: 5
EndChar

StartChar: uniF161
Encoding: 61793 61793 100
Width: 488
GlyphClass: 2
Flags: W
LayerCount: 2
Fore
SplineSet
60 101 m 2,0,1
 50 101 50 101 42 108.5 c 128,-1,2
 34 116 34 116 34 127 c 2,3,-1
 34 353 l 2,4,5
 34 363 34 363 41.5 370.5 c 128,-1,6
 49 378 49 378 60 378 c 2,7,-1
 428 378 l 2,8,9
 438 378 438 378 445.5 371 c 128,-1,10
 453 364 453 364 453 353 c 2,11,-1
 453 127 l 2,12,13
 453 116 453 116 445.5 108.5 c 128,-1,14
 438 101 438 101 428 101 c 2,15,-1
 60 101 l 2,0,1
85 327 m 1,16,-1
 85 152 l 1,17,-1
 403 152 l 1,18,-1
 403 327 l 1,19,-1
 85 327 l 1,16,-1
476 76 m 2,20,21
 480 76 480 76 484 72 c 128,-1,22
 488 68 488 68 488 64 c 2,23,-1
 488 36 l 2,24,25
 488 31 488 31 484 27 c 2,26,-1
 466 9 l 2,27,28
 463 6 463 6 458 6 c 2,29,-1
 28 6 l 2,30,31
 24 6 24 6 20 10 c 2,32,-1
 3 28 l 2,33,34
 0 31 0 31 0 36 c 2,35,-1
 0 64 l 2,36,37
 0 68 0 68 4 72 c 128,-1,38
 8 76 8 76 12 76 c 2,39,-1
 476 76 l 2,20,21
288 35 m 2,40,-1
 288 47 l 2,41,42
 288 49 288 49 286 49 c 2,43,-1
 202 49 l 2,44,45
 199 49 199 49 199 47 c 2,46,-1
 199 35 l 2,47,48
 199 32 199 32 202 32 c 2,49,-1
 286 32 l 2,50,51
 288 32 288 32 288 35 c 2,40,-1
EndSplineSet
Validated: 1
EndChar

StartChar: uniF162
Encoding: 61794 61794 101
Width: 381
GlyphClass: 2
Flags: W
LayerCount: 2
Fore
SplineSet
76 173 m 1,0,-1
 76 292 l 1,1,-1
 305 292 l 1,2,-1
 305 173 l 1,3,-1
 76 173 l 1,0,-1
82 92 m 1,4,-1
 82 148 l 1,5,-1
 139 148 l 1,6,-1
 139 92 l 1,7,-1
 82 92 l 1,4,-1
246 92 m 1,8,-1
 246 148 l 1,9,-1
 303 148 l 1,10,-1
 303 92 l 1,11,-1
 246 92 l 1,8,-1
164 92 m 1,12,-1
 164 148 l 1,13,-1
 221 148 l 1,14,-1
 221 92 l 1,15,-1
 164 92 l 1,12,-1
358 368 m 2,16,17
 368 368 368 368 374.5 361.5 c 128,-1,18
 381 355 381 355 381 345 c 2,19,-1
 381 38 l 1,20,21
 380 29 380 29 373.5 22.5 c 128,-1,22
 367 16 367 16 358 16 c 2,23,-1
 23 16 l 1,24,-1
 23 16 l 1,25,26
 14 16 14 16 7.5 22.5 c 128,-1,27
 1 29 1 29 0 38 c 1,28,-1
 0 345 l 2,29,30
 0 355 0 355 6.5 361.5 c 128,-1,31
 13 368 13 368 23 368 c 2,32,-1
 358 368 l 2,16,17
330 67 m 1,33,-1
 330 317 l 1,34,-1
 51 317 l 1,35,-1
 51 67 l 1,36,-1
 330 67 l 1,33,-1
EndSplineSet
Validated: 5
EndChar

StartChar: uniF163
Encoding: 61795 61795 102
Width: 426
GlyphClass: 2
Flags: W
LayerCount: 2
Fore
SplineSet
368 351 m 1,0,-1
 323 306 l 2,1,2
 318 301 318 301 313 306 c 2,3,-1
 302 317 l 2,4,5
 297 322 297 322 302 327 c 2,6,-1
 347 372 l 2,7,8
 352 378 352 378 358 372 c 1,9,-1
 358 372 l 1,10,-1
 368 362 l 2,11,12
 374 356 374 356 368 351 c 1,13,-1
 368 351 l 1,0,-1
206 349 m 2,14,15
 198 349 198 349 198 356 c 2,16,-1
 198 420 l 2,17,18
 198 428 198 428 206 428 c 2,19,-1
 220 428 l 2,20,21
 228 428 228 428 228 420 c 2,22,-1
 228 356 l 2,23,24
 228 349 228 349 220 349 c 2,25,-1
 206 349 l 2,14,15
426 243 m 2,26,-1
 426 228 l 2,27,28
 426 221 426 221 419 221 c 2,29,-1
 355 221 l 2,30,31
 348 221 348 221 348 228 c 2,32,-1
 348 243 l 2,33,34
 348 251 348 251 355 251 c 2,35,-1
 419 251 l 2,36,37
 426 251 426 251 426 243 c 2,26,-1
213 324 m 128,-1,39
 258 324 258 324 290 292 c 128,-1,40
 322 260 322 260 322 215 c 0,41,42
 322 184 322 184 304 156 c 0,43,44
 277 116 277 116 275 57 c 1,45,46
 272 52 272 52 268 52 c 2,47,-1
 267 52 l 1,48,-1
 159 52 l 1,49,-1
 158 52 l 2,50,51
 154 52 154 52 152 56 c 1,52,53
 151 111 151 111 124 152 c 1,54,55
 104 180 104 180 104 215 c 0,56,57
 104 260 104 260 136 292 c 128,-1,38
 168 324 168 324 213 324 c 128,-1,39
268 -12 m 2,58,59
 275 -12 275 -12 275 -19 c 2,60,-1
 275 -36 l 2,61,62
 275 -44 275 -44 268 -44 c 2,63,-1
 267 -44 l 1,64,-1
 159 -44 l 1,65,-1
 158 -44 l 2,66,67
 150 -44 150 -44 150 -36 c 2,68,-1
 150 -19 l 2,69,70
 150 -12 150 -12 158 -12 c 2,71,-1
 159 -12 l 1,72,-1
 267 -12 l 1,73,-1
 268 -12 l 2,58,59
268 37 m 2,74,75
 275 37 275 37 275 29 c 2,76,-1
 275 12 l 2,77,78
 275 4 275 4 268 4 c 1,79,-1
 267 5 l 1,80,-1
 267 4 l 1,81,-1
 159 4 l 1,82,-1
 159 5 l 1,83,-1
 158 4 l 1,84,85
 150 4 150 4 150 12 c 2,86,-1
 150 29 l 2,87,88
 150 37 150 37 158 37 c 2,89,-1
 159 37 l 1,90,-1
 267 37 l 1,91,-1
 268 37 l 2,74,75
71 245 m 2,92,93
 79 245 79 245 79 237 c 2,94,-1
 79 223 l 2,95,96
 79 215 79 215 71 215 c 2,97,-1
 7 215 l 2,98,99
 0 215 0 215 0 223 c 2,100,-1
 0 237 l 2,101,102
 0 245 0 245 7 245 c 2,103,-1
 71 245 l 2,92,93
60 354 m 2,104,105
 55 359 55 359 60 364 c 2,106,-1
 71 375 l 1,107,-1
 71 375 l 1,108,109
 76 380 76 380 82 375 c 2,110,-1
 127 329 l 2,111,112
 132 324 132 324 127 319 c 2,113,-1
 116 309 l 2,114,115
 110 304 110 304 106 308 c 2,116,-1
 60 354 l 2,104,105
EndSplineSet
Validated: 5
EndChar

StartChar: uniF164
Encoding: 61796 61796 103
Width: 333
GlyphClass: 2
Flags: W
LayerCount: 2
Fore
SplineSet
333 67 m 0,0,1
 333 54 333 54 320 54 c 1,2,-1
 320 54 l 1,3,-1
 320 54 l 1,4,-1
 294 54 l 1,5,-1
 294 55 l 1,6,7
 284 55 284 55 282 66 c 1,8,-1
 282 207 l 2,9,10
 282 220 282 220 294 220 c 2,11,-1
 319 220 l 1,12,-1
 320 220 l 2,13,14
 332 220 332 220 332 207 c 1,15,-1
 332 207 l 1,16,-1
 332 69 l 2,17,18
 332 68 332 68 332.5 68 c 128,-1,19
 333 68 333 68 333 67 c 0,0,1
256 46 m 1,20,-1
 256 45 l 1,21,-1
 256 45 l 1,22,23
 256 33 256 33 243 33 c 2,24,-1
 242 33 l 1,25,-1
 57 33 l 2,26,27
 53 33 53 33 52 34 c 2,28,-1
 2 84 l 2,29,30
 0 86 0 86 0 89 c 2,31,-1
 0 233 l 2,32,33
 0 246 0 246 13 246 c 2,34,-1
 83 246 l 1,35,-1
 83 304 l 1,36,-1
 83 305 l 1,37,-1
 83 322 l 1,38,-1
 83 322 l 1,39,40
 83 334 83 334 91.5 342.5 c 128,-1,41
 100 351 100 351 112 351 c 0,42,43
 130 351 130 351 138 336 c 2,44,-1
 189 249 l 2,45,46
 190 248 190 248 190 248 c 1,47,48
 190 246 190 246 191 246 c 2,49,-1
 242 246 l 1,50,-1
 243 246 l 2,51,52
 256 246 256 246 256 233 c 1,53,-1
 256 233 l 1,54,-1
 256 89 l 1,55,-1
 256 46 l 1,20,-1
15 89 m 1,56,-1
 16 88 l 1,57,-1
 15 89 l 1,56,-1
EndSplineSet
Validated: 5
EndChar

StartChar: uniF165
Encoding: 61797 61797 104
Width: 353
GlyphClass: 2
Flags: W
LayerCount: 2
Fore
SplineSet
323 339 m 128,-1,1
 352 310 352 310 353 269 c 128,-1,2
 354 228 354 228 327 198 c 1,3,-1
 275 146 l 2,4,5
 262 133 262 133 244 125 c 1,6,7
 237 108 237 108 226 97 c 2,8,-1
 175 45 l 2,9,10
 145 15 145 15 102.5 15 c 128,-1,11
 60 15 60 15 30 45 c 128,-1,12
 0 75 0 75 0 117.5 c 128,-1,13
 0 160 0 160 30 190 c 2,14,-1
 82 242 l 1,15,-1
 82 241 l 1,16,17
 94 253 94 253 109 259 c 1,18,19
 117 277 117 277 131 291 c 2,20,-1
 183 342 l 1,21,22
 213 369 213 369 253.5 368.5 c 128,-1,0
 294 368 294 368 323 339 c 128,-1,1
140 82 m 2,23,-1
 177 120 l 1,24,25
 151 126 151 126 131 146 c 0,26,27
 110 167 110 167 104 193 c 1,28,-1
 67 155 l 2,29,30
 52 140 52 140 52 118.5 c 128,-1,31
 52 97 52 97 67 82 c 128,-1,32
 82 67 82 67 103.5 67 c 128,-1,33
 125 67 125 67 140 82 c 2,23,-1
168 183 m 128,-1,35
 181 170 181 170 201 168 c 1,36,37
 199 188 199 188 186 201 c 128,-1,38
 173 214 173 214 153 216 c 1,39,34
 155 196 155 196 168 183 c 128,-1,35
290 232 m 1,40,41
 303 247 303 247 302 267.5 c 128,-1,42
 301 288 301 288 287 302 c 128,-1,43
 273 316 273 316 252.5 317 c 128,-1,44
 232 318 232 318 217 305 c 1,45,-1
 214 302 l 1,46,-1
 214 302 l 1,47,-1
 176 264 l 1,48,49
 202 258 202 258 222 238 c 0,50,51
 243 217 243 217 249 191 c 1,52,-1
 287 229 l 1,53,-1
 287 229 l 1,54,-1
 290 232 l 1,40,41
EndSplineSet
Validated: 33
EndChar

StartChar: uniF166
Encoding: 61798 61798 105
Width: 431
GlyphClass: 2
Flags: W
LayerCount: 2
Fore
SplineSet
414 345 m 2,0,1
 431 345 431 345 431 327 c 2,2,-1
 431 311 l 2,3,4
 431 294 431 294 414 294 c 2,5,-1
 94 294 l 2,6,7
 77 294 77 294 77 311 c 2,8,-1
 77 327 l 2,9,10
 77 345 77 345 94 345 c 2,11,-1
 414 345 l 2,0,1
414 217 m 2,12,13
 431 217 431 217 431 200 c 2,14,-1
 431 184 l 2,15,16
 431 167 431 167 414 167 c 2,17,-1
 94 167 l 2,18,19
 77 167 77 167 77 184 c 2,20,-1
 77 200 l 2,21,22
 77 217 77 217 94 217 c 2,23,-1
 414 217 l 2,12,13
414 90 m 2,24,25
 431 90 431 90 431 73 c 2,26,-1
 431 57 l 2,27,28
 431 39 431 39 414 39 c 2,29,-1
 94 39 l 2,30,31
 77 39 77 39 77 57 c 2,32,-1
 77 73 l 2,33,34
 77 90 77 90 94 90 c 2,35,-1
 414 90 l 2,24,25
0 319 m 0,36,37
 0 345 0 345 26 345 c 0,38,39
 51 345 51 345 51 319 c 0,40,41
 51 294 51 294 26 294 c 0,42,43
 0 294 0 294 0 319 c 0,36,37
0 197 m 0,44,45
 0 223 0 223 26 223 c 0,46,47
 51 223 51 223 51 197 c 0,48,49
 51 172 51 172 26 172 c 0,50,51
 0 172 0 172 0 197 c 0,44,45
0 65 m 0,52,53
 0 90 0 90 26 90 c 0,54,55
 51 90 51 90 51 65 c 0,56,57
 51 39 51 39 26 39 c 0,58,59
 0 39 0 39 0 65 c 0,52,53
EndSplineSet
Validated: 1
EndChar

StartChar: uniF167
Encoding: 61799 61799 106
Width: 423
GlyphClass: 2
Flags: W
LayerCount: 2
Fore
SplineSet
29 333 m 1,0,-1
 20 324 l 1,1,-1
 14 331 l 1,2,-1
 31 348 l 1,3,-1
 41 348 l 1,4,-1
 41 293 l 1,5,-1
 29 293 l 1,6,-1
 29 333 l 1,0,-1
21 210 m 0,7,8
 13 210 13 210 7 204 c 1,9,-1
 0 212 l 1,10,11
 8 221 8 221 21 221 c 0,12,13
 42 221 42 221 42 203 c 0,14,15
 42 191 42 191 20 175 c 1,16,-1
 42 175 l 1,17,-1
 42 165 l 1,18,-1
 1 165 l 1,19,-1
 1 174 l 1,20,21
 30 196 30 196 30 203 c 128,-1,22
 30 210 30 210 21 210 c 0,7,8
30 65 m 1,23,24
 43 63 43 63 43 52 c 0,25,26
 43 36 43 36 22 36 c 0,27,28
 7 36 7 36 0 45 c 1,29,-1
 6 53 l 1,30,31
 13 46 13 46 21 46 c 0,32,33
 32 46 32 46 32 53 c 128,-1,34
 32 60 32 60 21 60 c 2,35,-1
 14 60 l 1,36,-1
 14 70 l 1,37,-1
 21 70 l 2,38,39
 31 70 31 70 31 76 c 128,-1,40
 31 82 31 82 21 82 c 0,41,42
 12 82 12 82 7 77 c 1,43,-1
 1 84 l 1,44,45
 8 93 8 93 22 93 c 0,46,47
 42 93 42 93 42 78 c 0,48,49
 42 67 42 67 30 65 c 1,23,24
406 346 m 2,50,51
 423 346 423 346 423 329 c 2,52,-1
 423 313 l 2,53,54
 423 295 423 295 406 295 c 2,55,-1
 86 295 l 2,56,57
 69 295 69 295 69 313 c 2,58,-1
 69 329 l 2,59,60
 69 346 69 346 86 346 c 2,61,-1
 406 346 l 2,50,51
406 219 m 2,62,63
 423 219 423 219 423 201 c 2,64,-1
 423 185 l 2,65,66
 423 168 423 168 406 168 c 2,67,-1
 86 168 l 2,68,69
 69 168 69 168 69 185 c 2,70,-1
 69 201 l 2,71,72
 69 219 69 219 86 219 c 2,73,-1
 406 219 l 2,62,63
406 91 m 2,74,75
 423 91 423 91 423 74 c 2,76,-1
 423 58 l 2,77,78
 423 40 423 40 406 40 c 2,79,-1
 86 40 l 2,80,81
 69 40 69 40 69 58 c 2,82,-1
 69 74 l 2,83,84
 69 91 69 91 86 91 c 2,85,-1
 406 91 l 2,74,75
EndSplineSet
Validated: 1
EndChar

StartChar: uniF168
Encoding: 61800 61800 107
Width: 332
GlyphClass: 2
Flags: W
LayerCount: 2
Fore
SplineSet
321 103 m 2,0,1
 332 103 332 103 332 91 c 2,2,-1
 332 90 l 1,3,-1
 332 37 l 2,4,5
 332 26 332 26 321 26 c 2,6,-1
 139 26 l 2,7,8
 128 26 128 26 128 37 c 2,9,-1
 128 90 l 1,10,-1
 128 91 l 2,11,12
 128 103 128 103 139 103 c 1,13,-1
 139 103 l 1,14,-1
 321 103 l 2,0,1
65 103 m 2,15,16
 70 103 70 103 73.5 99.5 c 128,-1,17
 77 96 77 96 77 91 c 1,18,-1
 77 91 l 1,19,-1
 77 37 l 2,20,21
 77 26 77 26 65 26 c 2,22,-1
 12 26 l 1,23,-1
 12 26 l 1,24,25
 0 26 0 26 0 37 c 2,26,-1
 0 91 l 1,27,-1
 0 91 l 1,28,29
 0 96 0 96 4 99.5 c 128,-1,30
 8 103 8 103 12 103 c 1,31,-1
 12 103 l 1,32,-1
 65 103 l 2,15,16
321 231 m 2,33,34
 332 231 332 231 332 219 c 2,35,-1
 332 218 l 1,36,-1
 332 165 l 2,37,38
 332 154 332 154 321 154 c 2,39,-1
 139 154 l 2,40,41
 128 154 128 154 128 165 c 2,42,-1
 128 218 l 1,43,-1
 128 219 l 2,44,45
 128 231 128 231 139 231 c 1,46,-1
 139 231 l 1,47,-1
 321 231 l 2,33,34
65 231 m 2,48,49
 70 231 70 231 73.5 227.5 c 128,-1,50
 77 224 77 224 77 219 c 1,51,-1
 77 219 l 1,52,-1
 77 165 l 2,53,54
 77 154 77 154 65 154 c 2,55,-1
 12 154 l 1,56,-1
 12 154 l 1,57,58
 0 154 0 154 0 165 c 2,59,-1
 0 219 l 1,60,-1
 0 219 l 1,61,62
 0 224 0 224 4 227.5 c 128,-1,63
 8 231 8 231 12 231 c 1,64,-1
 12 231 l 1,65,-1
 65 231 l 2,48,49
128 293 m 2,66,-1
 128 346 l 1,67,-1
 128 347 l 2,68,69
 128 358 128 358 139 358 c 1,70,-1
 139 358 l 1,71,-1
 321 358 l 2,72,73
 332 358 332 358 332 347 c 2,74,-1
 332 346 l 1,75,-1
 332 293 l 2,76,77
 332 281 332 281 321 281 c 2,78,-1
 139 281 l 2,79,80
 128 281 128 281 128 293 c 2,66,-1
65 358 m 2,81,82
 77 358 77 358 77 347 c 1,83,-1
 77 347 l 1,84,-1
 77 293 l 2,85,86
 77 288 77 288 73.5 284.5 c 128,-1,87
 70 281 70 281 65 281 c 2,88,-1
 12 281 l 1,89,-1
 12 281 l 1,90,91
 8 281 8 281 4 284.5 c 128,-1,92
 0 288 0 288 0 293 c 2,93,-1
 0 347 l 1,94,-1
 0 347 l 1,95,96
 0 358 0 358 12 358 c 1,97,-1
 12 358 l 1,98,-1
 65 358 l 2,81,82
EndSplineSet
Validated: 5
EndChar

StartChar: uniF169
Encoding: 61801 61801 108
Width: 332
GlyphClass: 2
Flags: W
LayerCount: 2
Fore
SplineSet
0 293 m 2,0,-1
 0 346 l 1,1,-1
 0 347 l 2,2,3
 0 358 0 358 12 358 c 1,4,-1
 12 358 l 1,5,-1
 321 358 l 2,6,7
 332 358 332 358 332 347 c 2,8,-1
 332 293 l 2,9,10
 332 281 332 281 321 281 c 2,11,-1
 12 281 l 2,12,13
 8 281 8 281 4 284.5 c 128,-1,14
 0 288 0 288 0 293 c 2,0,-1
321 230 m 2,15,16
 332 230 332 230 332 219 c 2,17,-1
 332 165 l 2,18,19
 332 154 332 154 321 154 c 2,20,-1
 12 154 l 2,21,22
 0 154 0 154 0 165 c 2,23,-1
 0 218 l 1,24,-1
 0 219 l 2,25,26
 0 230 0 230 12 230 c 1,27,-1
 12 230 l 1,28,-1
 321 230 l 2,15,16
321 103 m 2,29,30
 332 103 332 103 332 91 c 2,31,-1
 332 37 l 2,32,33
 332 26 332 26 321 26 c 2,34,-1
 12 26 l 2,35,36
 0 26 0 26 0 37 c 2,37,-1
 0 90 l 1,38,-1
 0 91 l 2,39,40
 0 96 0 96 4 99.5 c 128,-1,41
 8 103 8 103 12 103 c 1,42,-1
 12 103 l 1,43,-1
 321 103 l 2,29,30
EndSplineSet
Validated: 5
EndChar

StartChar: uniF16A
Encoding: 61802 61802 109
Width: 356
GlyphClass: 2
Flags: W
LayerCount: 2
Fore
SplineSet
342 222 m 2,0,1
 347 222 347 222 351.5 217.5 c 128,-1,2
 356 213 356 213 356 208 c 2,3,-1
 356 11 l 2,4,5
 356 6 356 6 351.5 1.5 c 128,-1,6
 347 -3 347 -3 342 -3 c 2,7,-1
 13 -3 l 2,8,9
 8 -3 8 -3 4 1.5 c 128,-1,10
 0 6 0 6 0 11 c 2,11,-1
 0 208 l 2,12,13
 0 213 0 213 4 217.5 c 128,-1,14
 8 222 8 222 13 222 c 2,15,-1
 32 222 l 1,16,-1
 54 222 l 1,17,-1
 54 265 l 2,18,19
 54 315 54 315 89.5 351 c 128,-1,20
 125 387 125 387 175 387 c 128,-1,21
 225 387 225 387 261 351 c 128,-1,22
 297 315 297 315 297 265 c 2,23,-1
 297 222 l 1,24,-1
 323 222 l 1,25,-1
 342 222 l 2,0,1
126 265 m 2,26,-1
 126 222 l 1,27,-1
 225 222 l 1,28,-1
 225 265 l 1,29,-1
 225 266 l 1,30,-1
 225 266 l 1,31,32
 225 286 225 286 210 300.5 c 128,-1,33
 195 315 195 315 175 315 c 0,34,35
 154 315 154 315 140 300.5 c 128,-1,36
 126 286 126 286 126 265 c 2,26,-1
EndSplineSet
Validated: 5
EndChar

StartChar: uniF16B
Encoding: 61803 61803 110
Width: 346
GlyphClass: 2
Flags: W
LayerCount: 2
Fore
SplineSet
346 327 m 2,0,-1
 346 190 l 2,1,2
 346 186 346 186 343 184 c 0,3,4
 338 182 338 182 336 183 c 2,5,-1
 206 227 l 2,6,7
 201 229 201 229 201 233 c 0,8,9
 201 238 201 238 204 241 c 2,10,-1
 234 262 l 1,11,-1
 239 266 l 1,12,13
 209 289 209 289 173 289 c 0,14,15
 110 289 110 289 80 234 c 1,16,17
 72 222 72 222 62 229 c 1,18,-1
 20 253 l 1,19,20
 9 258 9 258 15 270 c 0,21,22
 39 313 39 313 81 338 c 128,-1,23
 123 363 123 363 173 363 c 0,24,25
 248 363 248 363 301 310 c 1,26,-1
 303 312 l 1,27,-1
 334 334 l 2,28,29
 336 336 336 336 342 334 c 0,30,31
 346 333 346 333 346 327 c 2,0,-1
326 131 m 2,32,33
 338 125 338 125 332 114 c 0,34,35
 308 71 308 71 265.5 46 c 128,-1,36
 223 21 223 21 173 21 c 0,37,38
 99 21 99 21 46 74 c 1,39,-1
 43 72 l 1,40,-1
 13 50 l 2,41,42
 11 48 11 48 5 50 c 0,43,44
 0 52 0 52 0 57 c 2,45,-1
 0 194 l 2,46,47
 0 198 0 198 3 200 c 0,48,49
 8 202 8 202 10 201 c 2,50,-1
 140 157 l 2,51,52
 146 155 146 155 146 151 c 0,53,54
 146 146 146 146 143 143 c 2,55,-1
 112 122 l 1,56,-1
 107 118 l 1,57,58
 137 95 137 95 173 95 c 0,59,60
 203 95 203 95 228 110 c 128,-1,61
 253 125 253 125 267 150 c 1,62,63
 275 162 275 162 285 155 c 2,64,-1
 326 131 l 2,32,33
EndSplineSet
Validated: 33
EndChar

StartChar: uniF16C
Encoding: 61804 61804 111
Width: 397
GlyphClass: 2
Flags: W
LayerCount: 2
Fore
SplineSet
233 395 m 128,-1,1
 301 395 301 395 349 347 c 128,-1,2
 397 299 397 299 397 231 c 128,-1,3
 397 163 397 163 349 115 c 128,-1,4
 301 67 301 67 233 67 c 0,5,6
 194 67 194 67 160 84 c 1,7,-1
 78 2 l 1,8,-1
 78 3 l 1,9,10
 64 -11 64 -11 45 -11 c 128,-1,11
 26 -11 26 -11 13 2 c 128,-1,12
 0 15 0 15 0 34 c 128,-1,13
 0 53 0 53 14 67 c 1,14,-1
 13 67 l 1,15,-1
 93 146 l 1,16,17
 69 186 69 186 69 231 c 0,18,19
 69 299 69 299 117 347 c 128,-1,0
 165 395 165 395 233 395 c 128,-1,1
234 132 m 128,-1,21
 277 132 277 132 307 161.5 c 128,-1,22
 337 191 337 191 337 234 c 128,-1,23
 337 277 337 277 307 306.5 c 128,-1,24
 277 336 277 336 234 336 c 128,-1,25
 191 336 191 336 161.5 306.5 c 128,-1,26
 132 277 132 277 132 234 c 128,-1,27
 132 191 132 191 161.5 161.5 c 128,-1,20
 191 132 191 132 234 132 c 128,-1,21
EndSplineSet
Validated: 1
EndChar

StartChar: uniF16D
Encoding: 61805 61805 112
Width: 394
GlyphClass: 2
Flags: W
LayerCount: 2
Fore
SplineSet
381 345 m 2,0,1
 394 345 394 345 394 332 c 2,2,-1
 394 308 l 2,3,4
 394 307 394 307 392 305 c 0,5,6
 392 304 392 304 390 303 c 128,-1,7
 388 302 388 302 387 302 c 2,8,-1
 199 192 l 2,9,10
 198 192 198 192 198 191.5 c 128,-1,11
 198 191 198 191 197 191 c 128,-1,12
 196 191 196 191 196 192 c 2,13,-1
 2 302 l 2,14,15
 0 304 0 304 0 305 c 2,16,-1
 0 332 l 2,17,18
 0 345 0 345 13 345 c 2,19,-1
 381 345 l 2,0,1
393 265 m 0,20,21
 394 264 394 264 394 263 c 2,22,-1
 394 86 l 2,23,24
 394 83 394 83 392 83 c 1,25,-1
 391 82 l 2,26,27
 390 82 390 82 389 83 c 2,28,-1
 282 198 l 1,29,-1
 282 201 l 2,30,31
 282 203 282 203 283 203 c 2,32,-1
 389 265 l 2,33,34
 391 267 391 267 393 265 c 0,20,21
253 182 m 2,35,-1
 380 45 l 2,36,37
 382 43 382 43 380 41 c 128,-1,38
 378 39 378 39 377 39 c 2,39,-1
 13 39 l 2,40,41
 11 39 11 39 7 41 c 0,42,43
 5 43 5 43 5 44 c 0,44,45
 5 46 5 46 6 47 c 2,46,-1
 148 178 l 2,47,48
 150 180 150 180 152 179 c 2,49,-1
 190 157 l 2,50,51
 197 153 197 153 206 158 c 2,52,-1
 248 183 l 2,53,54
 250 185 250 185 253 182 c 2,35,-1
117 194 m 2,55,-1
 5 91 l 2,56,57
 4 90 4 90 3 90 c 2,58,-1
 2 90 l 1,59,60
 0 92 0 92 0 93 c 2,61,-1
 0 260 l 2,62,63
 0 261 0 261 2 263 c 0,64,65
 4 264 4 264 5 263 c 2,66,-1
 116 199 l 1,67,-1
 118 197 l 1,68,69
 118 195 118 195 117 194 c 2,55,-1
EndSplineSet
Validated: 33
EndChar

StartChar: uniF16E
Encoding: 61806 61806 113
Width: 466
GlyphClass: 2
Flags: W
LayerCount: 2
Fore
SplineSet
49 347 m 128,-1,1
 49 389 49 389 91 389 c 0,2,3
 134 389 134 389 134 347 c 128,-1,4
 134 305 134 305 91 305 c 0,5,0
 49 305 49 305 49 347 c 128,-1,1
172 293 m 1,6,7
 181 291 181 291 184 287 c 0,8,9
 190 279 190 279 190 274 c 2,10,-1
 190 154 l 2,11,12
 190 147 190 147 184 141 c 0,13,14
 179 136 179 136 172 136 c 0,15,16
 164 136 164 136 159 141 c 128,-1,17
 154 146 154 146 154 154 c 2,18,-1
 154 236 l 1,19,-1
 154 237 l 2,20,21
 154 243 154 243 148 243 c 128,-1,22
 142 243 142 243 142 237 c 2,23,-1
 142 236 l 1,24,-1
 142 183 l 1,25,-1
 142 128 l 1,26,-1
 142 18 l 2,27,28
 142 9 142 9 136 3 c 128,-1,29
 130 -3 130 -3 122 -3 c 0,30,31
 113 -3 113 -3 107 3 c 128,-1,32
 101 9 101 9 101 18 c 2,33,-1
 101 128 l 2,34,35
 101 134 101 134 95 134 c 128,-1,36
 89 134 89 134 89 128 c 2,37,-1
 89 18 l 2,38,39
 89 9 89 9 83 3 c 128,-1,40
 77 -3 77 -3 68 -3 c 128,-1,41
 59 -3 59 -3 53 3 c 128,-1,42
 47 9 47 9 47 18 c 2,43,-1
 47 183 l 1,44,-1
 47 236 l 1,45,-1
 47 237 l 2,46,47
 47 243 47 243 42 243 c 0,48,49
 36 243 36 243 36 237 c 2,50,-1
 36 236 l 1,51,-1
 36 154 l 2,52,53
 36 146 36 146 31 141 c 128,-1,54
 26 136 26 136 18 136 c 128,-1,55
 10 136 10 136 5 141 c 128,-1,56
 0 146 0 146 0 154 c 2,57,-1
 0 274 l 2,58,59
 0 282 0 282 6 288 c 0,60,61
 11 293 11 293 20 293 c 2,62,-1
 172 293 l 1,6,7
305 347 m 0,63,64
 305 389 305 389 347 389 c 0,65,66
 390 389 390 389 390 347 c 0,67,68
 390 304 390 304 347 304 c 0,69,70
 305 304 305 304 305 347 c 0,63,64
466 171 m 1,71,-1
 466 168 l 2,72,73
 466 162 466 162 464 159 c 0,74,75
 461 155 461 155 457 152 c 0,76,77
 454 150 454 150 448 150 c 0,78,79
 435 150 435 150 431 161 c 1,80,-1
 410 239 l 2,81,82
 409 243 409 243 405 243 c 0,83,84
 399 243 399 243 399 238 c 2,85,-1
 399 236 l 1,86,-1
 432 112 l 2,87,88
 433 111 433 111 433 108 c 1,89,-1
 434 108 l 1,90,-1
 433 108 l 1,91,-1
 434 108 l 1,92,93
 434 98 434 98 424 98 c 2,94,-1
 399 98 l 1,95,-1
 399 16 l 2,96,97
 399 7 399 7 393 1 c 128,-1,98
 387 -5 387 -5 378 -5 c 128,-1,99
 369 -5 369 -5 363 1 c 128,-1,100
 357 7 357 7 357 16 c 2,101,-1
 357 98 l 1,102,-1
 345 98 l 1,103,-1
 345 16 l 2,104,105
 345 10 345 10 342 5 c 0,106,107
 338 -1 338 -1 335 -3 c 128,-1,108
 332 -5 332 -5 324 -5 c 0,109,110
 315 -5 315 -5 309 1 c 128,-1,111
 303 7 303 7 303 16 c 2,112,-1
 303 98 l 1,113,-1
 279 98 l 2,114,115
 269 98 269 98 269 108 c 1,116,-1
 269 108 l 1,117,118
 269 111 269 111 270 112 c 2,119,-1
 303 236 l 1,120,-1
 303 237 l 1,121,-1
 303 238 l 1,122,-1
 303 239 l 1,123,124
 302 243 302 243 298 243 c 0,125,126
 293 243 293 243 292 239 c 1,127,-1
 292 239 l 1,128,-1
 271 161 l 1,129,130
 267 150 267 150 254 150 c 0,131,132
 246 150 246 150 241 155 c 128,-1,133
 236 160 236 160 236 168 c 2,134,-1
 236 171 l 1,135,-1
 265 277 l 1,136,-1
 265 279 l 1,137,138
 270 293 270 293 284 293 c 2,139,-1
 418 293 l 1,140,-1
 418 293 l 1,141,142
 432 293 432 293 437 279 c 1,143,-1
 438 277 l 1,144,-1
 466 171 l 1,71,-1
EndSplineSet
Validated: 5
EndChar

StartChar: uniF16F
Encoding: 61807 61807 114
Width: 342
GlyphClass: 2
Flags: W
LayerCount: 2
Fore
SplineSet
342 354 m 2,0,-1
 342 248 l 2,1,2
 342 240 342 240 334 240 c 2,3,-1
 299 240 l 2,4,5
 291 240 291 240 291 248 c 2,6,-1
 291 276 l 1,7,-1
 245 230 l 1,8,9
 268 195 268 195 268 156 c 0,10,11
 268 100 268 100 229 61 c 128,-1,12
 190 22 190 22 134 22 c 128,-1,13
 78 22 78 22 39 61 c 128,-1,14
 0 100 0 100 0 156 c 128,-1,15
 0 212 0 212 39 251 c 128,-1,16
 78 290 78 290 134 290 c 0,17,18
 175 290 175 290 210 266 c 1,19,-1
 254 311 l 1,20,-1
 228 311 l 2,21,22
 220 311 220 311 220 319 c 1,23,-1
 220 319 l 1,24,-1
 220 354 l 2,25,26
 220 362 220 362 228 362 c 2,27,-1
 334 362 l 2,28,29
 342 362 342 362 342 354 c 2,0,-1
134 73 m 128,-1,31
 168 73 168 73 192.5 97.5 c 128,-1,32
 217 122 217 122 217 156 c 128,-1,33
 217 190 217 190 192.5 214.5 c 128,-1,34
 168 239 168 239 134 239 c 128,-1,35
 100 239 100 239 75.5 214.5 c 128,-1,36
 51 190 51 190 51 156 c 128,-1,37
 51 122 51 122 75.5 97.5 c 128,-1,30
 100 73 100 73 134 73 c 128,-1,31
EndSplineSet
Validated: 5
EndChar

StartChar: uniF170
Encoding: 61808 61808 115
Width: 190
GlyphClass: 2
Flags: W
LayerCount: 2
Fore
SplineSet
49 346 m 128,-1,1
 49 388 49 388 91 388 c 0,2,3
 134 388 134 388 134 346 c 128,-1,4
 134 304 134 304 91 304 c 0,5,0
 49 304 49 304 49 346 c 128,-1,1
172 292 m 1,6,7
 181 290 181 290 184 286 c 0,8,9
 190 278 190 278 190 272 c 2,10,-1
 190 152 l 2,11,12
 190 146 190 146 184 140 c 0,13,14
 179 135 179 135 172 135 c 0,15,16
 164 135 164 135 159 140 c 128,-1,17
 154 145 154 145 154 152 c 2,18,-1
 154 235 l 1,19,-1
 154 236 l 2,20,21
 154 242 154 242 148 242 c 128,-1,22
 142 242 142 242 142 236 c 2,23,-1
 142 235 l 1,24,-1
 142 182 l 1,25,-1
 142 127 l 1,26,-1
 142 17 l 2,27,28
 142 8 142 8 136 2 c 128,-1,29
 130 -4 130 -4 122 -4 c 0,30,31
 113 -4 113 -4 107 2 c 128,-1,32
 101 8 101 8 101 17 c 2,33,-1
 101 127 l 2,34,35
 101 133 101 133 95 133 c 128,-1,36
 89 133 89 133 89 127 c 2,37,-1
 89 17 l 2,38,39
 89 8 89 8 83 2 c 128,-1,40
 77 -4 77 -4 68 -4 c 128,-1,41
 59 -4 59 -4 53 2 c 128,-1,42
 47 8 47 8 47 17 c 2,43,-1
 47 182 l 1,44,-1
 47 235 l 1,45,-1
 47 236 l 2,46,47
 47 242 47 242 42 242 c 0,48,49
 36 242 36 242 36 236 c 2,50,-1
 36 235 l 1,51,-1
 36 152 l 2,52,53
 36 145 36 145 31 140 c 128,-1,54
 26 135 26 135 18 135 c 128,-1,55
 10 135 10 135 5 140 c 128,-1,56
 0 145 0 145 0 152 c 2,57,-1
 0 272 l 2,58,59
 0 278 0 278 3 282 c 0,60,61
 7 288 7 288 10 290 c 128,-1,62
 13 292 13 292 20 292 c 2,63,-1
 172 292 l 1,6,7
EndSplineSet
Validated: 1
EndChar

StartChar: uniF171
Encoding: 61809 61809 116
Width: 430
GlyphClass: 2
Flags: W
LayerCount: 2
Fore
SplineSet
430 407 m 2,0,-1
 430 -23 l 1,1,-1
 430 -24 l 1,2,-1
 430 -26 l 1,3,-1
 429 -26 l 1,4,5
 427 -37 427 -37 416 -37 c 2,6,-1
 14 -37 l 2,7,8
 0 -37 0 -37 0 -23 c 1,9,-1
 0 -23 l 1,10,-1
 0 260 l 1,11,-1
 161 421 l 1,12,-1
 161 421 l 1,13,-1
 161 421 l 1,14,-1
 416 421 l 1,15,-1
 416 421 l 1,16,-1
 416 421 l 1,17,18
 430 421 430 421 430 407 c 2,0,-1
305 370 m 1,19,-1
 286 337 l 1,20,-1
 379 245 l 1,21,-1
 379 370 l 1,22,-1
 305 370 l 1,19,-1
161 246 m 2,23,-1
 51 246 l 1,24,-1
 51 215 l 1,25,-1
 137 130 l 1,26,-1
 276 370 l 1,27,-1
 175 370 l 1,28,-1
 175 260 l 1,29,-1
 175 260 l 1,30,31
 175 246 175 246 161 246 c 2,23,-1
51 14 m 1,32,-1
 70 14 l 1,33,-1
 123 107 l 1,34,-1
 51 179 l 1,35,-1
 51 14 l 1,32,-1
99 14 m 1,36,-1
 379 14 l 1,37,-1
 379 208 l 1,38,-1
 273 314 l 1,39,-1
 99 14 l 1,36,-1
276 215 m 0,40,41
 302 215 302 215 320 196.5 c 128,-1,42
 338 178 338 178 338 153 c 0,43,44
 338 131 338 131 326 116 c 1,45,-1
 287 49 l 2,46,47
 287 48 287 48 285 46 c 1,48,-1
 285 46 l 1,49,50
 281 42 281 42 277 42 c 0,51,52
 270 42 270 42 267 46 c 1,53,-1
 267 47 l 1,54,-1
 267 48 l 1,55,-1
 227 117 l 1,56,57
 215 134 215 134 215 153 c 0,58,59
 215 179 215 179 233 197 c 128,-1,60
 251 215 251 215 276 215 c 0,40,41
276 122 m 128,-1,62
 289 122 289 122 297.5 130.5 c 128,-1,63
 306 139 306 139 306 152 c 128,-1,64
 306 165 306 165 297.5 174 c 128,-1,65
 289 183 289 183 276 183 c 128,-1,66
 263 183 263 183 254.5 174 c 128,-1,67
 246 165 246 165 246 152 c 128,-1,68
 246 139 246 139 254.5 130.5 c 128,-1,61
 263 122 263 122 276 122 c 128,-1,62
EndSplineSet
Validated: 5
EndChar

StartChar: uniF172
Encoding: 61810 61810 117
Width: 289
GlyphClass: 2
Flags: W
LayerCount: 2
Fore
SplineSet
144 395 m 128,-1,1
 204 395 204 395 246.5 352.5 c 128,-1,2
 289 310 289 310 289 250 c 0,3,4
 289 203 289 203 259 163 c 1,5,-1
 169 6 l 2,6,7
 168 5 168 5 167 3 c 128,-1,8
 166 1 166 1 165 0 c 2,9,-1
 164 -2 l 1,10,-1
 164 -1 l 1,11,12
 156 -11 156 -11 144 -11 c 0,13,14
 131 -11 131 -11 123 0 c 1,15,-1
 123 0 l 1,16,17
 122 0 122 0 122 1 c 128,-1,18
 122 2 122 2 121 3 c 2,19,-1
 29 164 l 1,20,21
 0 203 0 203 0 250 c 0,22,23
 0 310 0 310 42 352.5 c 128,-1,0
 84 395 84 395 144 395 c 128,-1,1
143 177 m 128,-1,25
 172 177 172 177 193 198 c 128,-1,26
 214 219 214 219 214 248 c 128,-1,27
 214 277 214 277 193 298 c 128,-1,28
 172 319 172 319 143 319 c 128,-1,29
 114 319 114 319 93 298 c 128,-1,30
 72 277 72 277 72 248 c 128,-1,31
 72 219 72 219 93 198 c 128,-1,24
 114 177 114 177 143 177 c 128,-1,25
EndSplineSet
Validated: 1
EndChar

StartChar: uniF173
Encoding: 61811 61811 118
Width: 385
GlyphClass: 2
Flags: W
LayerCount: 2
Fore
SplineSet
76 302 m 0,0,1
 90 302 90 302 90 288 c 2,2,-1
 90 161 l 1,3,4
 88 149 88 149 76 149 c 0,5,6
 45 149 45 149 22.5 171.5 c 128,-1,7
 0 194 0 194 0 226 c 128,-1,8
 0 258 0 258 22 280 c 128,-1,9
 44 302 44 302 76 302 c 0,0,1
385 364 m 1,10,-1
 385 364 l 1,11,-1
 385 340 l 1,12,-1
 385 104 l 1,13,-1
 385 81 l 1,14,-1
 385 79 l 2,15,16
 385 65 385 65 371 65 c 0,17,18
 366 65 366 65 362 69 c 1,19,-1
 228 146 l 1,20,-1
 130 146 l 2,21,22
 118 146 118 146 116 159 c 1,23,-1
 116 291 l 2,24,25
 116 305 116 305 130 305 c 2,26,-1
 240 305 l 1,27,-1
 363 375 l 1,28,29
 366 378 366 378 371 378 c 0,30,31
 385 378 385 378 385 364 c 1,10,-1
224 41 m 1,32,33
 229 31 229 31 221 24 c 1,34,-1
 221 23 l 1,35,-1
 195 9 l 1,36,-1
 193 7 l 1,37,38
 183 0 183 0 175 12 c 1,39,-1
 174 13 l 1,40,-1
 174 13 l 1,41,-1
 125 98 l 1,42,-1
 125 99 l 1,43,44
 124 99 124 99 124 100 c 0,45,46
 117 112 117 112 129 119 c 0,47,48
 133 121 133 121 135 121 c 2,49,-1
 172 121 l 2,50,51
 177 121 177 121 181 115 c 2,52,-1
 224 42 l 1,53,-1
 224 41 l 1,54,-1
 224 41 l 1,32,33
EndSplineSet
Validated: 37
EndChar

StartChar: uniF174
Encoding: 61812 61812 119
Width: 261
GlyphClass: 2
Flags: W
LayerCount: 2
Fore
SplineSet
261 196 m 2,0,1
 261 147 261 147 229 111 c 128,-1,2
 197 75 197 75 150 68 c 1,3,-1
 150 40 l 1,4,-1
 218 40 l 2,5,6
 237 40 237 40 237 21 c 0,7,8
 237 13 237 13 231.5 7 c 128,-1,9
 226 1 226 1 218 1 c 2,10,-1
 43 1 l 2,11,12
 35 1 35 1 29 7 c 128,-1,13
 23 13 23 13 23 21 c 128,-1,14
 23 29 23 29 29 34.5 c 128,-1,15
 35 40 35 40 43 40 c 2,16,-1
 111 40 l 1,17,-1
 111 68 l 1,18,19
 64 75 64 75 32 111 c 128,-1,20
 0 147 0 147 0 196 c 2,21,-1
 0 270 l 2,22,23
 0 289 0 289 19 289 c 0,24,25
 27 289 27 289 33 283.5 c 128,-1,26
 39 278 39 278 39 270 c 2,27,-1
 39 197 l 2,28,29
 39 159 39 159 65.5 132 c 128,-1,30
 92 105 92 105 130 105 c 128,-1,31
 168 105 168 105 195 132 c 128,-1,32
 222 159 222 159 222 197 c 2,33,-1
 222 270 l 2,34,35
 222 289 222 289 241 289 c 0,36,37
 249 289 249 289 255 283.5 c 128,-1,38
 261 278 261 278 261 270 c 2,39,-1
 261 197 l 1,40,-1
 261 197 l 1,41,-1
 261 196 l 2,0,1
65 197 m 2,42,-1
 65 199 l 1,43,-1
 65 318 l 1,44,45
 66 345 66 345 84.5 364 c 128,-1,46
 103 383 103 383 130 383 c 128,-1,47
 157 383 157 383 176 364 c 128,-1,48
 195 345 195 345 196 318 c 1,49,-1
 196 199 l 1,50,-1
 196 197 l 2,51,52
 196 170 196 170 176.5 151 c 128,-1,53
 157 132 157 132 130 132 c 128,-1,54
 103 132 103 132 84 151 c 128,-1,55
 65 170 65 170 65 197 c 2,42,-1
EndSplineSet
Validated: 1
EndChar

StartChar: uniF175
Encoding: 61813 61813 120
Width: 384
GlyphClass: 2
Flags: W
LayerCount: 2
Fore
SplineSet
281 219 m 2,0,1
 286 219 286 219 286 214 c 2,2,-1
 286 170 l 2,3,4
 286 165 286 165 281 165 c 2,5,-1
 103 165 l 2,6,7
 98 165 98 165 98 170 c 2,8,-1
 98 214 l 2,9,10
 98 219 98 219 103 219 c 2,11,-1
 281 219 l 2,0,1
192 333 m 128,-1,13
 134 333 134 333 92.5 291.5 c 128,-1,14
 51 250 51 250 51 192 c 128,-1,15
 51 134 51 134 92.5 92.5 c 128,-1,16
 134 51 134 51 192 51 c 128,-1,17
 250 51 250 51 291.5 92.5 c 128,-1,18
 333 134 333 134 333 192 c 128,-1,19
 333 250 333 250 291.5 291.5 c 128,-1,12
 250 333 250 333 192 333 c 128,-1,13
192 384 m 128,-1,21
 272 384 272 384 328 328 c 128,-1,22
 384 272 384 272 384 192 c 128,-1,23
 384 112 384 112 328 56 c 128,-1,24
 272 0 272 0 192 0 c 128,-1,25
 112 0 112 0 56 56 c 128,-1,26
 0 112 0 112 0 192 c 128,-1,27
 0 272 0 272 56 328 c 128,-1,20
 112 384 112 384 192 384 c 128,-1,21
EndSplineSet
Validated: 1
EndChar

StartChar: uniF176
Encoding: 61814 61814 121
Width: 414
GlyphClass: 2
Flags: W
LayerCount: 2
Fore
SplineSet
404 251 m 2,0,1
 414 251 414 251 414 240 c 2,2,-1
 414 144 l 2,3,4
 414 133 414 133 404 133 c 2,5,-1
 10 133 l 2,6,7
 0 133 0 133 0 144 c 2,8,-1
 0 240 l 2,9,10
 0 251 0 251 10 251 c 2,11,-1
 404 251 l 2,0,1
EndSplineSet
Validated: 1
EndChar

StartChar: uniF177
Encoding: 61815 61815 122
Width: 224
GlyphClass: 2
Flags: W
LayerCount: 2
Fore
SplineSet
211 295 m 2,0,1
 224 295 224 295 224 282 c 2,2,-1
 224 -25 l 2,3,4
 224 -38 224 -38 211 -38 c 2,5,-1
 12 -38 l 2,6,7
 0 -38 0 -38 0 -25 c 2,8,-1
 0 282 l 2,9,10
 0 295 0 295 12 295 c 2,11,-1
 211 295 l 2,0,1
112 -24 m 0,12,13
 125 -24 125 -24 125 -12 c 0,14,15
 125 1 125 1 112 1 c 0,16,17
 100 1 100 1 100 -12 c 0,18,19
 100 -24 100 -24 112 -24 c 0,12,13
173 13 m 1,20,-1
 173 244 l 1,21,-1
 51 244 l 1,22,-1
 51 13 l 1,23,-1
 173 13 l 1,20,-1
212 368 m 1,24,-1
 212 367 l 1,25,-1
 212 367 l 1,26,-1
 203 358 l 1,27,-1
 203 358 l 1,28,-1
 202 358 l 1,29,30
 197 353 197 353 192 357 c 1,31,-1
 192 358 l 1,32,-1
 192 358 l 1,33,-1
 187 363 l 2,34,35
 156 394 156 394 112 393.5 c 128,-1,36
 68 393 68 393 37 362 c 1,37,-1
 37 362 l 1,38,-1
 31 357 l 2,39,40
 26 354 26 354 22 357 c 2,41,-1
 12 366 l 2,42,43
 7 371 7 371 11 376 c 1,44,-1
 11 377 l 1,45,-1
 12 377 l 1,46,-1
 12 377 l 1,47,-1
 17 382 l 1,48,-1
 17 382 l 1,49,50
 56 421 56 421 112 421.5 c 128,-1,51
 168 422 168 422 207 383 c 1,52,-1
 207 382 l 1,53,-1
 207 382 l 1,54,-1
 212 377 l 1,55,56
 215 372 215 372 212 368 c 1,24,-1
174 339 m 2,57,58
 177 334 177 334 174 330 c 2,59,-1
 165 320 l 1,60,-1
 165 320 l 1,61,-1
 165 320 l 1,62,63
 160 315 160 315 154 319 c 1,64,-1
 154 320 l 1,65,-1
 154 320 l 1,66,-1
 149 325 l 2,67,68
 133 340 133 340 111.5 340 c 128,-1,69
 90 340 90 340 75 325 c 1,70,-1
 75 324 l 1,71,-1
 69 319 l 2,72,73
 64 316 64 316 60 319 c 2,74,-1
 50 328 l 1,75,-1
 50 329 l 1,76,77
 45 334 45 334 49 339 c 1,78,-1
 55 344 l 1,79,-1
 55 345 l 1,80,81
 78 368 78 368 111.5 368 c 128,-1,82
 145 368 145 368 169 345 c 1,83,-1
 174 339 l 2,57,58
EndSplineSet
Validated: 37
EndChar

StartChar: uniF178
Encoding: 61816 61816 123
Width: 224
GlyphClass: 2
Flags: W
LayerCount: 2
Fore
SplineSet
211 358 m 2,0,1
 224 358 224 358 224 346 c 2,2,-1
 224 38 l 2,3,4
 224 26 224 26 211 26 c 2,5,-1
 12 26 l 2,6,7
 0 26 0 26 0 38 c 2,8,-1
 0 346 l 2,9,10
 0 358 0 358 12 358 c 2,11,-1
 211 358 l 2,0,1
112 39 m 0,12,13
 125 39 125 39 125 51 c 0,14,15
 125 64 125 64 112 64 c 0,16,17
 100 64 100 64 100 51 c 0,18,19
 100 39 100 39 112 39 c 0,12,13
173 77 m 1,20,-1
 173 307 l 1,21,-1
 51 307 l 1,22,-1
 51 77 l 1,23,-1
 173 77 l 1,20,-1
EndSplineSet
Validated: 1
EndChar

StartChar: uniF179
Encoding: 61817 61817 124
Width: 471
GlyphClass: 2
Flags: W
LayerCount: 2
Fore
SplineSet
442 381 m 2,0,1
 454 381 454 381 462.5 373 c 128,-1,2
 471 365 471 365 471 353 c 2,3,-1
 471 101 l 2,4,5
 471 89 471 89 462.5 80.5 c 128,-1,6
 454 72 454 72 442 72 c 2,7,-1
 286 72 l 1,8,-1
 286 28 l 1,9,-1
 330 28 l 2,10,11
 339 28 339 28 339 20 c 2,12,-1
 339 11 l 2,13,14
 339 3 339 3 330 3 c 2,15,-1
 136 3 l 2,16,17
 128 3 128 3 128 11 c 2,18,-1
 128 20 l 2,19,20
 128 28 128 28 136 28 c 2,21,-1
 184 28 l 1,22,-1
 184 72 l 1,23,-1
 29 72 l 2,24,25
 17 72 17 72 8.5 80.5 c 128,-1,26
 0 89 0 89 0 101 c 2,27,-1
 0 353 l 2,28,29
 0 365 0 365 8.5 373 c 128,-1,30
 17 381 17 381 29 381 c 2,31,-1
 442 381 l 2,0,1
51 123 m 1,32,-1
 419 123 l 1,33,-1
 419 331 l 1,34,-1
 51 331 l 1,35,-1
 51 123 l 1,32,-1
EndSplineSet
Validated: 1
EndChar

StartChar: uniF17A
Encoding: 61818 61818 125
Width: 467
GlyphClass: 2
Flags: W
LayerCount: 2
Fore
SplineSet
465 48 m 1,0,1
 467 44 467 44 467 42 c 0,2,3
 467 30 467 30 455 28 c 1,4,-1
 199 28 l 1,5,-1
 96 28 l 1,6,-1
 9 28 l 1,7,-1
 9 29 l 1,8,9
 8 29 8 29 8 28.5 c 128,-1,10
 8 28 8 28 7 28 c 0,11,12
 0 28 0 28 0 35 c 0,13,14
 0 39 0 39 1 40 c 2,15,-1
 9 53 l 1,16,-1
 9 54 l 1,17,-1
 10 54 l 1,18,-1
 91 194 l 2,19,20
 94 201 94 201 102 201 c 128,-1,21
 110 201 110 201 113 194 c 2,22,-1
 140 146 l 1,23,-1
 254 342 l 2,24,25
 261 356 261 356 275 356 c 0,26,27
 288 356 288 356 295 343 c 2,28,-1
 466 48 l 1,29,-1
 465 48 l 1,0,1
EndSplineSet
Validated: 1
EndChar

StartChar: uniF17B
Encoding: 61819 61819 126
Width: 382
GlyphClass: 2
Flags: W
LayerCount: 2
Fore
SplineSet
366 378 m 2,0,1
 382 378 382 378 382 362 c 2,2,-1
 382 109 l 2,3,4
 382 86 382 86 362 69.5 c 128,-1,5
 342 53 342 53 313 53 c 128,-1,6
 284 53 284 53 264 69.5 c 128,-1,7
 244 86 244 86 244 109 c 128,-1,8
 244 132 244 132 264 148.5 c 128,-1,9
 284 165 284 165 313 165 c 0,10,11
 319 165 319 165 331 163 c 1,12,-1
 331 298 l 1,13,-1
 138 298 l 1,14,-1
 138 62 l 2,15,16
 138 39 138 39 118 22.5 c 128,-1,17
 98 6 98 6 69 6 c 128,-1,18
 40 6 40 6 20 22.5 c 128,-1,19
 0 39 0 39 0 62 c 128,-1,20
 0 85 0 85 20 101.5 c 128,-1,21
 40 118 40 118 69 118 c 0,22,23
 75 118 75 118 87 116 c 1,24,-1
 87 362 l 2,25,26
 87 369 87 369 92 373.5 c 128,-1,27
 97 378 97 378 104 378 c 2,28,-1
 366 378 l 2,0,1
EndSplineSet
Validated: 1
EndChar

StartChar: uniF17C
Encoding: 61820 61820 127
Width: 397
GlyphClass: 2
Flags: W
LayerCount: 2
Fore
SplineSet
397 52 m 2,0,1
 397 39 397 39 384 39 c 1,2,-1
 384 38 l 1,3,-1
 359 38 l 2,4,5
 346 38 346 38 346 51 c 2,6,-1
 346 52 l 1,7,-1
 346 172 l 1,8,-1
 176 73 l 2,9,10
 174 71 174 71 169 71 c 0,11,12
 161 71 161 71 161 79 c 2,13,-1
 161 157 l 1,14,-1
 15 73 l 2,15,16
 13 71 13 71 9 71 c 0,17,18
 0 71 0 71 0 79 c 2,19,-1
 0 305 l 2,20,21
 0 313 0 313 9 313 c 0,22,23
 13 313 13 313 15 311 c 2,24,-1
 161 227 l 1,25,-1
 161 305 l 2,26,27
 161 313 161 313 169 313 c 0,28,29
 174 313 174 313 176 311 c 2,30,-1
 346 212 l 1,31,-1
 346 331 l 1,32,-1
 346 333 l 2,33,34
 346 346 346 346 359 346 c 1,35,-1
 360 345 l 1,36,-1
 384 345 l 2,37,38
 395 345 395 345 397 334 c 1,39,-1
 397 332 l 1,40,-1
 397 332 l 1,41,-1
 397 52 l 2,0,1
EndSplineSet
Validated: 1
EndChar

StartChar: uniF17D
Encoding: 61821 61821 128
Width: 384
GlyphClass: 2
Flags: W
LayerCount: 2
Fore
SplineSet
192 384 m 128,-1,1
 272 384 272 384 328 328 c 128,-1,2
 384 272 384 272 384 192 c 128,-1,3
 384 112 384 112 328 56 c 128,-1,4
 272 0 272 0 192 0 c 128,-1,5
 112 0 112 0 56 56 c 128,-1,6
 0 112 0 112 0 192 c 128,-1,7
 0 272 0 272 56 328 c 128,-1,0
 112 384 112 384 192 384 c 128,-1,1
192 51 m 0,8,9
 242 51 242 51 282 84 c 1,10,-1
 258 108 l 1,11,12
 255 108 255 108 252 111 c 1,13,-1
 248 118 l 1,14,-1
 227 139 l 1,15,-1
 211 111 l 1,16,-1
 210 111 l 1,17,18
 206 107 206 107 203 107 c 0,19,20
 193 107 193 107 193 117 c 0,21,22
 193 119 193 119 195 123 c 2,23,-1
 208 146 l 1,24,-1
 187 146 l 1,25,-1
 164 146 l 1,26,-1
 177 123 l 1,27,-1
 180 117 l 1,28,29
 180 107 180 107 170 107 c 0,30,31
 166 107 166 107 162 111 c 1,32,-1
 141 147 l 1,33,-1
 120 111 l 1,34,35
 116 107 116 107 112 107 c 0,36,37
 102 107 102 107 102 117 c 1,38,-1
 105 123 l 1,39,-1
 122 154 l 1,40,41
 115 161 115 161 115 185 c 0,42,43
 115 194 115 194 117 204 c 1,44,-1
 85 222 l 2,45,46
 82 224 82 224 82 228 c 0,47,48
 82 235 82 235 89 235 c 0,49,50
 92 235 92 235 93 234 c 2,51,-1
 124 216 l 1,52,-1
 124 217 l 1,53,-1
 149 217 l 1,54,-1
 84 282 l 1,55,56
 51 242 51 242 51 192 c 0,57,58
 51 134 51 134 92.5 92.5 c 128,-1,59
 134 51 134 51 192 51 c 0,8,9
300 102 m 1,60,61
 333 142 333 142 333 192 c 0,62,63
 333 250 333 250 291.5 291.5 c 128,-1,64
 250 333 250 333 192 333 c 0,65,66
 142 333 142 333 102 300 c 1,67,-1
 185 217 l 1,68,-1
 211 217 l 1,69,-1
 241 247 l 1,70,-1
 240 247 l 1,71,-1
 257 277 l 1,72,-1
 267 260 l 1,73,-1
 268 260 l 1,74,-1
 282 252 l 2,75,76
 288 249 288 249 288 242 c 2,77,-1
 288 231 l 1,78,-1
 299 220 l 2,79,80
 302 218 302 218 302 214 c 0,81,82
 302 211 302 211 300 209 c 2,83,-1
 294 203 l 1,84,-1
 288 203 l 1,85,-1
 266 203 l 1,86,-1
 258 195 l 2,87,88
 258 194 258 194 258.5 190.5 c 128,-1,89
 259 187 259 187 259 185 c 0,90,91
 259 158 259 158 250 153 c 1,92,-1
 253 149 l 1,93,-1
 300 102 l 1,60,61
EndSplineSet
Validated: 1
EndChar

StartChar: uniF17E
Encoding: 61822 61822 129
Width: 384
GlyphClass: 2
Flags: W
LayerCount: 2
Fore
SplineSet
272 213 m 2,0,1
 277 213 277 213 277 207 c 2,2,-1
 277 176 l 2,3,4
 277 171 277 171 272 171 c 1,5,-1
 272 171 l 1,6,-1
 268 171 l 2,7,8
 262 171 262 171 262 176 c 2,9,-1
 262 177 l 1,10,-1
 262 177 l 1,11,-1
 262 207 l 2,12,13
 262 213 262 213 268 213 c 2,14,-1
 272 213 l 2,0,1
293 213 m 2,15,16
 299 213 299 213 299 207 c 2,17,-1
 299 177 l 1,18,-1
 299 176 l 2,19,20
 299 171 299 171 293 171 c 1,21,-1
 293 171 l 1,22,-1
 290 171 l 2,23,24
 284 171 284 171 284 176 c 2,25,-1
 284 207 l 2,26,27
 284 213 284 213 290 213 c 2,28,-1
 293 213 l 2,15,16
192 384 m 128,-1,30
 272 384 272 384 328 328 c 128,-1,31
 384 272 384 272 384 192 c 128,-1,32
 384 112 384 112 328 56 c 128,-1,33
 272 0 272 0 192 0 c 128,-1,34
 112 0 112 0 56 56 c 128,-1,35
 0 112 0 112 0 192 c 128,-1,36
 0 272 0 272 56 328 c 128,-1,29
 112 384 112 384 192 384 c 128,-1,30
192 51 m 0,37,38
 242 51 242 51 282 84 c 1,39,-1
 195 171 l 1,40,-1
 91 171 l 2,41,42
 85 171 85 171 85 177 c 2,43,-1
 85 207 l 1,44,-1
 85 207 l 1,45,46
 85 213 85 213 91 213 c 2,47,-1
 153 213 l 1,48,-1
 84 282 l 1,49,50
 51 242 51 242 51 192 c 0,51,52
 51 134 51 134 92.5 92.5 c 128,-1,53
 134 51 134 51 192 51 c 0,37,38
300 102 m 1,54,55
 333 142 333 142 333 192 c 0,56,57
 333 250 333 250 291.5 291.5 c 128,-1,58
 250 333 250 333 192 333 c 0,59,60
 142 333 142 333 102 300 c 1,61,-1
 189 213 l 1,62,-1
 249 213 l 2,63,64
 255 213 255 213 255 207 c 2,65,-1
 255 177 l 2,66,67
 255 171 255 171 249 171 c 2,68,-1
 231 171 l 1,69,-1
 300 102 l 1,54,55
EndSplineSet
Validated: 5
EndChar

StartChar: uniF17F
Encoding: 61823 61823 130
Width: 360
GlyphClass: 2
Flags: W
LayerCount: 2
Fore
SplineSet
301 46 m 2,0,1
 310 46 310 46 310 37 c 2,2,-1
 310 -8 l 1,3,-1
 310 -21 l 2,4,5
 310 -29 310 -29 301 -29 c 2,6,-1
 293 -29 l 1,7,-1
 17 -29 l 1,8,-1
 9 -29 l 2,9,10
 0 -29 0 -29 0 -21 c 2,11,-1
 0 -8 l 1,12,-1
 0 263 l 1,13,-1
 0 268 l 1,14,-1
 0 281 l 1,15,-1
 133 413 l 1,16,-1
 142 413 l 1,17,-1
 289 413 l 1,18,-1
 301 413 l 2,19,20
 310 413 310 413 310 405 c 2,21,-1
 310 384 l 1,22,-1
 310 257 l 1,23,-1
 310 257 l 1,24,-1
 310 257 l 1,25,26
 310 248 310 248 301 248 c 2,27,-1
 268 248 l 2,28,29
 259 248 259 248 259 257 c 2,30,-1
 259 362 l 1,31,-1
 151 362 l 1,32,-1
 151 272 l 2,33,34
 151 263 151 263 142 263 c 2,35,-1
 51 263 l 1,36,-1
 51 22 l 1,37,-1
 259 22 l 1,38,-1
 259 37 l 2,39,40
 259 46 259 46 268 46 c 2,41,-1
 301 46 l 2,0,1
351 174 m 2,42,43
 360 174 360 174 360 165 c 2,44,-1
 360 129 l 2,45,46
 360 121 360 121 351 121 c 2,47,-1
 311 121 l 1,48,-1
 311 81 l 2,49,50
 311 72 311 72 302 72 c 2,51,-1
 267 72 l 2,52,53
 258 72 258 72 258 81 c 2,54,-1
 258 121 l 1,55,-1
 218 121 l 2,56,57
 209 121 209 121 209 129 c 2,58,-1
 209 165 l 2,59,60
 209 174 209 174 218 174 c 2,61,-1
 258 174 l 1,62,-1
 258 214 l 2,63,64
 258 222 258 222 267 222 c 2,65,-1
 302 222 l 2,66,67
 311 222 311 222 311 214 c 2,68,-1
 311 174 l 1,69,-1
 351 174 l 2,42,43
EndSplineSet
Validated: 5
EndChar

StartChar: uniF180
Encoding: 61824 61824 131
Width: 361
GlyphClass: 2
Flags: W
LayerCount: 2
Fore
SplineSet
310 410 m 1,0,-1
 310 18 l 1,1,-1
 310 5 l 2,2,3
 310 -4 310 -4 301 -4 c 2,4,-1
 293 -4 l 1,5,-1
 17 -4 l 1,6,-1
 9 -4 l 2,7,8
 0 -4 0 -4 0 5 c 2,9,-1
 0 18 l 1,10,-1
 0 289 l 1,11,-1
 0 294 l 1,12,-1
 0 306 l 1,13,-1
 133 439 l 1,14,-1
 142 439 l 1,15,-1
 289 439 l 1,16,-1
 301 439 l 2,17,18
 310 439 310 439 310 430 c 2,19,-1
 310 410 l 1,0,-1
51 47 m 1,20,-1
 259 47 l 1,21,-1
 259 388 l 1,22,-1
 151 388 l 1,23,-1
 151 297 l 2,24,25
 151 289 151 289 142 289 c 2,26,-1
 51 289 l 1,27,-1
 51 47 l 1,20,-1
354 321 m 2,28,29
 361 321 361 321 361 313 c 2,30,-1
 361 -47 l 2,31,32
 361 -55 361 -55 354 -55 c 2,33,-1
 82 -55 l 1,34,-1
 82 -55 l 1,35,36
 75 -55 75 -55 75 -47 c 2,37,-1
 75 -30 l 1,38,-1
 328 -30 l 2,39,40
 336 -30 336 -30 336 -22 c 2,41,-1
 336 321 l 1,42,-1
 354 321 l 2,28,29
EndSplineSet
Validated: 5
EndChar

StartChar: uniF181
Encoding: 61825 61825 132
Width: 310
GlyphClass: 2
Flags: W
LayerCount: 2
Fore
SplineSet
106 119 m 0,0,1
 94 119 94 119 94 108 c 0,2,3
 94 96 94 96 106 96 c 0,4,5
 113 96 113 96 115 103 c 1,6,-1
 127 97 l 1,7,8
 120 83 120 83 106 83 c 0,9,10
 95 83 95 83 87.5 90 c 128,-1,11
 80 97 80 97 80 108 c 0,12,13
 80 132 80 132 106 132 c 0,14,15
 121 132 121 132 127 118 c 1,16,-1
 115 113 l 1,17,18
 114 119 114 119 106 119 c 0,0,1
148 118 m 1,19,-1
 161 114 l 2,20,21
 174 111 174 111 174 100 c 0,22,23
 174 83 174 83 154 83 c 0,24,25
 140 83 140 83 132 91 c 1,26,-1
 139 101 l 1,27,28
 147 95 147 95 154 95 c 0,29,30
 160 95 160 95 160 98 c 0,31,32
 160 99 160 99 146.5 102 c 128,-1,33
 133 105 133 105 133 116 c 0,34,35
 133 132 133 132 153 132 c 0,36,37
 164 132 164 132 173 125 c 1,38,-1
 165 115 l 1,39,40
 158 120 158 120 151 120 c 0,41,42
 148 120 148 120 148 118 c 1,19,-1
204 99 m 1,43,-1
 214 131 l 1,44,-1
 230 131 l 1,45,-1
 213 84 l 1,46,-1
 195 84 l 1,47,-1
 177 131 l 1,48,-1
 193 131 l 1,49,-1
 204 99 l 1,43,-1
310 384 m 1,50,-1
 310 -8 l 1,51,-1
 310 -21 l 2,52,53
 310 -29 310 -29 301 -29 c 2,54,-1
 293 -29 l 1,55,-1
 17 -29 l 1,56,-1
 9 -29 l 2,57,58
 0 -29 0 -29 0 -21 c 2,59,-1
 0 -8 l 1,60,-1
 0 263 l 1,61,-1
 0 268 l 1,62,-1
 0 281 l 1,63,-1
 133 413 l 1,64,-1
 142 413 l 1,65,-1
 289 413 l 1,66,-1
 301 413 l 2,67,68
 310 413 310 413 310 405 c 2,69,-1
 310 384 l 1,50,-1
51 22 m 1,70,-1
 259 22 l 1,71,-1
 259 362 l 1,72,-1
 151 362 l 1,73,-1
 151 272 l 2,74,75
 151 263 151 263 142 263 c 2,76,-1
 51 263 l 1,77,-1
 51 22 l 1,70,-1
EndSplineSet
Validated: 1
EndChar

StartChar: uniF182
Encoding: 61826 61826 133
Width: 361
GlyphClass: 2
Flags: W
LayerCount: 2
Fore
SplineSet
301 46 m 2,0,1
 310 46 310 46 310 37 c 2,2,-1
 310 -8 l 1,3,-1
 310 -21 l 2,4,5
 310 -29 310 -29 301 -29 c 2,6,-1
 293 -29 l 1,7,-1
 17 -29 l 1,8,-1
 9 -29 l 2,9,10
 0 -29 0 -29 0 -21 c 2,11,-1
 0 -8 l 1,12,-1
 0 263 l 1,13,-1
 0 268 l 1,14,-1
 0 281 l 1,15,-1
 133 413 l 1,16,-1
 142 413 l 1,17,-1
 289 413 l 1,18,-1
 301 413 l 2,19,20
 310 413 310 413 310 405 c 2,21,-1
 310 384 l 1,22,-1
 310 257 l 1,23,-1
 310 257 l 1,24,-1
 310 257 l 1,25,26
 310 248 310 248 301 248 c 2,27,-1
 268 248 l 2,28,29
 259 248 259 248 259 257 c 2,30,-1
 259 362 l 1,31,-1
 151 362 l 1,32,-1
 151 272 l 2,33,34
 151 263 151 263 142 263 c 2,35,-1
 51 263 l 1,36,-1
 51 22 l 1,37,-1
 259 22 l 1,38,-1
 259 37 l 2,39,40
 259 46 259 46 268 46 c 2,41,-1
 301 46 l 2,0,1
330 147 m 1,42,-1
 358 119 l 2,43,44
 364 112 364 112 358 106 c 2,45,-1
 333 81 l 2,46,47
 327 75 327 75 321 81 c 2,48,-1
 292 110 l 1,49,-1
 264 81 l 2,50,51
 258 75 258 75 252 81 c 2,52,-1
 227 106 l 2,53,54
 225 108 225 108 225 112.5 c 128,-1,55
 225 117 225 117 227 119 c 2,56,-1
 255 147 l 1,57,-1
 227 175 l 2,58,59
 225 177 225 177 225 181.5 c 128,-1,60
 225 186 225 186 227 188 c 2,61,-1
 252 213 l 2,62,63
 258 219 258 219 264 213 c 2,64,-1
 292 185 l 1,65,-1
 320 213 l 2,66,67
 322 215 322 215 326.5 215 c 128,-1,68
 331 215 331 215 333 213 c 2,69,-1
 358 188 l 2,70,71
 364 182 364 182 358 175 c 2,72,-1
 330 147 l 1,42,-1
EndSplineSet
Validated: 5
EndChar

StartChar: uniF183
Encoding: 61827 61827 134
Width: 310
GlyphClass: 2
Flags: W
LayerCount: 2
Fore
SplineSet
310 384 m 1,0,-1
 310 -8 l 1,1,-1
 310 -21 l 2,2,3
 310 -29 310 -29 301 -29 c 2,4,-1
 293 -29 l 1,5,-1
 17 -29 l 1,6,-1
 9 -29 l 2,7,8
 0 -29 0 -29 0 -21 c 2,9,-1
 0 -8 l 1,10,-1
 0 263 l 1,11,-1
 0 268 l 1,12,-1
 0 281 l 1,13,-1
 133 413 l 1,14,-1
 142 413 l 1,15,-1
 289 413 l 1,16,-1
 301 413 l 2,17,18
 310 413 310 413 310 405 c 2,19,-1
 310 384 l 1,0,-1
51 22 m 1,20,-1
 259 22 l 1,21,-1
 259 362 l 1,22,-1
 151 362 l 1,23,-1
 151 272 l 2,24,25
 151 263 151 263 142 263 c 2,26,-1
 51 263 l 1,27,-1
 51 22 l 1,20,-1
97 131 m 2,28,29
 123 131 123 131 123 108 c 0,30,31
 123 84 123 84 97 84 c 2,32,-1
 76 84 l 1,33,-1
 76 131 l 1,34,-1
 97 131 l 2,28,29
97 96 m 2,35,36
 108 96 108 96 108 108 c 0,37,38
 108 119 108 119 97 119 c 2,39,-1
 90 119 l 1,40,-1
 90 96 l 1,41,-1
 97 96 l 2,35,36
155 132 m 128,-1,43
 181 132 181 132 181 108 c 0,44,45
 181 97 181 97 173.5 90 c 128,-1,46
 166 83 166 83 155 83 c 128,-1,47
 144 83 144 83 136.5 90 c 128,-1,48
 129 97 129 97 129 108 c 0,49,42
 129 132 129 132 155 132 c 128,-1,43
155 96 m 0,50,51
 166 96 166 96 166 108 c 0,52,53
 166 119 166 119 155 119 c 0,54,55
 143 119 143 119 143 108 c 0,56,57
 143 96 143 96 155 96 c 0,50,51
213 119 m 0,58,59
 201 119 201 119 201 108 c 0,60,61
 201 96 201 96 213 96 c 0,62,63
 220 96 220 96 222 103 c 1,64,-1
 234 97 l 1,65,66
 227 83 227 83 213 83 c 0,67,68
 202 83 202 83 194.5 90 c 128,-1,69
 187 97 187 97 187 108 c 0,70,71
 187 132 187 132 213 132 c 0,72,73
 228 132 228 132 234 118 c 1,74,-1
 222 113 l 1,75,76
 220 119 220 119 213 119 c 0,58,59
EndSplineSet
Validated: 1
EndChar

StartChar: uniF184
Encoding: 61828 61828 135
Width: 428
GlyphClass: 2
Flags: W
LayerCount: 2
Fore
SplineSet
301 46 m 2,0,1
 310 46 310 46 310 37 c 2,2,-1
 310 -8 l 1,3,-1
 310 -21 l 2,4,5
 310 -29 310 -29 301 -29 c 2,6,-1
 293 -29 l 1,7,-1
 17 -29 l 1,8,-1
 9 -29 l 2,9,10
 0 -29 0 -29 0 -21 c 2,11,-1
 0 -8 l 1,12,-1
 0 263 l 1,13,-1
 0 268 l 1,14,-1
 0 281 l 1,15,-1
 133 413 l 1,16,-1
 142 413 l 1,17,-1
 289 413 l 1,18,-1
 301 413 l 2,19,20
 310 413 310 413 310 405 c 2,21,-1
 310 384 l 1,22,-1
 310 300 l 1,23,-1
 310 300 l 1,24,-1
 310 299 l 2,25,26
 310 291 310 291 301 291 c 2,27,-1
 268 291 l 2,28,29
 259 291 259 291 259 299 c 2,30,-1
 259 362 l 1,31,-1
 151 362 l 1,32,-1
 151 272 l 2,33,34
 151 263 151 263 142 263 c 2,35,-1
 51 263 l 1,36,-1
 51 22 l 1,37,-1
 259 22 l 1,38,-1
 259 37 l 2,39,40
 259 46 259 46 268 46 c 2,41,-1
 301 46 l 2,0,1
425 248 m 2,42,43
 431 242 431 242 425 236 c 2,44,-1
 262 73 l 1,45,-1
 262 73 l 1,46,-1
 180 51 l 1,47,48
 175 47 175 47 170 52 c 0,49,50
 166 56 166 56 168 61 c 2,51,-1
 190 145 l 1,52,-1
 191 144 l 1,53,-1
 190 145 l 1,54,-1
 353 308 l 2,55,56
 360 314 360 314 366 308 c 2,57,-1
 425 248 l 2,42,43
195 78 m 1,58,-1
 244 91 l 1,59,-1
 208 127 l 1,60,-1
 195 78 l 1,58,-1
EndSplineSet
Validated: 5
EndChar

StartChar: uniF185
Encoding: 61829 61829 136
Width: 458
GlyphClass: 2
Flags: W
LayerCount: 2
Fore
SplineSet
456 112 m 2,0,1
 458 111 458 111 458 107 c 128,-1,2
 458 103 458 103 456 102 c 2,3,-1
 362 34 l 2,4,5
 358 32 358 32 355 33 c 128,-1,6
 352 34 352 34 352 39 c 2,7,-1
 352 71 l 1,8,-1
 266 71 l 2,9,10
 259 71 259 71 259 78 c 2,11,-1
 259 136 l 2,12,13
 259 142 259 142 266 142 c 2,14,-1
 351 142 l 1,15,-1
 351 174 l 2,16,17
 351 178 351 178 355 180 c 0,18,19
 358 182 358 182 361 180 c 2,20,-1
 456 112 l 2,0,1
301 46 m 2,21,22
 310 46 310 46 310 37 c 2,23,-1
 310 -8 l 1,24,-1
 310 -21 l 2,25,26
 310 -29 310 -29 301 -29 c 2,27,-1
 293 -29 l 1,28,-1
 17 -29 l 1,29,-1
 9 -29 l 2,30,31
 0 -29 0 -29 0 -21 c 2,32,-1
 0 -8 l 1,33,-1
 0 263 l 1,34,-1
 0 268 l 1,35,-1
 0 281 l 1,36,-1
 133 413 l 1,37,-1
 142 413 l 1,38,-1
 289 413 l 1,39,-1
 301 413 l 2,40,41
 310 413 310 413 310 405 c 2,42,-1
 310 384 l 1,43,-1
 310 177 l 1,44,-1
 310 177 l 1,45,-1
 310 176 l 2,46,47
 310 168 310 168 301 168 c 2,48,-1
 268 168 l 2,49,50
 259 168 259 168 259 176 c 2,51,-1
 259 362 l 1,52,-1
 151 362 l 1,53,-1
 151 272 l 2,54,55
 151 263 151 263 142 263 c 2,56,-1
 51 263 l 1,57,-1
 51 22 l 1,58,-1
 259 22 l 1,59,-1
 259 37 l 2,60,61
 259 46 259 46 268 46 c 2,62,-1
 301 46 l 2,21,22
107 119 m 0,63,64
 96 119 96 119 96 108 c 0,65,66
 96 96 96 96 107 96 c 0,67,68
 114 96 114 96 116 103 c 1,69,-1
 129 97 l 1,70,71
 122 83 122 83 107 83 c 0,72,73
 96 83 96 83 88.5 90 c 128,-1,74
 81 97 81 97 81 108 c 0,75,76
 81 132 81 132 107 132 c 0,77,78
 123 132 123 132 129 118 c 1,79,-1
 116 113 l 1,80,81
 114 119 114 119 107 119 c 0,63,64
156 95 m 0,82,83
 161 95 161 95 161 98 c 0,84,85
 161 99 161 99 148 102 c 128,-1,86
 135 105 135 105 135 116 c 0,87,88
 135 132 135 132 154 132 c 0,89,90
 165 132 165 132 174 125 c 1,91,-1
 167 115 l 1,92,93
 160 120 160 120 153 120 c 0,94,95
 149 120 149 120 149 118 c 1,96,-1
 162 114 l 2,97,98
 175 111 175 111 175 100 c 0,99,100
 175 83 175 83 155 83 c 0,101,102
 141 83 141 83 133 91 c 1,103,-1
 141 101 l 1,104,105
 149 95 149 95 156 95 c 0,82,83
195 131 m 1,106,-1
 205 99 l 1,107,-1
 215 131 l 1,108,-1
 231 131 l 1,109,-1
 214 84 l 1,110,-1
 196 84 l 1,111,-1
 179 131 l 1,112,-1
 195 131 l 1,106,-1
EndSplineSet
Validated: 1
EndChar

StartChar: uniF186
Encoding: 61830 61830 137
Width: 458
GlyphClass: 2
Flags: W
LayerCount: 2
Fore
SplineSet
456 112 m 2,0,1
 458 111 458 111 458 107 c 128,-1,2
 458 103 458 103 456 102 c 2,3,-1
 362 34 l 2,4,5
 358 32 358 32 355 33 c 128,-1,6
 352 34 352 34 352 39 c 2,7,-1
 352 71 l 1,8,-1
 266 71 l 2,9,10
 259 71 259 71 259 78 c 2,11,-1
 259 136 l 2,12,13
 259 142 259 142 266 142 c 2,14,-1
 351 142 l 1,15,-1
 351 174 l 2,16,17
 351 178 351 178 355 180 c 0,18,19
 358 182 358 182 361 180 c 2,20,-1
 456 112 l 2,0,1
301 46 m 2,21,22
 310 46 310 46 310 37 c 2,23,-1
 310 -8 l 1,24,-1
 310 -21 l 2,25,26
 310 -29 310 -29 301 -29 c 2,27,-1
 293 -29 l 1,28,-1
 17 -29 l 1,29,-1
 9 -29 l 2,30,31
 0 -29 0 -29 0 -21 c 2,32,-1
 0 -8 l 1,33,-1
 0 263 l 1,34,-1
 0 268 l 1,35,-1
 0 281 l 1,36,-1
 133 413 l 1,37,-1
 142 413 l 1,38,-1
 289 413 l 1,39,-1
 301 413 l 2,40,41
 310 413 310 413 310 405 c 2,42,-1
 310 384 l 1,43,-1
 310 177 l 1,44,-1
 310 177 l 1,45,-1
 310 176 l 2,46,47
 310 168 310 168 301 168 c 2,48,-1
 268 168 l 2,49,50
 259 168 259 168 259 176 c 2,51,-1
 259 362 l 1,52,-1
 151 362 l 1,53,-1
 151 272 l 2,54,55
 151 263 151 263 142 263 c 2,56,-1
 51 263 l 1,57,-1
 51 22 l 1,58,-1
 259 22 l 1,59,-1
 259 37 l 2,60,61
 259 46 259 46 268 46 c 2,62,-1
 301 46 l 2,21,22
77 131 m 1,63,-1
 99 131 l 2,64,65
 125 131 125 131 125 108 c 0,66,67
 125 84 125 84 99 84 c 2,68,-1
 77 84 l 1,69,-1
 77 131 l 1,63,-1
110 108 m 0,70,71
 110 119 110 119 99 119 c 2,72,-1
 92 119 l 1,73,-1
 92 96 l 1,74,-1
 99 96 l 2,75,76
 110 96 110 96 110 108 c 0,70,71
131 108 m 0,77,78
 131 132 131 132 156 132 c 0,79,80
 182 132 182 132 182 108 c 0,81,82
 182 97 182 97 174.5 90 c 128,-1,83
 167 83 167 83 156 83 c 0,84,85
 131 83 131 83 131 108 c 0,77,78
168 108 m 0,86,87
 168 119 168 119 156 119 c 0,88,89
 145 119 145 119 145 108 c 0,90,91
 145 96 145 96 156 96 c 0,92,93
 168 96 168 96 168 108 c 0,86,87
214 119 m 0,94,95
 203 119 203 119 203 108 c 0,96,97
 203 96 203 96 214 96 c 0,98,99
 221 96 221 96 223 103 c 1,100,-1
 236 97 l 1,101,102
 229 83 229 83 214 83 c 0,103,104
 203 83 203 83 195.5 90 c 128,-1,105
 188 97 188 97 188 108 c 0,106,107
 188 132 188 132 214 132 c 0,108,109
 230 132 230 132 236 118 c 1,110,-1
 223 113 l 1,111,112
 222 119 222 119 214 119 c 0,94,95
EndSplineSet
Validated: 1
EndChar

StartChar: uniF187
Encoding: 61831 61831 138
Width: 458
GlyphClass: 2
Flags: W
LayerCount: 2
Fore
SplineSet
456 112 m 2,0,1
 458 111 458 111 458 107 c 128,-1,2
 458 103 458 103 456 102 c 2,3,-1
 362 34 l 2,4,5
 358 32 358 32 355 33 c 128,-1,6
 352 34 352 34 352 39 c 2,7,-1
 352 71 l 1,8,-1
 266 71 l 2,9,10
 259 71 259 71 259 78 c 2,11,-1
 259 136 l 2,12,13
 259 142 259 142 266 142 c 2,14,-1
 351 142 l 1,15,-1
 351 174 l 2,16,17
 351 178 351 178 355 180 c 0,18,19
 358 182 358 182 361 180 c 2,20,-1
 456 112 l 2,0,1
301 46 m 2,21,22
 310 46 310 46 310 37 c 2,23,-1
 310 -8 l 1,24,-1
 310 -21 l 2,25,26
 310 -29 310 -29 301 -29 c 2,27,-1
 293 -29 l 1,28,-1
 17 -29 l 1,29,-1
 9 -29 l 2,30,31
 0 -29 0 -29 0 -21 c 2,32,-1
 0 -8 l 1,33,-1
 0 263 l 1,34,-1
 0 268 l 1,35,-1
 0 281 l 1,36,-1
 133 413 l 1,37,-1
 142 413 l 1,38,-1
 289 413 l 1,39,-1
 301 413 l 2,40,41
 310 413 310 413 310 405 c 2,42,-1
 310 384 l 1,43,-1
 310 177 l 1,44,-1
 310 177 l 1,45,-1
 310 176 l 2,46,47
 310 168 310 168 301 168 c 2,48,-1
 268 168 l 2,49,50
 259 168 259 168 259 176 c 2,51,-1
 259 362 l 1,52,-1
 151 362 l 1,53,-1
 151 272 l 2,54,55
 151 263 151 263 142 263 c 2,56,-1
 51 263 l 1,57,-1
 51 22 l 1,58,-1
 259 22 l 1,59,-1
 259 37 l 2,60,61
 259 46 259 46 268 46 c 2,62,-1
 301 46 l 2,21,22
83 131 m 1,63,-1
 109 131 l 2,64,65
 126 131 126 131 126 115 c 128,-1,66
 126 99 126 99 109 99 c 2,67,-1
 98 99 l 1,68,-1
 98 84 l 1,69,-1
 83 84 l 1,70,-1
 83 131 l 1,63,-1
111 115 m 128,-1,72
 111 119 111 119 107 119 c 2,73,-1
 98 119 l 1,74,-1
 98 111 l 1,75,-1
 107 111 l 2,76,71
 111 111 111 111 111 115 c 128,-1,72
133 131 m 1,77,-1
 154 131 l 2,78,79
 180 131 180 131 180 108 c 0,80,81
 180 84 180 84 154 84 c 2,82,-1
 133 84 l 1,83,-1
 133 131 l 1,77,-1
166 108 m 0,84,85
 166 119 166 119 154 119 c 2,86,-1
 147 119 l 1,87,-1
 147 96 l 1,88,-1
 154 96 l 2,89,90
 166 96 166 96 166 108 c 0,84,85
225 119 m 1,91,-1
 203 119 l 1,92,-1
 203 114 l 1,93,-1
 224 114 l 1,94,-1
 224 102 l 1,95,-1
 203 102 l 1,96,-1
 203 84 l 1,97,-1
 189 84 l 1,98,-1
 189 131 l 1,99,-1
 225 131 l 1,100,-1
 225 119 l 1,91,-1
EndSplineSet
Validated: 1
EndChar

StartChar: uniF188
Encoding: 61832 61832 139
Width: 458
GlyphClass: 2
Flags: W
LayerCount: 2
Fore
SplineSet
456 112 m 2,0,1
 458 111 458 111 458 107 c 128,-1,2
 458 103 458 103 456 102 c 2,3,-1
 362 34 l 6,4,5
 358 32 358 32 355 33 c 132,-1,6
 352 34 352 34 352 39 c 6,7,-1
 352 71 l 5,8,-1
 266 71 l 2,9,10
 259 71 259 71 259 78 c 2,11,-1
 259 136 l 2,12,13
 259 142 259 142 266 142 c 2,14,-1
 351 142 l 5,15,-1
 351 174 l 6,16,17
 351 178 351 178 355 180 c 4,18,19
 358 182 358 182 361 180 c 6,20,-1
 456 112 l 2,0,1
301 46 m 2,21,22
 310 46 310 46 310 37 c 2,23,-1
 310 -8 l 1,24,-1
 310 -21 l 2,25,26
 310 -29 310 -29 301 -29 c 2,27,-1
 293 -29 l 1,28,-1
 17 -29 l 1,29,-1
 9 -29 l 2,30,31
 0 -29 0 -29 0 -21 c 2,32,-1
 0 -8 l 1,33,-1
 0 263 l 1,34,-1
 0 268 l 1,35,-1
 0 281 l 1,36,-1
 133 413 l 1,37,-1
 142 413 l 1,38,-1
 289 413 l 1,39,-1
 301 413 l 2,40,41
 310 413 310 413 310 405 c 2,42,-1
 310 384 l 1,43,-1
 310 177 l 1,44,-1
 310 177 l 1,45,-1
 310 176 l 2,46,47
 310 168 310 168 301 168 c 2,48,-1
 268 168 l 2,49,50
 259 168 259 168 259 176 c 2,51,-1
 259 362 l 1,52,-1
 151 362 l 1,53,-1
 151 272 l 2,54,55
 151 263 151 263 142 263 c 2,56,-1
 51 263 l 1,57,-1
 51 22 l 1,58,-1
 259 22 l 1,59,-1
 259 37 l 2,60,61
 259 46 259 46 268 46 c 2,62,-1
 301 46 l 2,21,22
EndSplineSet
Validated: 1
EndChar

StartChar: uniF189
Encoding: 61833 61833 140
Width: 310
GlyphClass: 2
Flags: W
LayerCount: 2
Fore
SplineSet
9 263 m 2,0,1
 0 263 0 263 0 272 c 2,2,-1
 0 281 l 1,3,-1
 133 413 l 1,4,-1
 142 413 l 2,5,6
 151 413 151 413 151 405 c 2,7,-1
 151 272 l 2,8,9
 151 263 151 263 142 263 c 2,10,-1
 9 263 l 2,0,1
301 413 m 2,11,12
 310 413 310 413 310 405 c 2,13,-1
 310 -21 l 2,14,15
 310 -29 310 -29 301 -29 c 2,16,-1
 9 -29 l 2,17,18
 0 -29 0 -29 0 -21 c 2,19,-1
 0 203 l 1,20,21
 2 211 2 211 9 211 c 2,22,-1
 193 211 l 1,23,-1
 193 211 l 1,24,25
 202 211 202 211 202 220 c 1,26,-1
 202 220 l 1,27,-1
 202 407 l 1,28,29
 204 413 204 413 210 413 c 2,30,-1
 301 413 l 2,11,12
EndSplineSet
Validated: 5
EndChar

StartChar: uniF18A
Encoding: 61834 61834 141
Width: 389
GlyphClass: 2
Flags: W
LayerCount: 2
Fore
SplineSet
381 329 m 2,0,1
 389 329 389 329 389 321 c 2,2,-1
 389 -39 l 2,3,4
 389 -47 389 -47 381 -47 c 2,5,-1
 110 -47 l 1,6,-1
 110 -47 l 1,7,8
 102 -47 102 -47 102 -39 c 2,9,-1
 102 -21 l 1,10,-1
 355 -21 l 2,11,12
 363 -21 363 -21 363 -14 c 2,13,-1
 363 329 l 1,14,-1
 381 329 l 2,0,1
338 12 m 2,15,16
 338 4 338 4 330 4 c 2,17,-1
 59 4 l 2,18,19
 51 4 51 4 51 12 c 2,20,-1
 51 30 l 1,21,-1
 304 30 l 2,22,23
 312 30 312 30 312 37 c 2,24,-1
 312 380 l 1,25,-1
 330 380 l 2,26,27
 338 380 338 380 338 372 c 2,28,-1
 338 12 l 2,15,16
287 63 m 2,29,30
 287 55 287 55 279 55 c 2,31,-1
 8 55 l 2,32,33
 0 55 0 55 0 63 c 2,34,-1
 0 423 l 2,35,36
 0 431 0 431 8 431 c 2,37,-1
 279 431 l 2,38,39
 287 431 287 431 287 423 c 2,40,-1
 287 63 l 2,29,30
EndSplineSet
Validated: 5
EndChar

StartChar: uniF18B
Encoding: 61835 61835 142
Width: 310
GlyphClass: 2
Flags: W
LayerCount: 2
Fore
SplineSet
110 131 m 2,0,1
 127 131 127 131 127 115 c 128,-1,2
 127 99 127 99 110 99 c 2,3,-1
 99 99 l 1,4,-1
 99 84 l 1,5,-1
 84 84 l 1,6,-1
 84 131 l 1,7,-1
 110 131 l 2,0,1
108 111 m 2,8,9
 112 111 112 111 112 115 c 128,-1,10
 112 119 112 119 108 119 c 2,11,-1
 99 119 l 1,12,-1
 99 111 l 1,13,-1
 108 111 l 2,8,9
155 131 m 2,14,15
 181 131 181 131 181 108 c 0,16,17
 181 84 181 84 155 84 c 2,18,-1
 134 84 l 1,19,-1
 134 131 l 1,20,-1
 155 131 l 2,14,15
155 96 m 2,21,22
 167 96 167 96 167 108 c 0,23,24
 167 119 167 119 155 119 c 2,25,-1
 148 119 l 1,26,-1
 148 96 l 1,27,-1
 155 96 l 2,21,22
190 84 m 1,28,-1
 190 131 l 1,29,-1
 226 131 l 1,30,-1
 226 119 l 1,31,-1
 204 119 l 1,32,-1
 204 114 l 1,33,-1
 225 114 l 1,34,-1
 225 102 l 1,35,-1
 204 102 l 1,36,-1
 204 84 l 1,37,-1
 190 84 l 1,28,-1
310 384 m 1,38,-1
 310 -8 l 1,39,-1
 310 -21 l 2,40,41
 310 -29 310 -29 301 -29 c 2,42,-1
 293 -29 l 1,43,-1
 17 -29 l 1,44,-1
 9 -29 l 2,45,46
 0 -29 0 -29 0 -21 c 2,47,-1
 0 -8 l 1,48,-1
 0 263 l 1,49,-1
 0 268 l 1,50,-1
 0 281 l 1,51,-1
 133 413 l 1,52,-1
 142 413 l 1,53,-1
 289 413 l 1,54,-1
 301 413 l 2,55,56
 310 413 310 413 310 405 c 2,57,-1
 310 384 l 1,38,-1
51 22 m 1,58,-1
 259 22 l 1,59,-1
 259 362 l 1,60,-1
 151 362 l 1,61,-1
 151 272 l 2,62,63
 151 263 151 263 142 263 c 2,64,-1
 51 263 l 1,65,-1
 51 22 l 1,58,-1
EndSplineSet
Validated: 1
EndChar

StartChar: uniF18C
Encoding: 61836 61836 143
Width: 360
GlyphClass: 2
Flags: W
LayerCount: 2
Fore
SplineSet
310 86 m 1,0,-1
 310 86 l 1,1,-1
 310 -8 l 1,2,-1
 310 -21 l 2,3,4
 310 -29 310 -29 301 -29 c 2,5,-1
 293 -29 l 1,6,-1
 17 -29 l 1,7,-1
 9 -29 l 2,8,9
 0 -29 0 -29 0 -21 c 2,10,-1
 0 -8 l 1,11,-1
 0 263 l 1,12,-1
 0 268 l 1,13,-1
 0 281 l 1,14,-1
 133 413 l 1,15,-1
 142 413 l 1,16,-1
 289 413 l 1,17,-1
 301 413 l 2,18,19
 310 413 310 413 310 405 c 2,20,-1
 310 384 l 1,21,-1
 310 208 l 1,22,-1
 310 208 l 1,23,-1
 310 208 l 1,24,25
 310 199 310 199 301 199 c 2,26,-1
 268 199 l 2,27,28
 259 199 259 199 259 208 c 2,29,-1
 259 362 l 1,30,-1
 151 362 l 1,31,-1
 151 272 l 2,32,33
 151 263 151 263 142 263 c 2,34,-1
 51 263 l 1,35,-1
 51 22 l 1,36,-1
 259 22 l 1,37,-1
 259 86 l 2,38,39
 259 95 259 95 268 95 c 2,40,-1
 301 95 l 2,41,42
 310 95 310 95 310 86 c 1,43,-1
 310 86 l 1,0,-1
351 174 m 2,44,45
 360 174 360 174 360 165 c 2,46,-1
 360 129 l 2,47,48
 360 121 360 121 351 121 c 2,49,-1
 218 121 l 2,50,51
 209 121 209 121 209 129 c 2,52,-1
 209 165 l 2,53,54
 209 174 209 174 218 174 c 2,55,-1
 351 174 l 2,44,45
EndSplineSet
Validated: 5
EndChar

StartChar: uniF18D
Encoding: 61837 61837 144
Width: 403
GlyphClass: 2
Flags: W
LayerCount: 2
Fore
SplineSet
403 384 m 1,0,-1
 402 -8 l 1,1,-1
 402 -21 l 2,2,3
 402 -29 402 -29 394 -29 c 2,4,-1
 386 -29 l 1,5,-1
 109 -29 l 1,6,-1
 101 -29 l 2,7,8
 92 -29 92 -29 92 -21 c 2,9,-1
 92 -8 l 1,10,-1
 92 37 l 2,11,12
 92 46 92 46 101 46 c 2,13,-1
 135 46 l 2,14,15
 143 46 143 46 143 37 c 2,16,-1
 143 22 l 1,17,-1
 352 22 l 1,18,-1
 352 362 l 1,19,-1
 243 362 l 1,20,-1
 243 272 l 2,21,22
 243 263 243 263 234 263 c 2,23,-1
 143 263 l 1,24,-1
 143 254 l 2,25,26
 143 246 143 246 135 246 c 2,27,-1
 101 246 l 2,28,29
 93 246 93 246 93 254 c 1,30,-1
 92 254 l 1,31,-1
 92 263 l 1,32,-1
 92 268 l 1,33,-1
 92 281 l 1,34,-1
 225 413 l 1,35,-1
 234 413 l 1,36,-1
 381 413 l 1,37,-1
 394 413 l 2,38,39
 402 413 402 413 402 405 c 2,40,-1
 402 384 l 1,41,-1
 403 384 l 1,0,-1
199 146 m 128,-1,43
 199 112 199 112 175 88 c 128,-1,44
 151 64 151 64 117 64 c 0,45,46
 96 64 96 64 80 73 c 1,47,-1
 39 32 l 2,48,49
 32 25 32 25 23 25 c 0,50,51
 13 25 13 25 6.5 31 c 128,-1,52
 0 37 0 37 0 47 c 128,-1,53
 0 57 0 57 7 64 c 2,54,-1
 47 104 l 1,55,56
 35 125 35 125 35 146 c 0,57,58
 35 180 35 180 59 204 c 128,-1,59
 83 228 83 228 117 228 c 128,-1,60
 151 228 151 228 175 204 c 128,-1,42
 199 180 199 180 199 146 c 128,-1,43
70 146 m 128,-1,62
 70 126 70 126 84 112 c 128,-1,63
 98 98 98 98 117 98 c 128,-1,64
 136 98 136 98 150.5 112 c 128,-1,65
 165 126 165 126 165 146 c 0,66,67
 165 165 165 165 151 179 c 128,-1,68
 137 193 137 193 117 193 c 0,69,70
 98 193 98 193 84 179.5 c 128,-1,61
 70 166 70 166 70 146 c 128,-1,62
EndSplineSet
Validated: 1
EndChar

StartChar: uniF18E
Encoding: 61838 61838 145
Width: 310
GlyphClass: 2
Flags: W
LayerCount: 2
Fore
SplineSet
310 384 m 1,0,-1
 310 -8 l 1,1,-1
 310 -21 l 2,2,3
 310 -29 310 -29 301 -29 c 2,4,-1
 293 -29 l 1,5,-1
 17 -29 l 1,6,-1
 9 -29 l 2,7,8
 0 -29 0 -29 0 -21 c 2,9,-1
 0 -8 l 1,10,-1
 0 263 l 1,11,-1
 0 268 l 1,12,-1
 0 281 l 1,13,-1
 133 413 l 1,14,-1
 142 413 l 1,15,-1
 289 413 l 1,16,-1
 301 413 l 2,17,18
 310 413 310 413 310 405 c 2,19,-1
 310 384 l 1,0,-1
51 22 m 1,20,-1
 259 22 l 1,21,-1
 259 362 l 1,22,-1
 151 362 l 1,23,-1
 151 272 l 2,24,25
 151 263 151 263 142 263 c 2,26,-1
 51 263 l 1,27,-1
 51 22 l 1,20,-1
EndSplineSet
Validated: 1
EndChar

StartChar: uniF18F
Encoding: 61839 61839 146
Width: 439
GlyphClass: 2
Flags: W
LayerCount: 2
Fore
SplineSet
389 203 m 2,0,1
 398 194 398 194 389 185 c 2,2,-1
 186 -18 l 2,3,4
 177 -27 177 -27 168 -18 c 2,5,-1
 4 146 l 2,6,7
 -6 156 -6 156 4 165 c 2,8,-1
 143 304 l 1,9,-1
 86 362 l 2,10,11
 78 370 78 370 78 380 c 128,-1,12
 78 390 78 390 86 398 c 128,-1,13
 94 406 94 406 104 406 c 128,-1,14
 114 406 114 406 122 398 c 2,15,-1
 179 340 l 1,16,-1
 206 367 l 2,17,18
 216 376 216 376 225 367 c 1,19,-1
 225 367 l 1,20,-1
 389 203 l 2,0,1
288 156 m 1,21,-1
 326 194 l 1,22,-1
 216 304 l 1,23,-1
 67 156 l 1,24,-1
 288 156 l 1,21,-1
430 70 m 1,25,26
 439 58 439 58 439 43 c 0,27,28
 439 23 439 23 425 9 c 128,-1,29
 411 -5 411 -5 392 -5 c 0,30,31
 372 -5 372 -5 358 9.5 c 128,-1,32
 344 24 344 24 344 43 c 0,33,34
 344 58 344 58 354 71 c 1,35,-1
 384 123 l 2,36,37
 384 124 384 124 384 124 c 1,38,-1
 385 124 l 1,39,-1
 385 125 l 1,40,41
 388 128 388 128 392 128 c 0,42,43
 395 128 395 128 399 124 c 1,44,-1
 399 124 l 1,45,-1
 399 123 l 1,46,-1
 430 70 l 1,25,26
EndSplineSet
Validated: 37
EndChar

StartChar: uniF190
Encoding: 61840 61840 147
Width: 356
GlyphClass: 2
Flags: W
LayerCount: 2
Fore
SplineSet
77 -5 m 0,0,1
 50 -5 50 -5 27 18 c 0,2,3
 -2 47 -2 47 2 80 c 0,4,5
 5 106 5 106 29 130 c 2,6,-1
 179 281 l 2,7,8
 227 329 227 329 262 294 c 0,9,10
 296 260 296 260 248 212 c 2,11,-1
 110 73 l 1,12,-1
 83 100 l 1,13,-1
 221 239 l 2,14,15
 242 260 242 260 235 267 c 0,16,17
 227 275 227 275 206 254 c 2,18,-1
 56 103 l 2,19,20
 41 88 41 88 40 75 c 0,21,22
 39 60 39 60 54 45 c 0,23,24
 65 34 65 34 80 34 c 1,25,26
 94 36 94 36 110 52 c 2,27,-1
 288 230 l 2,28,29
 310 252 310 252 316 272 c 0,30,31
 324 301 324 301 296 329 c 0,32,33
 251 374 251 374 198 321 c 2,34,-1
 33 156 l 2,35,36
 28 151 28 151 19.5 151 c 128,-1,37
 11 151 11 151 6 156 c 128,-1,38
 1 161 1 161 1 169.5 c 128,-1,39
 1 178 1 178 6 183 c 2,40,-1
 171 348 l 2,41,42
 209 386 209 386 248.5 388 c 128,-1,43
 288 390 288 390 323 356 c 0,44,45
 366 313 366 313 353 262 c 1,46,47
 344 232 344 232 315 203 c 2,48,-1
 137 25 l 2,49,50
 111 -1 111 -1 86 -4 c 0,51,52
 84 -4 84 -4 81 -4.5 c 128,-1,53
 78 -5 78 -5 77 -5 c 0,0,1
EndSplineSet
Validated: 33
EndChar

StartChar: uniF191
Encoding: 61841 61841 148
Width: 228
GlyphClass: 2
Flags: W
LayerCount: 2
Fore
SplineSet
65 346 m 2,0,1
 77 346 77 346 77 335 c 1,2,-1
 77 335 l 1,3,-1
 77 49 l 1,4,-1
 77 49 l 1,5,6
 77 38 77 38 65 38 c 2,7,-1
 11 38 l 1,8,-1
 11 38 l 1,9,10
 0 38 0 38 0 49 c 1,11,-1
 0 49 l 1,12,-1
 0 335 l 1,13,-1
 0 335 l 1,14,15
 0 346 0 346 11 346 c 2,16,-1
 64 346 l 1,17,-1
 65 346 l 2,0,1
228 49 m 1,18,-1
 228 49 l 1,19,20
 228 38 228 38 217 38 c 2,21,-1
 162 38 l 1,22,-1
 162 38 l 1,23,24
 151 38 151 38 151 49 c 1,25,-1
 151 49 l 1,26,-1
 151 335 l 1,27,-1
 151 335 l 1,28,29
 151 346 151 346 162 346 c 2,30,-1
 215 346 l 1,31,-1
 217 346 l 2,32,33
 228 346 228 346 228 335 c 1,34,-1
 228 335 l 1,35,-1
 228 49 l 1,18,-1
EndSplineSet
Validated: 5
EndChar

StartChar: uniF192
Encoding: 61842 61842 149
Width: 363
GlyphClass: 2
Flags: W
LayerCount: 2
Fore
SplineSet
104 240 m 128,-1,1
 104 218 104 218 89 203 c 128,-1,2
 74 188 74 188 52 188 c 128,-1,3
 30 188 30 188 15 203 c 128,-1,4
 0 218 0 218 0 240 c 128,-1,5
 0 262 0 262 15 276.5 c 128,-1,6
 30 291 30 291 52 291 c 128,-1,7
 74 291 74 291 89 276.5 c 128,-1,0
 104 262 104 262 104 240 c 128,-1,1
311 281 m 128,-1,9
 333 281 333 281 348 266 c 128,-1,10
 363 251 363 251 363 229 c 128,-1,11
 363 207 363 207 348 192.5 c 128,-1,12
 333 178 333 178 311 178 c 128,-1,13
 289 178 289 178 274 192.5 c 128,-1,14
 259 207 259 207 259 229 c 128,-1,15
 259 251 259 251 274 266 c 128,-1,8
 289 281 289 281 311 281 c 128,-1,9
264 172 m 1,16,-1
 267 168 l 1,17,18
 302 126 302 126 302 84 c 0,19,20
 302 56 302 56 282 36 c 128,-1,21
 262 16 262 16 234 16 c 0,22,23
 202 16 202 16 181 43 c 1,24,25
 160 16 160 16 127 16 c 0,26,27
 99 16 99 16 79 36 c 128,-1,28
 59 56 59 56 59 84 c 0,29,30
 59 126 59 126 94 168 c 1,31,-1
 97 172 l 2,32,33
 102 178 102 178 119 193 c 1,34,35
 144 220 144 220 181 220 c 0,36,37
 223 220 223 220 249 187 c 1,38,-1
 264 172 l 1,16,-1
128 310 m 0,39,40
 128 368 128 368 185 368 c 128,-1,41
 242 368 242 368 242 310 c 0,42,43
 242 253 242 253 185 253 c 128,-1,44
 128 253 128 253 128 310 c 0,39,40
EndSplineSet
Validated: 1
EndChar

